<svg xmlns="http://www.w3.org/2000/svg" style="isolation:isolate" viewBox="78 368.5 170.5 103.5"><defs/><path fill="none" stroke="#000" stroke-linecap="square" stroke-miterlimit="3" stroke-width="4" d="M84 387h21l32 23 2 29" vector-effect="non-scaling-stroke"/><path stroke="#000" stroke-linecap="square" stroke-miterlimit="3" stroke-width="4" d="M116 425l21-4" vector-effect="non-scaling-stroke"/><path fill="none" stroke="#000" stroke-linecap="square" stroke-miterlimit="3" stroke-width="4" d="M148 425h19v23h-12l12 12 12-12h-12" vector-effect="non-scaling-stroke"/><path fill="none" stroke="#000" stroke-linecap="square" stroke-miterlimit="3" stroke-width="4" d="M148 437v-5h11v9M176 427v13h24l-19 19h61.5" vector-effect="non-scaling-stroke"/><path fill-rule="evenodd" d="M132.2 440.5l-6.2-4.2-6.2-4.3 5.3-1.2 5.4-1.2.8 5.5.9 5.4zm-5.7-7.8a1.6 1.6 0 112.6 1.8 1.6 1.6 0 01-2.6-1.8zM142.2 410l5.8 4.8 5.8 4.7-5.4.7-5.4.8-.4-5.5-.4-5.4zm5 8.3a1.6 1.6 0 11-2.5-2 1.6 1.6 0 012.5 2zM114.5 418.7l3.3-6.8 3.2-6.8 2 5.1 2 5.2-5.2 1.6-5.3 1.7zm6.8-6.9a1.6 1.6 0 11-1.3 3 1.6 1.6 0 011.3-3zM90 376.8a2 2 0 114 0 2 2 0 01-4 0zm4.5-4h-5l1.3-2.1 1.2-2.2 1.3 2.2 1.2 2.1zm5.6 8.2h-5l1.3-2.2 1.2-2.1 1.3 2.1 1.2 2.2zM89 381h-5l1.2-2.2 1.3-2.1 1.2 2.1L89 381z"/><path stroke="#000" stroke-linecap="square" stroke-miterlimit="3" stroke-width="4" d="M219 470v-10" vector-effect="non-scaling-stroke"/><path d="M231 452.2h-24.2l12.1-13.2z"/></svg>