<svg xmlns="http://www.w3.org/2000/svg" style="isolation:isolate" viewBox="7.2 .5 248.8 285"><defs/><path d="M240 46h-23l-7-18 10-20h-7l-21 20 5 20-25 10-5-10" fill="none" vector-effect="non-scaling-stroke" stroke-width="5" stroke="#000" stroke-miterlimit="3"/><path d="M181 47l-8-16-25 11 11 22-22 11H84" fill="none" vector-effect="non-scaling-stroke" stroke-width="5" stroke="#000" stroke-miterlimit="3"/><path d="M123 49l-21 51-18 20-10 14-8-34-13 20M74 134l-12 23-4-25-11 18M62 157l-9 27-7 33-12-20 19-13" fill="none" vector-effect="non-scaling-stroke" stroke-width="5" stroke="#000" stroke-miterlimit="3"/><path d="M45 278v-41l-16.4 18L45 265" fill="none" vector-effect="non-scaling-stroke" stroke-width="5" stroke="#000" stroke-linecap="round" stroke-miterlimit="3"/><path d="M224 28l16-20 16 20-16 20-16-20zm18.5-2.5v-4h-5v4h-4v5h4v4h5v-4h4v-5h-4zM19.2 163.6l16.6-15.4 11.4 19.6-16.7 15.4-11.3-19.6zm17.4-.4l.8-4.8-6-1-.8 4.9-4.8-.8-.9 6 4.8.8-.7 4.8 6 .9.7-4.8 4.8.7 1-6-4.9-.7zM7.2 223.8l16.6-19.6 15.4 20.4-16.5 19.6-15.5-20.4zm19.5-2.8l.1-5.4-6.7-.1-.1 5.3-5.4-.1-.1 6.6 5.3.2-.1 5.3 6.6.2.2-5.3h5.3l.2-6.6-5.3-.1z" fill-rule="evenodd"/></svg>