<svg xmlns="http://www.w3.org/2000/svg" style="isolation:isolate" viewBox="7 7 86 86"><defs/><path fill="#EBEBEB" fill-rule="evenodd" d="M86.464 41.218c.257 1.069.468 2.156.631 3.259 1.181 2.035 3.385 3.401 5.905 3.401v4.244c-2.52 0-4.724 1.366-5.905 3.401-.195 1.318-.458 2.613-.792 3.881.291 2.337 1.786 4.458 4.108 5.444l-1.659 3.907c-2.33-.989-4.905-.585-6.791.841-.567.916-1.172 1.806-1.813 2.667-.626 2.291-.04 4.844 1.758 6.642l-3.001 3.001c-1.799-1.798-4.354-2.385-6.646-1.758-1.03.767-2.102 1.482-3.214 2.136-1.466 1.863-1.92 4.437-.969 6.79l-3.936 1.59c-.945-2.339-3.04-3.872-5.373-4.203-1.06.254-2.137.463-3.23.625-2.042 1.18-3.415 3.388-3.415 5.914h-4.244c0-2.526-1.373-4.734-3.415-5.914-1.309-.194-2.596-.455-3.855-.785-2.342.288-4.469 1.784-5.456 4.11l-3.907-1.659c.99-2.332.584-4.909-.844-6.796-.913-.565-1.801-1.168-2.66-1.808-2.292-.627-4.847-.04-6.646 1.758l-3.001-3.001c1.798-1.798 2.384-4.351 1.758-6.642-.769-1.033-1.485-2.107-2.14-3.221-1.863-1.464-4.435-1.916-6.786-.966l-1.59-3.936c2.334-.943 3.865-3.031 4.2-5.358-.257-1.069-.468-2.156-.631-3.259C11.724 53.488 9.52 52.122 7 52.122v-4.244c2.52 0 4.724-1.366 5.905-3.401.195-1.318.458-2.613.792-3.881-.291-2.337-1.786-4.458-4.108-5.444l1.659-3.907c2.33.989 4.905.585 6.791-.841.567-.916 1.172-1.806 1.813-2.667.626-2.291.04-4.844-1.758-6.642l3.001-3.001c1.799 1.798 4.354 2.385 6.646 1.758 1.03-.767 2.102-1.482 3.214-2.136 1.466-1.863 1.92-4.437.969-6.79l3.936-1.59c.945 2.339 3.04 3.872 5.373 4.203 1.06-.254 2.137-.463 3.23-.625 2.042-1.18 3.415-3.388 3.415-5.914h4.244c0 2.526 1.373 4.734 3.415 5.914 1.309.194 2.596.455 3.855.785 2.342-.288 4.469-1.784 5.456-4.11l3.907 1.659c-.99 2.332-.584 4.909.844 6.796.913.565 1.801 1.168 2.66 1.808 2.292.627 4.847.04 6.646-1.758l3.001 3.001c-1.798 1.798-2.384 4.351-1.758 6.642.769 1.033 1.485 2.107 2.14 3.221 1.863 1.464 4.435 1.916 6.786.966l1.59 3.936c-2.334.943-3.865 3.031-4.2 5.358zM25.31 44.11c-.409 1.793-.625 3.659-.625 5.575 0 7.412 3.232 14.074 8.363 18.654L35.5 54.042 25.31 44.11zm1.758-5.083c3.646-7.718 11.128-13.274 19.979-14.204l-6.008 12.174-13.971 2.03zm25.925-14.125c8.52 1.129 15.692 6.555 19.263 14.026l-13.295-1.931-5.968-12.095zM74.17 44.617c.338 1.636.515 3.332.515 5.068 0 7.146-3.005 13.596-7.819 18.154L64.5 54.042l9.67-9.425zM62.501 71.15c-3.748 2.244-8.133 3.535-12.816 3.535-4.56 0-8.837-1.224-12.519-3.36L50 64.577l12.501 6.573zM39 50c0-6.071 4.929-11 11-11s11 4.929 11 11-4.929 11-11 11-11-4.929-11-11z"/></svg>