<svg xmlns="http://www.w3.org/2000/svg" style="isolation:isolate" viewBox="7 7 86 86"><defs/><path fill="#EBEBEB" fill-rule="evenodd" d="M40.495 18.392c-2.14.643-4.189 1.498-6.122 2.541l12.695 21.989-6.573-24.53zm1.932-.517c2.12-.499 4.318-.793 6.573-.86v25.389l-6.573-24.529zm17.078 63.733c2.14-.643 4.189-1.498 6.122-2.541L52.932 57.078l6.573 24.53zm-1.932.517c-2.12.499-4.318.793-6.573.86V57.596l6.573 24.529zm-39.181-22.62c.643 2.14 1.498 4.189 2.541 6.122l21.989-12.695-24.53 6.573zm-.517-1.932c-.499-2.12-.793-4.318-.86-6.573h25.389l-24.529 6.573zm63.733-17.078c-.643-2.14-1.498-4.189-2.541-6.122L57.078 47.068l24.53-6.573zm.517 1.932c.499 2.12.793 4.318.86 6.573H57.596l24.529-6.573zm-47.752 36.64c1.933 1.043 3.982 1.898 6.122 2.541l6.573-24.53-12.695 21.989zm-1.731-1.002c-1.886-1.17-3.646-2.524-5.254-4.039l17.948-17.948-12.694 21.987zm32.985-57.132c-1.933-1.043-3.982-1.898-6.122-2.541l-6.573 24.53 12.695-21.989zm1.731 1.002c1.886 1.17 3.646 2.524 5.254 4.039L54.664 43.922l12.694-21.987zM20.933 34.373c-1.043 1.933-1.898 3.982-2.541 6.122l24.53 6.573-21.989-12.695zm1.002-1.731c1.17-1.886 2.524-3.646 4.039-5.254l17.948 17.948-21.987-12.694zm57.132 32.985c1.043-1.933 1.898-3.982 2.541-6.122l-24.53-6.573 21.989 12.695zm-1.002 1.731c-1.17 1.886-2.524 3.646-4.039 5.254L56.078 54.664l21.987 12.694zM42.427 82.125c2.12.499 4.318.793 6.573.86V57.596l-6.573 24.529zm15.146-64.25c-2.12-.499-4.318-.793-6.573-.86v25.389l6.573-24.529zM17.875 42.427c-.499 2.12-.793 4.318-.86 6.573h25.389l-24.529-6.573zm64.25 15.146c.499-2.12.793-4.318.86-6.573H57.596l24.529 6.573zm-60.19 9.785c1.17 1.886 2.524 3.646 4.039 5.254l17.948-17.948-21.987 12.694zm56.13-34.716c-1.17-1.886-2.524-3.646-4.039-5.254L56.078 45.336l21.987-12.694zM32.642 21.935c-1.886 1.17-3.646 2.524-5.254 4.039l17.948 17.948-12.694-21.987zm34.716 56.13c1.886-1.17 3.646-2.524 5.254-4.039L54.664 56.078l12.694 21.987zm19.068-35.146c.815 2.862 3.452 4.959 6.574 4.959v4.244c-3.234 0-5.947 2.25-6.639 5.276-.545 3.055 1.073 6.186 4.05 7.45l-1.659 3.907c-2.874-1.22-6.12-.32-7.988 1.996-1.447 2.599-1.065 5.946 1.142 8.154l-3.001 3.001c-2.287-2.287-5.796-2.614-8.425-.964-2.546 1.775-3.616 5.133-2.404 8.132l-3.936 1.59c-1.169-2.895-4.101-4.554-7.059-4.238-2.862.815-4.959 3.452-4.959 6.574h-4.244c0-3.234-2.25-5.947-5.276-6.639-3.055-.545-6.186 1.073-7.45 4.05l-3.907-1.659c1.22-2.874.32-6.12-1.996-7.988-2.599-1.447-5.946-1.065-8.154 1.142l-3.001-3.001c2.287-2.287 2.614-5.796.964-8.425-1.775-2.546-5.133-3.616-8.132-2.404l-1.59-3.936c2.895-1.169 4.554-4.101 4.238-7.059-.815-2.862-3.452-4.959-6.574-4.959v-4.244c3.234 0 5.947-2.25 6.639-5.276.545-3.055-1.073-6.186-4.05-7.45l1.659-3.907c2.874 1.22 6.12.32 7.988-1.996 1.447-2.599 1.065-5.946-1.142-8.154l3.001-3.001c2.287 2.287 5.796 2.614 8.425.964 2.546-1.775 3.616-5.133 2.404-8.132l3.936-1.59c1.169 2.895 4.101 4.554 7.059 4.238 2.862-.815 4.959-3.452 4.959-6.574h4.244c0 3.234 2.25 5.947 5.276 6.639 3.055.545 6.186-1.073 7.45-4.05l3.907 1.659c-1.22 2.874-.32 6.12 1.996 7.988 2.599 1.447 5.946 1.065 8.154-1.142l3.001 3.001c-2.287 2.287-2.614 5.796-.964 8.425 1.775 2.546 5.133 3.616 8.132 2.404l1.59 3.936c-2.895 1.169-4.554 4.101-4.238 7.059zM45 50c0-2.76 2.24-5 5-5s5 2.24 5 5-2.24 5-5 5-5-2.24-5-5z"/></svg>