<svg xmlns="http://www.w3.org/2000/svg" style="isolation:isolate" viewBox="11 11 78 78"><defs/><path fill="#EBEBEB" fill-rule="evenodd" d="M39.835 45.814C39.294 47.102 39 48.517 39 50c0 1.963.515 3.806 1.424 5.399.143.493.295.983.455 1.471.433 1.332.975 2.622 1.602 3.879.542 1.062 1.148 2.091 1.841 3.066.617.878 1.31 1.701 2.068 2.471.801.812 1.688 1.549 2.641 2.188.942.64 1.949 1.192 2.999 1.636 1.115.466 2.262.824 3.453 1.073 1.321.271 2.674.434 4.028.488 1.385.043 2.782-.044 4.157-.26 1.234-.206 2.446-.542 3.616-1.019.82-.336 1.612-.734 2.366-1.188C64.669 74.327 57.702 77.5 50 77.5h-.062l-.138-.032c-1.581-.369-3.14-.824-4.677-1.344-1.223-.422-2.425-.91-3.583-1.474-1.083-.52-2.133-1.116-3.14-1.777-.812-.552-1.591-1.159-2.306-1.831-.779-.726-1.472-1.538-2.089-2.405-.552-.813-1.029-1.68-1.397-2.59-.379-.942-.649-1.918-.823-2.925-.184-1.16-.259-2.341-.216-3.522.043-1.17.184-2.329.422-3.478.206-.975.498-1.94.888-2.85.357-.856.801-1.679 1.321-2.449.53-.78 1.125-1.495 1.797-2.167.628-.617 1.31-1.191 2.046-1.712.578-.407 1.176-.785 1.792-1.13zm4.916-5.472C46.308 39.484 48.098 39 50 39c1.296 0 2.54.225 3.695.637-.209-.35-.434-.691-.669-1.025-.52-.737-1.094-1.419-1.711-2.048-.671-.672-1.385-1.268-2.165-1.799-.768-.52-1.591-.964-2.446-1.321-.91-.391-1.873-.683-2.848-.889-1.147-.238-2.306-.379-3.475-.423-1.18-.043-2.36.033-3.518.217-1.007.174-1.981.444-2.923.824-.91.368-1.776.845-2.588 1.397-.866.618-1.678 1.312-2.403 2.092-.671.715-1.277 1.495-1.83 2.308-.66 1.007-1.255 2.058-1.775 3.142-.563 1.159-1.05 2.362-1.472 3.586-.52 1.539-.975 3.099-1.343 4.681l-.025.108c.131 7.503 3.273 14.278 8.282 19.152-.454-.754-.852-1.547-1.187-2.367-.477-1.171-.812-2.384-1.018-3.619-.217-1.377-.303-2.774-.26-4.161.054-1.355.217-2.709.487-4.031.249-1.192.607-2.34 1.072-3.456.444-1.051.996-2.059 1.635-3.002.638-.953 1.375-1.842 2.187-2.644.768-.758 1.591-1.452 2.468-2.069.974-.694 2.003-1.3 3.064-1.842 1.255-.629 2.544-1.17 3.875-1.604.544-.179 1.091-.348 1.642-.502zm14.481 3.69C60.352 45.748 61 47.799 61 50c0 1.383-.256 2.707-.724 3.925.466-.267.917-.559 1.356-.869.737-.521 1.419-1.095 2.047-1.712.671-.672 1.266-1.387 1.797-2.167.519-.77.963-1.593 1.32-2.449.39-.91.682-1.875.888-2.85.238-1.149.379-2.308.422-3.478.044-1.181-.032-2.362-.216-3.522-.173-1.007-.444-1.983-.823-2.925-.368-.91-.844-1.777-1.396-2.59-.618-.867-1.31-1.679-2.09-2.405-.714-.672-1.494-1.279-2.306-1.831-1.007-.661-2.057-1.257-3.139-1.777-1.159-.564-2.36-1.052-3.584-1.474-1.537-.52-3.096-.975-4.676-1.344l-.134-.031c-8.306.077-15.738 3.844-20.718 9.752.157-.119.316-.235.477-.348.996-.694 2.079-1.279 3.215-1.745 1.17-.476 2.382-.812 3.616-1.018 1.375-.217 2.772-.303 4.157-.26 1.354.054 2.707.217 4.028.487 1.191.25 2.338.607 3.453 1.073 1.05.444 2.057.997 2.999 1.636.953.64 1.84 1.376 2.641 2.189.758.769 1.451 1.593 2.068 2.471.693.975 1.299 2.004 1.841 3.066.627 1.257 1.169 2.546 1.602 3.879.038.116.076.232.111.349zm-3.62 15.428C53.969 60.438 52.05 61 50 61c-1.462 0-2.858-.286-4.131-.811.338.602.707 1.186 1.105 1.752.52.736 1.094 1.419 1.711 2.047.671.672 1.385 1.268 2.165 1.799.768.52 1.591.964 2.446 1.322.91.39 1.873.683 2.848.889 1.147.238 2.306.379 3.475.422 1.18.043 2.36-.032 3.518-.217 1.007-.173 1.981-.444 2.923-.823.91-.368 1.776-.845 2.588-1.398.866-.617 1.678-1.311 2.403-2.091.671-.715 1.277-1.495 1.83-2.308.66-1.008 1.255-2.059 1.775-3.142.563-1.16 1.05-2.362 1.472-3.587.52-1.538.975-3.099 1.343-4.681l.029-.125V50c0-8.14-3.544-15.458-9.171-20.496.002.002.003.004.005.006.693.997 1.277 2.081 1.743 3.218.476 1.171.812 2.384 1.017 3.619.217 1.377.303 2.774.26 4.161-.054 1.355-.216 2.709-.487 4.031-.249 1.192-.606 2.34-1.072 3.456-.444 1.051-.996 2.059-1.635 3.002-.638.953-1.374 1.842-2.186 2.644-.769.758-1.592 1.452-2.469 2.069-.974.694-2.002 1.3-3.063 1.842-1.256.629-2.544 1.17-3.876 1.604-.317.104-.635.205-.954.304zM43 50c0-3.863 3.137-7 7-7s7 3.137 7 7-3.137 7-7 7-7-3.137-7-7zm24.108-27.632c1.848 1.148 3.574 2.476 5.151 3.959l4.611-4.611 1.414 1.414-4.611 4.611c1.483 1.577 2.811 3.303 3.959 5.151l5.643-3.258 1 1.732-5.641 3.257c1.021 1.896 1.859 3.904 2.491 6.002l6.287-1.685.518 1.932-6.288 1.685c.488 2.078.776 4.233.843 6.443H89v2h-6.515c-.067 2.21-.355 4.365-.843 6.443l6.288 1.685-.518 1.932-6.287-1.685c-.632 2.098-1.47 4.106-2.491 6.002l5.641 3.257-1 1.732-5.643-3.258a32.74147 32.74147 0 01-3.959 5.151l4.611 4.611-1.414 1.414-4.611-4.611a32.74147 32.74147 0 01-5.151 3.959l3.258 5.643-1.732 1-3.257-5.641c-1.896 1.021-3.904 1.859-6.002 2.491l1.685 6.287-1.932.518-1.685-6.288c-2.078.488-4.233.776-6.443.843V89h-2v-6.515c-2.21-.067-4.365-.355-6.443-.843l-1.685 6.288-1.932-.518 1.685-6.287c-2.098-.632-4.106-1.47-6.002-2.491l-3.257 5.641-1.732-1 3.258-5.643a32.74147 32.74147 0 01-5.151-3.959l-4.611 4.611-1.414-1.414 4.611-4.611a32.74147 32.74147 0 01-3.959-5.151l-5.643 3.258-1-1.732 5.641-3.257c-1.021-1.896-1.859-3.904-2.491-6.002l-6.287 1.685-.518-1.932 6.288-1.685c-.488-2.078-.776-4.233-.843-6.443H11v-2h6.515c.067-2.21.355-4.365.843-6.443l-6.288-1.685.518-1.932 6.287 1.685c.632-2.098 1.47-4.106 2.491-6.002l-5.641-3.257 1-1.732 5.643 3.258c1.148-1.848 2.476-3.574 3.959-5.151l-4.611-4.611 1.414-1.414 4.611 4.611c1.577-1.483 3.303-2.811 5.151-3.959l-3.258-5.643 1.732-1 3.257 5.641c1.896-1.021 3.904-1.859 6.002-2.491l-1.685-6.287 1.932-.518 1.685 6.288c2.078-.488 4.233-.776 6.443-.843V11h2v6.515c2.21.067 4.365.355 6.443.843l1.685-6.288 1.932.518-1.685 6.287c2.098.632 4.106 1.47 6.002 2.491l3.257-5.641 1.732 1-3.258 5.643z"/></svg>