<svg xmlns="http://www.w3.org/2000/svg" style="isolation:isolate" viewBox="7 7 86 86"><defs/><path fill="#EBEBEB" fill-rule="evenodd" d="M29 32.5C29 25.601 34.601 20 41.5 20S54 25.601 54 32.5 48.399 45 41.5 45 29 39.399 29 32.5zm0 35C29 60.601 34.601 55 41.5 55S54 60.601 54 67.5 48.399 80 41.5 80 29 74.399 29 67.5zm57.426-24.581c.815 2.862 3.452 4.959 6.574 4.959v4.244c-3.234 0-5.947 2.25-6.639 5.276-.545 3.055 1.073 6.186 4.05 7.45l-1.659 3.907c-2.874-1.22-6.12-.32-7.988 1.996-1.447 2.599-1.065 5.946 1.142 8.154l-3.001 3.001c-2.287-2.287-5.796-2.614-8.425-.964-2.546 1.775-3.616 5.133-2.404 8.132l-3.936 1.59c-1.169-2.895-4.101-4.554-7.059-4.238-2.862.815-4.959 3.452-4.959 6.574h-4.244c0-3.234-2.25-5.947-5.276-6.639-3.055-.545-6.186 1.073-7.45 4.05l-3.907-1.659c1.22-2.874.32-6.12-1.996-7.988-2.599-1.447-5.946-1.065-8.154 1.142l-3.001-3.001c2.287-2.287 2.614-5.796.964-8.425-1.775-2.546-5.133-3.616-8.132-2.404l-1.59-3.936c2.895-1.169 4.554-4.101 4.238-7.059-.815-2.862-3.452-4.959-6.574-4.959v-4.244c3.234 0 5.947-2.25 6.639-5.276.545-3.055-1.073-6.186-4.05-7.45l1.659-3.907c2.874 1.22 6.12.32 7.988-1.996 1.447-2.599 1.065-5.946-1.142-8.154l3.001-3.001c2.287 2.287 5.796 2.614 8.425.964 2.546-1.775 3.616-5.133 2.404-8.132l3.936-1.59c1.169 2.895 4.101 4.554 7.059 4.238 2.862-.815 4.959-3.452 4.959-6.574h4.244c0 3.234 2.25 5.947 5.276 6.639 3.055.545 6.186-1.073 7.45-4.05l3.907 1.659c-1.22 2.874-.32 6.12 1.996 7.988 2.599 1.447 5.946 1.065 8.154-1.142l3.001 3.001c-2.287 2.287-2.614 5.796-.964 8.425 1.775 2.546 5.133 3.616 8.132 2.404l1.59 3.936c-2.895 1.169-4.554 4.101-4.238 7.059zM68.5 37.5C75.399 37.5 81 43.101 81 50s-5.601 12.5-12.5 12.5S56 56.899 56 50s5.601-12.5 12.5-12.5z"/></svg>