<svg xmlns="http://www.w3.org/2000/svg" style="isolation:isolate" viewBox="11 11 78 78"><defs/><path fill="#EBEBEB" fill-rule="evenodd" d="M37.932 58.906c2.262 3.059 5.66 5.229 9.568 5.886v-5.108c-2.066-.532-3.874-1.709-5.197-3.302l-4.371 2.524zm-2.263-4.467C35.234 53.036 35 51.545 35 50c0-4.745 2.208-8.979 5.652-11.728l2.543 4.403C41.23 44.502 40 47.108 40 50c0 .629.058 1.244.169 1.84l-4.5 2.599zM52.5 64.792c4.693-.788 8.649-3.759 10.788-7.831l-5.015-1.344c-1.349 1.981-3.389 3.453-5.773 4.067v5.108zM64.84 52.2c.105-.718.16-1.453.16-2.2 0-4.786-2.246-9.051-5.74-11.798l-2.538 4.396C58.735 44.428 60 47.068 60 50c0 .301-.013.599-.039.893L64.84 52.2zM45.025 35.846C46.582 35.298 48.257 35 50 35c1.704 0 3.341.285 4.868.809l-2.573 4.456C51.558 40.092 50.79 40 50 40c-.83 0-1.636.101-2.408.292l-2.567-4.446zM34.579 72.767C38.978 75.754 44.287 77.5 50 77.5c5.713 0 11.022-1.746 15.421-4.733l-4.855-5.787C57.499 68.894 53.878 70 50 70c-3.878 0-7.499-1.106-10.566-3.02l-4.855 5.787zm-3.866-3.172C25.644 64.606 22.5 57.667 22.5 50c0-2.816.424-5.534 1.212-8.093l7.061 2.571C30.27 46.232 30 48.085 30 50c0 5.362 2.114 10.233 5.554 13.826l-4.841 5.769zm38.574 0C74.356 64.606 77.5 57.667 77.5 50c0-2.816-.424-5.534-1.212-8.093l-7.061 2.571C69.73 46.232 70 48.085 70 50c0 5.362-2.114 10.233-5.554 13.826l4.841 5.769zM25.617 37.28c4.228-8.083 12.359-13.808 21.883-14.668v7.543c-6.287.786-11.672 4.494-14.749 9.722l-7.134-2.597zm48.766 0C70.155 29.197 62.024 23.472 52.5 22.612v7.543c6.287.786 11.672 4.494 14.749 9.722l7.134-2.597zm-7.275-14.912c1.848 1.148 3.574 2.476 5.151 3.959l4.611-4.611 1.414 1.414-4.611 4.611c1.483 1.577 2.811 3.303 3.959 5.151l5.643-3.258 1 1.732-5.641 3.257c1.021 1.896 1.859 3.904 2.491 6.002l6.287-1.685.518 1.932-6.288 1.685c.488 2.078.776 4.233.843 6.443H89v2h-6.515c-.067 2.21-.355 4.365-.843 6.443l6.288 1.685-.518 1.932-6.287-1.685c-.632 2.098-1.47 4.106-2.491 6.002l5.641 3.257-1 1.732-5.643-3.258a32.74147 32.74147 0 01-3.959 5.151l4.611 4.611-1.414 1.414-4.611-4.611a32.74147 32.74147 0 01-5.151 3.959l3.258 5.643-1.732 1-3.257-5.641c-1.896 1.021-3.904 1.859-6.002 2.491l1.685 6.287-1.932.518-1.685-6.288c-2.078.488-4.233.776-6.443.843V89h-2v-6.515c-2.21-.067-4.365-.355-6.443-.843l-1.685 6.288-1.932-.518 1.685-6.287c-2.098-.632-4.106-1.47-6.002-2.491l-3.257 5.641-1.732-1 3.258-5.643a32.74147 32.74147 0 01-5.151-3.959l-4.611 4.611-1.414-1.414 4.611-4.611a32.74147 32.74147 0 01-3.959-5.151l-5.643 3.258-1-1.732 5.641-3.257c-1.021-1.896-1.859-3.904-2.491-6.002l-6.287 1.685-.518-1.932 6.288-1.685c-.488-2.078-.776-4.233-.843-6.443H11v-2h6.515c.067-2.21.355-4.365.843-6.443l-6.288-1.685.518-1.932 6.287 1.685c.632-2.098 1.47-4.106 2.491-6.002l-5.641-3.257 1-1.732 5.643 3.258c1.148-1.848 2.476-3.574 3.959-5.151l-4.611-4.611 1.414-1.414 4.611 4.611c1.577-1.483 3.303-2.811 5.151-3.959l-3.258-5.643 1.732-1 3.257 5.641c1.896-1.021 3.904-1.859 6.002-2.491l-1.685-6.287 1.932-.518 1.685 6.288c2.078-.488 4.233-.776 6.443-.843V11h2v6.515c2.21.067 4.365.355 6.443.843l1.685-6.288 1.932.518-1.685 6.287c2.098.632 4.106 1.47 6.002 2.491l3.257-5.641 1.732 1-3.258 5.643zM45 50c0-2.76 2.24-5 5-5s5 2.24 5 5-2.24 5-5 5-5-2.24-5-5z"/></svg>