<svg xmlns="http://www.w3.org/2000/svg" style="isolation:isolate" viewBox="11 11 78 78"><defs/><path fill="#EBEBEB" fill-rule="evenodd" d="M54.507 41.076C53.154 40.387 51.622 40 50 40c-1.382 0-2.7.281-3.894.796.347-.62.724-1.224 1.134-1.806.48-.68 1.01-1.31 1.58-1.89.62-.62 1.28-1.17 2-1.66.71-.48 1.47-.89 2.26-1.22.84-.36 1.73-.63 2.63-.82 1.06-.22 2.13-.35 3.21-.39 1.09-.04 2.18.03 3.25.2.93.16 1.83.41 2.7.76.84.34 1.64.78 2.39 1.29.8.57 1.55 1.21 2.22 1.93.62.66 1.18 1.38 1.69 2.13.61.93 1.16 1.9 1.64 2.9.52 1.07.97 2.18 1.36 3.31.263.779.509 1.564.724 2.358.076.693.106 1.399.106 2.112 0 6.811-2.729 12.989-7.166 17.487.285-.492.529-1.008.746-1.537.44-1.08.75-2.2.94-3.34.2-1.27.28-2.56.24-3.84-.05-1.25-.2-2.5-.45-3.72-.23-1.1-.56-2.16-.99-3.19-.41-.97-.92-1.9-1.51-2.77-.59-.88-1.27-1.7-2.02-2.44-.71-.7-1.47-1.34-2.28-1.91-.9-.64-1.85-1.2-2.83-1.7-1.16-.58-2.35-1.08-3.58-1.48-.527-.173-1.058-.337-1.593-.484zm4.746 5.148C59.737 47.387 60 48.663 60 50c0 1.694-.422 3.291-1.174 4.686-.119.386-.24.771-.366 1.154-.4 1.23-.9 2.42-1.48 3.58-.5.98-1.06 1.93-1.7 2.83-.57.81-1.21 1.57-1.91 2.28-.74.75-1.56 1.43-2.44 2.02-.87.59-1.8 1.1-2.77 1.51-1.03.43-2.09.76-3.19.99-1.22.25-2.47.4-3.72.45-1.28.04-2.57-.04-3.84-.24-1.14-.19-2.26-.5-3.34-.94-.744-.305-1.464-.665-2.148-1.076C36.468 72.025 42.889 75 50 75c.5 0 .996-.015 1.489-.042.926-.248 1.843-.531 2.751-.838 1.13-.39 2.24-.84 3.31-1.36 1-.48 1.97-1.03 2.9-1.64.75-.51 1.47-1.07 2.13-1.69.72-.67 1.36-1.42 1.93-2.22.51-.75.95-1.55 1.29-2.39.35-.87.6-1.77.76-2.7.17-1.07.24-2.16.2-3.25-.04-1.08-.17-2.15-.39-3.21-.19-.9-.46-1.79-.82-2.63-.33-.79-.74-1.55-1.22-2.26-.49-.72-1.04-1.38-1.66-2-.58-.57-1.21-1.1-1.89-1.58-.493-.348-1.002-.671-1.527-.966zm-18.199-.689C40.379 46.878 40 48.395 40 50c0 1.417.296 2.766.835 3.985-.634-.352-1.251-.736-1.845-1.155-.68-.48-1.31-1.01-1.89-1.58-.62-.62-1.17-1.28-1.66-2-.48-.71-.89-1.47-1.22-2.26-.36-.84-.63-1.73-.82-2.63-.22-1.06-.35-2.13-.39-3.21-.04-1.09.03-2.18.2-3.25.16-.93.41-1.83.76-2.7.34-.84.78-1.64 1.29-2.39.57-.8 1.21-1.55 1.93-2.22.66-.62 1.38-1.18 2.13-1.69.93-.61 1.9-1.16 2.9-1.64 1.07-.52 2.18-.97 3.31-1.36.902-.305 1.813-.586 2.733-.833C48.835 25.02 49.415 25 50 25c6.526 0 12.471 2.506 16.926 6.605-.303-.148-.612-.287-.926-.415-1.08-.44-2.2-.75-3.34-.94-1.27-.2-2.56-.28-3.84-.24-1.25.05-2.5.2-3.72.45-1.1.23-2.16.56-3.19.99-.97.41-1.9.92-2.77 1.51-.88.59-1.7 1.27-2.44 2.02-.7.71-1.34 1.47-1.91 2.28-.64.9-1.2 1.85-1.7 2.83-.58 1.16-1.08 2.35-1.48 3.58-.203.616-.392 1.237-.556 1.865zm4.829 13.574c1.254.574 2.649.891 4.117.891 1.267 0 2.48-.236 3.594-.669-.235.408-.492.803-.764 1.189-.48.68-1.01 1.31-1.58 1.89-.62.62-1.28 1.17-2 1.66-.71.48-1.47.89-2.26 1.22-.84.36-1.73.63-2.63.82-1.06.22-2.13.35-3.21.39-1.09.04-2.18-.03-3.25-.2-.93-.16-1.83-.41-2.7-.76-.84-.34-1.64-.78-2.39-1.29-.8-.57-1.55-1.21-2.22-1.93-.62-.66-1.18-1.38-1.69-2.13-.61-.93-1.16-1.9-1.64-2.9-.52-1.07-.97-2.18-1.36-3.31-.324-.959-.621-1.926-.882-2.904C25.008 50.718 25 50.36 25 50c0-6.568 2.538-12.547 6.687-17.009-.183.35-.347.712-.497 1.079-.44 1.08-.75 2.2-.94 3.34-.2 1.27-.28 2.56-.24 3.84.05 1.25.2 2.5.45 3.72.23 1.1.56 2.16.99 3.19.41.97.92 1.9 1.51 2.77.59.88 1.27 1.7 2.02 2.44.71.7 1.47 1.34 2.28 1.91.9.64 1.85 1.2 2.83 1.7 1.16.58 2.35 1.08 3.58 1.48.731.24 1.468.461 2.213.649zM56.5 50c0-3.587-2.913-6.5-6.5-6.5s-6.5 2.913-6.5 6.5 2.913 6.5 6.5 6.5 6.5-2.913 6.5-6.5zM33.534 25.4c3.193-2.125 6.816-3.655 10.71-4.43l2.681-4.644L50 11l3.075 5.326 2.65 4.589c3.971.751 7.666 2.286 10.919 4.437l4.993-1.337 5.94-1.592-1.592 5.94-1.291 4.82c2.352 3.35 4.037 7.203 4.86 11.363l4.12 2.379L89 50l-5.326 3.075-3.96 2.286c-.735 4.406-2.433 8.488-4.868 12.023l1.139 4.253 1.592 5.94-5.94-1.592-4.17-1.117c-3.581 2.544-7.744 4.321-12.248 5.093l-2.144 3.713L50 89l-3.075-5.326-2.172-3.762c-4.426-.801-8.516-2.575-12.039-5.092l-4.351 1.165-5.94 1.592 1.592-5.94 1.209-4.515c-2.31-3.431-3.931-7.365-4.662-11.601l-4.236-2.446L11 50l5.326-3.075 4.401-2.541c.813-3.992 2.42-7.697 4.648-10.942l-1.36-5.079-1.592-5.94 5.94 1.592 5.171 1.385z"/></svg>