<svg xmlns="http://www.w3.org/2000/svg" style="isolation:isolate" viewBox="10 10 80 81"><defs/><path fill="#EBEBEB" fill-rule="evenodd" d="M25.175 44.738c1.977-9.832 9.731-17.586 19.563-19.563v19.563H25.175zm.135 10.524c2.176 9.532 9.807 16.998 19.428 18.933V55.262H25.31zm48.885-10.524c-1.935-9.621-9.401-17.252-18.933-19.428v19.428h18.933zm-.135 10.524c-2.128 9.323-9.475 16.67-18.798 18.798V55.262H74.06zm12.928-11.334c.144.788.248 1.591.326 2.4C87.801 47.319 88.822 48 90 48v4c-1.178 0-2.199.681-2.686 1.672-.078.809-.182 1.61-.326 2.399.199 1.101 1.015 2.041 2.167 2.35-.286 1.066-.75 2.797-1.036 3.864-1.121-.301-2.266.077-2.997.882-.293.775-.611 1.539-.967 2.281-.087 1.112.457 2.226 1.486 2.82-.552.956-1.448 2.508-2 3.464-1.049-.606-2.314-.505-3.237.162-.439.628-.908 1.235-1.394 1.826-.395 1.06-.163 2.298.688 3.15-.78.781-2.047 2.048-2.828 2.828-.853-.852-2.093-1.084-3.154-.687-.587.483-1.19.948-1.815 1.383-.673.924-.777 2.194-.169 3.247-.956.552-2.508 1.448-3.464 2-.593-1.027-1.704-1.571-2.813-1.487-.718.326-1.448.629-2.196.896-.869.721-1.286 1.908-.974 3.069-1.067.286-2.798.75-3.864 1.036-.314-1.17-1.278-1.993-2.402-2.175-.751.134-1.514.233-2.284.308C52.709 87.759 52 88.798 52 90h-4c0-1.202-.709-2.241-1.735-2.712-.768-.075-1.53-.174-2.28-.308-1.125.18-2.092 1.004-2.406 2.175-1.066-.286-2.797-.75-3.864-1.036.304-1.134-.085-2.292-.911-3.02-.756-.286-1.502-.595-2.227-.941-1.12-.099-2.246.446-2.845 1.483-.956-.552-2.508-1.448-3.464-2 .607-1.052.504-2.321-.167-3.244-.626-.437-1.229-.902-1.817-1.386-1.061-.397-2.301-.165-3.154.687-.781-.78-2.048-2.047-2.828-2.828.851-.852 1.083-2.09.688-3.15-.486-.59-.954-1.196-1.392-1.824-.923-.669-2.189-.77-3.239-.164-.552-.956-1.448-2.508-2-3.464 1.016-.587 1.56-1.68 1.491-2.778-.336-.738-.648-1.49-.922-2.26-.724-.849-1.898-1.253-3.047-.945-.286-1.067-.75-2.798-1.036-3.864 1.152-.309 1.967-1.248 2.167-2.349-.144-.788-.248-1.591-.326-2.4C12.199 52.681 11.178 52 10 52v-4c1.178 0 2.199-.681 2.686-1.672.078-.809.182-1.61.326-2.399-.199-1.101-1.015-2.041-2.167-2.35.286-1.066.75-2.797 1.036-3.864 1.121.301 2.266-.077 2.997-.882.293-.775.611-1.539.967-2.281.087-1.112-.457-2.226-1.486-2.82.552-.956 1.448-2.508 2-3.464 1.049.606 2.314.505 3.237-.162.439-.628.908-1.235 1.394-1.826.395-1.06.163-2.298-.688-3.15.78-.781 2.047-2.048 2.828-2.828.853.852 2.093 1.084 3.154.687.587-.483 1.19-.948 1.815-1.383.673-.924.777-2.194.169-3.247.956-.552 2.508-1.448 3.464-2 .593 1.027 1.704 1.571 2.813 1.487.718-.326 1.448-.629 2.196-.896.869-.721 1.286-1.908.974-3.069 1.067-.286 2.798-.75 3.864-1.036.314 1.17 1.278 1.993 2.402 2.175.751-.134 1.514-.233 2.284-.308C47.291 12.241 48 11.202 48 10h4c0 1.202.709 2.241 1.735 2.712.768.075 1.53.174 2.28.308 1.125-.18 2.092-1.004 2.406-2.175 1.066.286 2.797.75 3.864 1.036-.304 1.134.085 2.292.911 3.02.756.286 1.502.595 2.227.941 1.12.099 2.246-.446 2.845-1.483.956.552 2.508 1.448 3.464 2-.607 1.052-.504 2.321.167 3.244.626.437 1.229.902 1.817 1.386 1.061.397 2.301.165 3.154-.687.781.78 2.048 2.047 2.828 2.828-.851.852-1.083 2.09-.688 3.15.486.59.954 1.196 1.392 1.824.923.669 2.189.77 3.239.164.552.956 1.448 2.508 2 3.464-1.016.587-1.56 1.68-1.491 2.778.336.738.648 1.49.922 2.26.724.849 1.898 1.253 3.047.945.286 1.067.75 2.798 1.036 3.864-1.152.309-1.967 1.248-2.167 2.349zM47.5 50c0-1.38 1.12-2.5 2.5-2.5s2.5 1.12 2.5 2.5-1.12 2.5-2.5 2.5-2.5-1.12-2.5-2.5z"/></svg>