<svg xmlns="http://www.w3.org/2000/svg" style="isolation:isolate" viewBox="11 11 78 78"><defs/><path fill="#EBEBEB" fill-rule="evenodd" d="M26.617 59.331c2.645 6.313 7.808 11.314 14.23 13.744L44.354 67l3.423-5.928c-4.45-.89-7.959-4.399-8.849-8.849L33 55.646l-6.383 3.685zm-.207-18.782c2.538-6.454 7.685-11.601 14.139-14.139L44.354 33l3.423 5.928c-4.45.89-7.959 4.399-8.849 8.849L33 44.354l-6.59-3.805zm46.464 18.488c-2.538 6.281-7.556 11.299-13.837 13.837L55.646 67l-3.423-5.928c4.45-.89 7.959-4.399 8.849-8.849L67 55.646l5.874 3.391zm.201-18.19c-2.43-6.422-7.431-11.585-13.744-14.23L55.646 33l-3.423 5.928c4.45.89 7.959 4.399 8.849 8.849L67 44.354l6.075-3.507zM33.534 25.4c3.193-2.125 6.816-3.655 10.71-4.43l2.681-4.644L50 11l3.075 5.326 2.65 4.589c3.971.751 7.666 2.286 10.919 4.437l4.993-1.337 5.94-1.592-1.592 5.94-1.291 4.82c2.352 3.35 4.037 7.203 4.86 11.363l4.12 2.379L89 50l-5.326 3.075-3.96 2.286c-.735 4.406-2.433 8.488-4.868 12.023l1.139 4.253 1.592 5.94-5.94-1.592-4.17-1.117c-3.581 2.544-7.744 4.321-12.248 5.093l-2.144 3.713L50 89l-3.075-5.326-2.172-3.762c-4.426-.801-8.516-2.575-12.039-5.092l-4.351 1.165-5.94 1.592 1.592-5.94 1.209-4.515c-2.31-3.431-3.931-7.365-4.662-11.601l-4.236-2.446L11 50l5.326-3.075 4.401-2.541c.813-3.992 2.42-7.697 4.648-10.942l-1.36-5.079-1.592-5.94 5.94 1.592 5.171 1.385zM55 50c0-2.76-2.24-5-5-5s-5 2.24-5 5 2.24 5 5 5 5-2.24 5-5z"/></svg>