<svg xmlns="http://www.w3.org/2000/svg" style="isolation:isolate" viewBox="4 4 92 92"><defs/><path fill="#EBEBEB" fill-rule="evenodd" d="M41.5 58.5v-17h17v17h-17zm0 5v12.659c2.677.87 5.534 1.341 8.5 1.341s5.823-.471 8.5-1.341V63.5h-17zm34.659-5c.87-2.677 1.341-5.534 1.341-8.5s-.471-5.823-1.341-8.5H63.5v17h12.659zm-2.2 5c-2.467 4.366-6.093 7.992-10.459 10.459V63.5h10.459zm-50.118-5c-.87-2.677-1.341-5.534-1.341-8.5s.471-5.823 1.341-8.5H36.5v17H23.841zm2.2 5c2.467 4.366 6.093 7.992 10.459 10.459V63.5H26.041zm15.459-27V23.841c2.677-.87 5.534-1.341 8.5-1.341s5.823.471 8.5 1.341V36.5h-17zm32.459 0c-2.467-4.366-6.093-7.992-10.459-10.459V36.5h10.459zm-47.918 0c2.467-4.366 6.093-7.992 10.459-10.459V36.5H26.041zM53.73 14.191l.145-.144V7.203L50.672 4h-1.344l-3.203 3.203v6.844l.145.144c-2.135.221-4.215.628-6.223 1.205l.077-.183-2.563-6.345-4.17-1.77-1.246.503-1.77 4.17 2.564 6.345.189.08c-2.065 1.099-4.01 2.392-5.811 3.856v-.215l-4.839-4.839h-4.53l-.95.95v4.53l4.839 4.839h.215c-1.333 1.64-2.524 3.399-3.556 5.259l-.077-.191-6.299-2.674-4.201 1.697-.525 1.237 1.697 4.2 6.3 2.674.184-.075c-.673 2.194-1.141 4.477-1.384 6.826l-.144-.145H7.203L4 49.328v1.344l3.203 3.203h6.844l.144-.145c.221 2.135.628 4.215 1.205 6.223l-.183-.077-6.345 2.563-1.77 4.17.503 1.246 4.17 1.77 6.345-2.564.08-.189c1.099 2.065 2.392 4.01 3.856 5.811h-.215l-4.839 4.839v4.53l.95.95h4.53l4.839-4.839v-.215c1.64 1.333 3.399 2.524 5.259 3.556l-.191.077-2.674 6.299 1.697 4.201 1.237.525 4.2-1.697 2.674-6.3-.075-.184c2.194.673 4.477 1.141 6.826 1.384l-.145.144v6.844L49.328 96h1.344l3.203-3.203v-6.844l-.145-.144c2.135-.221 4.215-.628 6.223-1.205l-.077.183 2.563 6.345 4.17 1.77 1.246-.503 1.77-4.17-2.564-6.345-.189-.08c2.065-1.099 4.01-2.392 5.811-3.856v.215l4.839 4.839h4.53l.95-.95v-4.53l-4.839-4.839h-.215c1.333-1.64 2.524-3.399 3.556-5.259l.077.191 6.299 2.674 4.201-1.697.525-1.237-1.697-4.2-6.3-2.674-.184.075c.673-2.194 1.141-4.477 1.384-6.826l.144.145h6.844L96 50.672v-1.344l-3.203-3.203h-6.844l-.144.145c-.221-2.135-.628-4.215-1.205-6.223l.183.077 6.345-2.563 1.77-4.17-.503-1.246-4.17-1.77-6.345 2.564-.08.189c-1.099-2.065-2.392-4.01-3.856-5.811h.215l4.839-4.839v-4.53l-.95-.95h-4.53l-4.839 4.839v.215c-1.64-1.333-3.399-2.524-5.259-3.556l.191-.077 2.674-6.299-1.697-4.201-1.237-.525-4.2 1.697-2.674 6.3.075.184c-2.194-.673-4.477-1.141-6.826-1.384z"/></svg>