<svg xmlns="http://www.w3.org/2000/svg" style="isolation:isolate" viewBox="4 4 92 92"><defs/><path fill="#EBEBEB" fill-rule="evenodd" d="M86.042 39.618c.604 2.099 1.03 4.274 1.26 6.507h5.495L96 49.328v1.344l-3.203 3.203h-5.495c-.253 2.456-.743 4.842-1.447 7.135l5.054 2.145 1.697 4.2-.525 1.237-4.201 1.697-5.059-2.148a37.4834 37.4834 0 01-3.711 5.489l3.892 3.892v4.53l-.95.95h-4.53L73.63 79.11c-1.879 1.528-3.909 2.878-6.064 4.024l2.059 5.095-1.77 4.17-1.246.503-4.17-1.77-2.057-5.09c-2.099.604-4.274 1.03-6.507 1.26v5.495L50.672 96h-1.344l-3.203-3.203v-5.495c-2.456-.253-4.842-.743-7.135-1.447l-2.145 5.054-4.2 1.697-1.237-.525-1.697-4.201 2.148-5.059a37.4834 37.4834 0 01-5.489-3.711l-3.892 3.892h-4.53l-.95-.95v-4.53l3.892-3.892c-1.528-1.879-2.878-3.909-4.024-6.064l-5.095 2.059-4.17-1.77-.503-1.246 1.77-4.17 5.09-2.057c-.604-2.099-1.03-4.274-1.26-6.507H7.203L4 50.672v-1.344l3.203-3.203h5.495c.253-2.456.743-4.842 1.447-7.135l-5.054-2.145-1.697-4.2.525-1.237 4.201-1.697 5.059 2.148a37.4834 37.4834 0 013.711-5.489l-3.892-3.892v-4.53l.95-.95h4.53l3.892 3.892c1.879-1.528 3.909-2.878 6.064-4.024l-2.059-5.095 1.77-4.17 1.246-.503 4.17 1.77 2.057 5.09c2.099-.604 4.274-1.03 6.507-1.26V7.203L49.328 4h1.344l3.203 3.203v5.495c2.456.253 4.842.743 7.135 1.447l2.145-5.054 4.2-1.697 1.237.525 1.697 4.201-2.148 5.059a37.4834 37.4834 0 015.489 3.711l3.892-3.892h4.53l.95.95v4.53L79.11 26.37c1.528 1.879 2.878 3.909 4.024 6.064l5.095-2.059 4.17 1.77.503 1.246-1.77 4.17-5.09 2.057zM35 50c0-8.279 6.721-15 15-15s15 6.721 15 15-6.721 15-15 15-15-6.721-15-15zm10.804-24.804C45.804 22.88 47.684 21 50 21s4.196 1.88 4.196 4.196-1.88 4.197-4.196 4.197-4.196-1.881-4.196-4.197zm0 50C45.804 72.88 47.684 71 50 71s4.196 1.88 4.196 4.196-1.88 4.197-4.196 4.197-4.196-1.881-4.196-4.197zM75 46c2.316 0 4.196 1.88 4.196 4.196s-1.88 4.197-4.196 4.197-4.196-1.881-4.196-4.197S72.684 46 75 46zm-50 0c2.316 0 4.196 1.88 4.196 4.196s-1.88 4.197-4.196 4.197-4.196-1.881-4.196-4.197S22.684 46 25 46zm39.71-16.449c1.638-1.637 4.297-1.637 5.935 0 1.638 1.638 1.638 4.297 0 5.935s-4.297 1.638-5.935 0c-1.637-1.638-1.637-4.297 0-5.935zM29.355 64.907c1.638-1.638 4.297-1.638 5.935 0 1.637 1.637 1.637 4.297 0 5.934-1.638 1.638-4.297 1.638-5.935 0-1.638-1.637-1.638-4.297 0-5.934zm41.29 0c1.638 1.637 1.638 4.297 0 5.934-1.638 1.638-4.297 1.638-5.935 0-1.637-1.637-1.637-4.297 0-5.934 1.638-1.638 4.297-1.638 5.935 0zM35.29 29.551c1.637 1.638 1.637 4.297 0 5.935-1.638 1.638-4.297 1.638-5.935 0s-1.638-4.297 0-5.935c1.638-1.637 4.297-1.637 5.935 0z"/></svg>