<svg xmlns="http://www.w3.org/2000/svg" width="104" height="104" viewBox="11 11 78 78" style="isolation:isolate"><defs/><path fill="#EBEBEB" fill-rule="evenodd" d="M67.108 22.368c1.848 1.148 3.574 2.476 5.151 3.959l4.611-4.611 1.414 1.414-4.611 4.611c1.483 1.577 2.811 3.303 3.959 5.151l5.643-3.258 1 1.732-5.641 3.257c1.021 1.896 1.859 3.904 2.491 6.002l6.287-1.685.518 1.932-6.288 1.685c.488 2.078.776 4.233.843 6.443H89v2h-6.515c-.067 2.21-.355 4.365-.843 6.443l6.288 1.685-.518 1.932-6.287-1.685c-.632 2.098-1.47 4.106-2.491 6.002l5.641 3.257-1 1.732-5.643-3.258c-1.148 1.848-2.476 3.574-3.959 5.151l4.611 4.611-1.414 1.414-4.611-4.611c-1.577 1.483-3.303 2.811-5.151 3.959l3.258 5.643-1.732 1-3.257-5.641c-1.896 1.021-3.904 1.859-6.002 2.491l1.685 6.287-1.932.518-1.685-6.288c-2.078.488-4.233.776-6.443.843V89h-2v-6.515c-2.21-.067-4.365-.355-6.443-.843l-1.685 6.288-1.932-.518 1.685-6.287c-2.098-.632-4.106-1.47-6.002-2.491l-3.257 5.641-1.732-1 3.258-5.643c-1.848-1.148-3.574-2.476-5.151-3.959l-4.611 4.611-1.414-1.414 4.611-4.611c-1.483-1.577-2.811-3.303-3.959-5.151l-5.643 3.258-1-1.732 5.641-3.257c-1.021-1.896-1.859-3.904-2.491-6.002l-6.287 1.685-.518-1.932 6.288-1.685c-.488-2.078-.776-4.233-.843-6.443H11v-2h6.515c.067-2.21.355-4.365.843-6.443l-6.288-1.685.518-1.932 6.287 1.685c.632-2.098 1.47-4.106 2.491-6.002l-5.641-3.257 1-1.732 5.643 3.258c1.148-1.848 2.476-3.574 3.959-5.151l-4.611-4.611 1.414-1.414 4.611 4.611c1.577-1.483 3.303-2.811 5.151-3.959l-3.258-5.643 1.732-1 3.257 5.641c1.896-1.021 3.904-1.859 6.002-2.491l-1.685-6.287 1.932-.518 1.685 6.288c2.078-.488 4.233-.776 6.443-.843V11h2v6.515c2.21.067 4.365.355 6.443.843l1.685-6.288 1.932.518-1.685 6.287c2.098.632 4.106 1.47 6.002 2.491l3.257-5.641 1.732 1-3.258 5.643zM34.579 72.767C38.978 75.754 44.287 77.5 50 77.5c5.713 0 11.022-1.746 15.421-4.733L54.674 59.959C53.255 60.627 51.671 61 50 61c-1.671 0-3.255-.373-4.674-1.041L34.579 72.767zm-3.866-3.172C25.644 64.606 22.5 57.667 22.5 50c0-2.816.424-5.534 1.212-8.093L39.27 47.57c-.177.782-.27 1.595-.27 2.43 0 2.592.899 4.976 2.401 6.857L30.713 69.595zm38.574 0C74.356 64.606 77.5 57.667 77.5 50c0-2.816-.424-5.534-1.212-8.093L60.73 47.57c.177.782.27 1.595.27 2.43 0 2.592-.899 4.976-2.401 6.857l10.688 12.738zM25.617 37.28c4.228-8.083 12.359-13.808 21.883-14.668v16.674c-2.407.56-4.512 1.912-6.025 3.766L25.617 37.28zm48.766 0C70.155 29.197 62.024 23.472 52.5 22.612v16.674c2.407.56 4.512 1.912 6.025 3.766l15.858-5.772zM42.574 49.908c0-4.048 3.286-7.334 7.334-7.334 4.047 0 7.333 3.286 7.333 7.334 0 4.047-3.286 7.333-7.333 7.333-4.048 0-7.334-3.286-7.334-7.333z"/></svg>