<svg xmlns="http://www.w3.org/2000/svg" width="104" height="104" style="isolation:isolate" viewBox="11 11 78 78"><defs/><path fill="#EBEBEB" fill-rule="evenodd" d="M43.777 46.403C47.508 48.691 50 52.807 50 57.5c0 7.175-5.825 13-13 13-2.994 0-5.754-1.015-7.95-2.721C34.082 73.729 41.604 77.5 50 77.5c8.396 0 15.918-3.771 20.95-9.721C68.754 69.485 65.994 70.5 63 70.5c-7.175 0-13-5.825-13-13 0-4.693 2.492-8.809 6.223-11.097C54.378 47.424 52.256 48 50 48s-4.378-.576-6.223-1.597zm-.554-.306C41.378 45.076 39.256 44.5 37 44.5c-7.175 0-13 5.825-13 13 0 .636.046 1.26.134 1.872C23.079 56.444 22.5 53.289 22.5 50c0-13.528 9.789-24.788 22.669-27.063C40.381 24.85 37 29.533 37 35c0 4.693 2.492 8.809 6.223 11.097zm11.608-23.16C67.711 25.212 77.5 36.472 77.5 50c0 3.289-.579 6.444-1.634 9.372.088-.612.134-1.236.134-1.872 0-7.175-5.825-13-13-13-2.256 0-4.378.576-6.223 1.597C60.508 43.809 63 39.693 63 35c0-5.467-3.381-10.15-8.169-12.063zM27.25 57.5c0-5.381 4.369-9.75 9.75-9.75s9.75 4.369 9.75 9.75-4.369 9.75-9.75 9.75-9.75-4.369-9.75-9.75zm26 0c0-5.381 4.369-9.75 9.75-9.75s9.75 4.369 9.75 9.75-4.369 9.75-9.75 9.75-9.75-4.369-9.75-9.75zm13.858-35.132c1.848 1.148 3.574 2.476 5.151 3.959l4.611-4.611 1.414 1.414-4.611 4.611c1.483 1.577 2.811 3.303 3.959 5.151l5.643-3.258 1 1.732-5.641 3.257c1.021 1.896 1.859 3.904 2.491 6.002l6.287-1.685.518 1.932-6.288 1.685c.488 2.078.776 4.233.843 6.443H89v2h-6.515c-.067 2.21-.355 4.365-.843 6.443l6.288 1.685-.518 1.932-6.287-1.685c-.632 2.098-1.47 4.106-2.491 6.002l5.641 3.257-1 1.732-5.643-3.258c-1.148 1.848-2.476 3.574-3.959 5.151l4.611 4.611-1.414 1.414-4.611-4.611c-1.577 1.483-3.303 2.811-5.151 3.959l3.258 5.643-1.732 1-3.257-5.641c-1.896 1.021-3.904 1.859-6.002 2.491l1.685 6.287-1.932.518-1.685-6.288c-2.078.488-4.233.776-6.443.843V89h-2v-6.515c-2.21-.067-4.365-.355-6.443-.843l-1.685 6.288-1.932-.518 1.685-6.287c-2.098-.632-4.106-1.47-6.002-2.491l-3.257 5.641-1.732-1 3.258-5.643c-1.848-1.148-3.574-2.476-5.151-3.959l-4.611 4.611-1.414-1.414 4.611-4.611c-1.483-1.577-2.811-3.303-3.959-5.151l-5.643 3.258-1-1.732 5.641-3.257c-1.021-1.896-1.859-3.904-2.491-6.002l-6.287 1.685-.518-1.932 6.288-1.685c-.488-2.078-.776-4.233-.843-6.443H11v-2h6.515c.067-2.21.355-4.365.843-6.443l-6.288-1.685.518-1.932 6.287 1.685c.632-2.098 1.47-4.106 2.491-6.002l-5.641-3.257 1-1.732 5.643 3.258c1.148-1.848 2.476-3.574 3.959-5.151l-4.611-4.611 1.414-1.414 4.611 4.611c1.577-1.483 3.303-2.811 5.151-3.959l-3.258-5.643 1.732-1 3.257 5.641c1.896-1.021 3.904-1.859 6.002-2.491l-1.685-6.287 1.932-.518 1.685 6.288c2.078-.488 4.233-.776 6.443-.843V11h2v6.515c2.21.067 4.365.355 6.443.843l1.685-6.288 1.932.518-1.685 6.287c2.098.632 4.106 1.47 6.002 2.491l3.257-5.641 1.732 1-3.258 5.643zM40.25 35c0-5.381 4.369-9.75 9.75-9.75s9.75 4.369 9.75 9.75-4.369 9.75-9.75 9.75-9.75-4.369-9.75-9.75z"/></svg>