<svg xmlns="http://www.w3.org/2000/svg" style="isolation:isolate" viewBox="7 7 86 86"><defs/><path fill="#EBEBEB" fill-rule="evenodd" d="M27.5 50c0-12.418 10.082-22.5 22.5-22.5S72.5 37.582 72.5 50 62.418 72.5 50 72.5 27.5 62.418 27.5 50zm-6.927 0c0-16.241 13.186-29.427 29.427-29.427S79.427 33.759 79.427 50 66.241 79.427 50 79.427 20.573 66.241 20.573 50zM46.5 12.661V7h7v5.661c.938.088 1.867.209 2.784.364l1.464-5.466 6.762 1.812-1.464 5.464c.88.327 1.745.687 2.593 1.077l2.83-4.901 6.062 3.5-2.834 4.908c.763.543 1.505 1.113 2.225 1.71l4.009-4.009 4.949 4.949-4.009 4.009c.597.72 1.167 1.462 1.71 2.225l4.908-2.834 3.5 6.062-4.901 2.83c.39.848.75 1.713 1.077 2.593l5.464-1.464 1.812 6.762-5.466 1.464c.155.917.276 1.846.364 2.784H93v7h-5.661c-.088.938-.209 1.867-.364 2.784l5.466 1.464-1.812 6.762-5.464-1.464c-.327.88-.687 1.745-1.077 2.593l4.901 2.83-3.5 6.062-4.908-2.834c-.543.763-1.113 1.505-1.71 2.225l4.009 4.009-4.949 4.949-4.009-4.009c-.72.597-1.462 1.167-2.225 1.71l2.834 4.908-6.062 3.5-2.83-4.901c-.848.39-1.713.75-2.593 1.077l1.464 5.464-6.762 1.812-1.464-5.466c-.917.155-1.846.276-2.784.364V93h-7v-5.661c-.938-.088-1.867-.209-2.784-.364l-1.464 5.466-6.762-1.812 1.464-5.464c-.88-.327-1.745-.687-2.593-1.077l-2.83 4.901-6.062-3.5 2.834-4.908c-.763-.543-1.505-1.113-2.225-1.71l-4.009 4.009-4.949-4.949 4.009-4.009c-.597-.72-1.167-1.462-1.71-2.225l-4.908 2.834-3.5-6.062 4.901-2.83c-.39-.848-.75-1.713-1.077-2.593L9.371 64.51l-1.812-6.762 5.466-1.464c-.155-.917-.276-1.846-.364-2.784H7v-7h5.661c.088-.938.209-1.867.364-2.784l-5.466-1.464 1.812-6.762 5.464 1.464c.327-.88.687-1.745 1.077-2.593l-4.901-2.83 3.5-6.062 4.908 2.834c.543-.763 1.113-1.505 1.71-2.225l-4.009-4.009 4.949-4.949 4.009 4.009c.72-.597 1.462-1.167 2.225-1.71l-2.834-4.908 6.062-3.5 2.83 4.901c.848-.39 1.713-.75 2.593-1.077L35.49 9.371l6.762-1.812 1.464 5.466c.917-.155 1.846-.276 2.784-.364zM40 50c0-5.519 4.481-10 10-10s10 4.481 10 10-4.481 10-10 10-10-4.481-10-10z"/></svg>