<?xml version="1.0" encoding="UTF-8" standalone="no"?>
<!-- Generator: Gravit.io -->
<svg xmlns="http://www.w3.org/2000/svg" xmlns:xlink="http://www.w3.org/1999/xlink" style="isolation:isolate" viewBox="78 368.509 170.5 103.488" width="170.5pt" height="103.488pt"><g><path d=" M 84 387 L 105 387 L 137 410 L 139 439" fill="none" vector-effect="non-scaling-stroke" stroke-width="4" stroke="rgb(0,0,0)" stroke-linejoin="miter" stroke-linecap="square" stroke-miterlimit="3"/><line x1="116" y1="425" x2="137" y2="421" vector-effect="non-scaling-stroke" stroke-width="4" stroke="rgb(0,0,0)" stroke-linejoin="miter" stroke-linecap="square" stroke-miterlimit="3"/><path d=" M 148 425 L 167 425 L 167 448 L 155 448 L 167 460 L 179 448 L 167 448" fill="none" vector-effect="non-scaling-stroke" stroke-width="4" stroke="rgb(0,0,0)" stroke-linejoin="miter" stroke-linecap="square" stroke-miterlimit="3"/><path d=" M 148 437 L 148 432 L 159 432 L 159 441" fill="none" vector-effect="non-scaling-stroke" stroke-width="4" stroke="rgb(0,0,0)" stroke-linejoin="miter" stroke-linecap="square" stroke-miterlimit="3"/><path d=" M 176 427 L 176 440 L 200 440 L 181 459 L 242.5 459" fill="none" vector-effect="non-scaling-stroke" stroke-width="4" stroke="rgb(0,0,0)" stroke-linejoin="miter" stroke-linecap="square" stroke-miterlimit="3"/><path d=" M 132.168 440.49 L 125.977 436.257 L 119.785 432.024 L 125.144 430.831 L 130.502 429.639 L 131.335 435.064 L 132.168 440.49 Z  M 126.452 432.703 C 126.955 431.968 127.96 431.779 128.695 432.282 C 129.43 432.785 129.618 433.789 129.116 434.524 C 128.613 435.259 127.609 435.448 126.874 434.946 C 126.139 434.443 125.95 433.438 126.452 432.703 Z " fill-rule="evenodd" fill="rgb(0,0,0)"/><path d=" M 142.163 410.051 L 148 414.76 L 153.837 419.469 L 148.402 420.234 L 142.966 421 L 142.564 415.525 L 142.163 410.051 Z  M 147.245 418.265 C 146.686 418.958 145.67 419.067 144.977 418.508 C 144.284 417.949 144.175 416.932 144.734 416.239 C 145.293 415.546 146.309 415.437 147.002 415.996 C 147.695 416.555 147.804 417.572 147.245 418.265 Z " fill-rule="evenodd" fill="rgb(0,0,0)"/><path d=" M 114.535 418.678 L 117.763 411.908 L 120.99 405.138 L 122.995 410.248 L 125 415.358 L 119.768 417.018 L 114.535 418.678 Z  M 121.348 411.829 C 122.151 412.213 122.493 413.176 122.11 413.98 C 121.726 414.784 120.763 415.125 119.959 414.742 C 119.155 414.359 118.814 413.395 119.197 412.591 C 119.58 411.788 120.544 411.446 121.348 411.829 Z " fill-rule="evenodd" fill="rgb(0,0,0)"/><path d=" M 90 376.839 C 90 375.735 90.896 374.839 92 374.839 C 93.104 374.839 94 375.735 94 376.839 C 94 377.943 93.104 378.839 92 378.839 C 90.896 378.839 90 377.943 90 376.839 L 90 376.839 L 90 376.839 Z  M 94.5 372.839 L 92 372.839 L 89.5 372.839 L 90.75 370.674 L 92 368.509 L 93.25 370.674 L 94.5 372.839 L 94.5 372.839 L 94.5 372.839 Z  M 100.125 381 L 97.625 381 L 95.125 381 L 96.375 378.835 L 97.625 376.67 L 98.875 378.835 L 100.125 381 L 100.125 381 Z  M 88.875 381 L 86.375 381 L 83.875 381 L 85.125 378.835 L 86.375 376.67 L 87.625 378.835 L 88.875 381 Z " fill-rule="evenodd" fill="rgb(0,0,0)"/><line x1="219" y1="470" x2="219" y2="460" vector-effect="non-scaling-stroke" stroke-width="4" stroke="rgb(0,0,0)" stroke-linejoin="miter" stroke-linecap="square" stroke-miterlimit="3"/><polygon points="231,452.236,206.82,452.236,218.91,439" fill="rgb(0,0,0)"/></g></svg>