<?xml version="1.0" encoding="UTF-8" standalone="no"?>
<!-- Generator: Gravit.io -->
<svg xmlns="http://www.w3.org/2000/svg" xmlns:xlink="http://www.w3.org/1999/xlink" style="isolation:isolate" viewBox="7.238 0.5 248.762 285" width="248.762pt" height="285pt"><g><path d=" M 240 46 L 217 46 L 210 28 L 220 8 L 213 8 L 192 28 L 197 48 L 172 58 L 167 48" fill="none" vector-effect="non-scaling-stroke" stroke-width="5" stroke="rgb(0,0,0)" stroke-linejoin="miter" stroke-linecap="butt" stroke-miterlimit="3"/><path d=" M 181 47 L 173 31 L 148 42 L 159 64 L 137 75 L 84 75" fill="none" vector-effect="non-scaling-stroke" stroke-width="5" stroke="rgb(0,0,0)" stroke-linejoin="miter" stroke-linecap="butt" stroke-miterlimit="3"/><path d=" M 123 49 L 102 100 L 84 120 L 74 134 L 66 100 L 53 120" fill="none" vector-effect="non-scaling-stroke" stroke-width="5" stroke="rgb(0,0,0)" stroke-linejoin="miter" stroke-linecap="butt" stroke-miterlimit="3"/><path d=" M 74 134 L 62 157 L 58 132 L 47 150" fill="none" vector-effect="non-scaling-stroke" stroke-width="5" stroke="rgb(0,0,0)" stroke-linejoin="miter" stroke-linecap="butt" stroke-miterlimit="3"/><path d=" M 62 157 L 53 184 L 46 217 L 34 197 L 53 184" fill="none" vector-effect="non-scaling-stroke" stroke-width="5" stroke="rgb(0,0,0)" stroke-linejoin="miter" stroke-linecap="butt" stroke-miterlimit="3"/><path d=" M 45 278 L 45 237 L 28.554 255 L 45 265" fill="none" vector-effect="non-scaling-stroke" stroke-width="5" stroke="rgb(0,0,0)" stroke-linejoin="miter" stroke-linecap="round" stroke-miterlimit="3"/><path d=" M 224 28 L 240 8 L 256 28 L 240 48 L 224 28 Z  M 242.5 25.5 L 242.5 21.5 L 237.5 21.5 L 237.5 25.5 L 233.5 25.5 L 233.5 30.5 L 237.5 30.5 L 237.5 34.5 L 242.5 34.5 L 242.5 30.5 L 246.5 30.5 L 246.5 25.5 L 242.5 25.5 Z " fill-rule="evenodd" fill="rgb(0,0,0)"/><path d=" M 19.181 163.604 L 35.834 148.226 L 47.181 167.848 L 30.528 183.226 L 19.181 163.604 Z  M 36.644 163.175 L 37.373 158.364 L 31.359 157.452 L 30.63 162.263 L 25.818 161.534 L 24.907 167.548 L 29.718 168.277 L 28.989 173.088 L 35.003 174 L 35.732 169.189 L 40.543 169.918 L 41.455 163.904 L 36.644 163.175 Z " fill-rule="evenodd" fill="rgb(0,0,0)"/><path d=" M 7.238 223.807 L 23.756 204.233 L 39.227 224.644 L 22.709 244.219 L 7.238 223.807 Z  M 26.658 220.975 L 26.798 215.633 L 20.121 215.459 L 19.982 220.8 L 14.64 220.66 L 14.465 227.337 L 19.807 227.477 L 19.667 232.819 L 26.344 232.993 L 26.484 227.652 L 31.825 227.792 L 32 221.115 L 26.658 220.975 Z " fill-rule="evenodd" fill="rgb(0,0,0)"/></g></svg>