<?xml version="1.0" encoding="UTF-8" standalone="no"?><!-- Generator: Gravit.io --><svg xmlns="http://www.w3.org/2000/svg" xmlns:xlink="http://www.w3.org/1999/xlink" style="isolation:isolate" viewBox="44 38 12 23" width="12pt" height="23pt"><path d=" M 49.7 49.15 L 47.8 49.15 L 47.8 55.85 L 49 56.15 L 49 56.35 L 44.9 56.35 L 44.9 56.15 L 46.1 55.85 L 46.1 42.85 L 44.9 42.55 L 44.9 42.35 L 53 42.35 L 53 42.35 Q 52.96 42.53 52.94 42.77 L 52.94 42.77 L 52.94 42.77 Q 52.92 42.99 52.91 43.28 L 52.91 43.28 L 52.91 43.28 Q 52.9 43.57 52.9 43.95 L 52.9 43.95 L 52.9 43.95 Q 52.9 44.23 52.91 44.5 L 52.91 44.5 L 52.91 44.5 Q 52.92 44.77 52.94 45.01 L 52.94 45.01 L 52.94 45.01 Q 52.96 45.29 53 45.55 L 53 45.55 L 52.8 45.55 L 52.8 45.55 Q 52.28 45.03 51.94 44.31 L 51.94 44.31 L 51.94 44.31 Q 51.6 43.59 51.6 42.75 L 51.6 42.75 L 47.8 42.75 L 47.8 48.75 L 49.7 48.75 L 50.6 46.95 L 50.8 46.95 L 50.8 50.95 L 50.6 50.95 L 49.7 49.15 L 49.7 49.15 Z " fill="rgb(232,232,232)"/></svg>