<?xml version="1.0" encoding="UTF-8" standalone="no"?><!-- Generator: Gravit.io --><svg xmlns="http://www.w3.org/2000/svg" xmlns:xlink="http://www.w3.org/1999/xlink" style="isolation:isolate" viewBox="44 38 12 23" width="12pt" height="23pt"><path d=" M 49.7 42.45 L 49.7 42.45 L 49.7 42.45 Q 49.14 42.45 48.6 42.77 L 48.6 42.77 L 48.6 42.77 Q 48.06 43.09 47.64 43.88 L 47.64 43.88 L 47.64 43.88 Q 47.22 44.67 46.96 46 L 46.96 46 L 46.96 46 Q 46.7 47.33 46.7 49.35 L 46.7 49.35 L 46.7 49.35 Q 46.7 51.37 46.96 52.7 L 46.96 52.7 L 46.96 52.7 Q 47.22 54.03 47.66 54.82 L 47.66 54.82 L 47.66 54.82 Q 48.1 55.61 48.68 55.93 L 48.68 55.93 L 48.68 55.93 Q 49.26 56.25 49.9 56.25 L 49.9 56.25 L 49.9 56.25 Q 50.42 56.25 50.96 55.97 L 50.96 55.97 L 50.96 55.97 Q 51.5 55.69 51.95 55.19 L 51.95 55.19 L 51.95 55.19 Q 52.4 54.69 52.71 54.01 L 52.71 54.01 L 52.71 54.01 Q 53.02 53.33 53.1 52.55 L 53.1 52.55 L 53.4 52.55 L 53.4 52.55 Q 53.32 53.45 53 54.2 L 53 54.2 L 53 54.2 Q 52.68 54.95 52.19 55.5 L 52.19 55.5 L 52.19 55.5 Q 51.7 56.05 51.06 56.35 L 51.06 56.35 L 51.06 56.35 Q 50.42 56.65 49.7 56.65 L 49.7 56.65 L 49.7 56.65 Q 48.76 56.65 47.88 56.2 L 47.88 56.2 L 47.88 56.2 Q 47 55.75 46.31 54.84 L 46.31 54.84 L 46.31 54.84 Q 45.62 53.93 45.21 52.56 L 45.21 52.56 L 45.21 52.56 Q 44.8 51.19 44.8 49.35 L 44.8 49.35 L 44.8 49.35 Q 44.8 47.51 45.21 46.14 L 45.21 46.14 L 45.21 46.14 Q 45.62 44.77 46.29 43.86 L 46.29 43.86 L 46.29 43.86 Q 46.96 42.95 47.8 42.5 L 47.8 42.5 L 47.8 42.5 Q 48.64 42.05 49.5 42.05 L 49.5 42.05 L 49.5 42.05 Q 49.98 42.05 50.37 42.21 L 50.37 42.21 L 50.37 42.21 Q 50.76 42.37 51.04 42.57 L 51.04 42.57 L 51.04 42.57 Q 51.36 42.79 51.6 43.07 L 51.6 43.07 L 51.6 43.07 Q 51.76 42.77 52.03 42.5 L 52.03 42.5 L 52.03 42.5 Q 52.3 42.23 52.6 42.15 L 52.6 42.15 L 52.9 42.15 L 52.9 42.15 Q 52.86 42.45 52.84 42.75 L 52.84 42.75 L 52.84 42.75 Q 52.82 43.03 52.81 43.34 L 52.81 43.34 L 52.81 43.34 Q 52.8 43.65 52.8 43.95 L 52.8 43.95 L 52.8 43.95 Q 52.8 44.29 52.81 44.62 L 52.81 44.62 L 52.81 44.62 Q 52.82 44.95 52.84 45.23 L 52.84 45.23 L 52.84 45.23 Q 52.86 45.55 52.9 45.85 L 52.9 45.85 L 52.6 45.85 L 52.6 45.85 Q 52.14 44.19 51.37 43.32 L 51.37 43.32 L 51.37 43.32 Q 50.6 42.45 49.7 42.45 Z " fill="rgb(232,232,232)"/></svg>