<?xml version="1.0" encoding="UTF-8" standalone="no"?><!-- Generator: Gravit.io --><svg xmlns="http://www.w3.org/2000/svg" xmlns:xlink="http://www.w3.org/1999/xlink" style="isolation:isolate" viewBox="-1 -5 103 71" width="103pt" height="71pt"><g><path d=" M 62.83 16.475 Q 78.397 15.003 80.501 28.887 Q 93.122 27.835 94.595 35.618 C 96.068 43.402 91.65 53.709 71.245 50.344 Q 66.407 57.496 58.623 53.499 Q 40.532 64.859 27.7 51.185 C 8.347 57.496 -5.327 27.204 23.282 17.948 C 26.227 -6.664 64.093 3.223 62.83 16.475 Z " fill="none" vector-effect="non-scaling-stroke" stroke-width="5" stroke="rgb(0,0,0)" stroke-linejoin="miter" stroke-linecap="square" stroke-miterlimit="3"/><path d=" M 63.06 25.667 Q 60.793 31.93 54.638 29.878 C 48.353 27.783 53.018 15.841 66.084 16.921" fill="none" vector-effect="non-scaling-stroke" stroke-width="4" stroke="rgb(0,0,0)" stroke-linejoin="round" stroke-linecap="round" stroke-miterlimit="3"/><path d=" M 35.188 41.452 C 38.372 36.985 35.417 30.679 29.599 30.753 C 23.781 30.826 16.851 40.201 28.931 51.663" fill="none" vector-effect="non-scaling-stroke" stroke-width="4" stroke="rgb(0,0,0)" stroke-linejoin="round" stroke-linecap="round" stroke-miterlimit="3"/></g></svg>