<?xml version="1.0" encoding="UTF-8" standalone="no"?><!-- Generator: Gravit.io --><svg xmlns="http://www.w3.org/2000/svg" xmlns:xlink="http://www.w3.org/1999/xlink" style="isolation:isolate" viewBox="43 36 12 23" width="12pt" height="23pt"><path d=" M 47.581 39.615 L 47.581 39.615 L 47.581 39.615 Q 47.021 39.615 46.501 39.855 L 46.501 39.855 L 46.501 39.855 Q 45.981 40.095 45.571 40.505 L 45.571 40.505 L 45.571 40.505 Q 45.161 40.915 44.921 41.435 L 44.921 41.435 L 44.921 41.435 Q 44.681 41.955 44.681 42.515 L 44.681 42.515 L 44.681 42.515 Q 44.681 43.035 45.091 43.375 L 45.091 43.375 L 45.091 43.375 Q 45.501 43.715 46.481 43.715 L 46.481 43.715 L 46.881 45.315 L 46.881 45.315 Q 46.801 45.355 46.701 45.375 L 46.701 45.375 L 46.701 45.375 Q 46.601 45.395 46.491 45.405 L 46.491 45.405 L 46.491 45.405 Q 46.381 45.415 46.281 45.415 L 46.281 45.415 L 46.281 45.415 Q 45.441 45.415 44.861 44.745 L 44.861 44.745 L 44.861 44.745 Q 44.281 44.075 44.281 42.715 L 44.281 42.715 L 44.281 42.715 Q 44.281 41.995 44.561 41.365 L 44.561 41.365 L 44.561 41.365 Q 44.841 40.735 45.321 40.255 L 45.321 40.255 L 45.321 40.255 Q 45.801 39.775 46.431 39.495 L 46.431 39.495 L 46.431 39.495 Q 47.061 39.215 47.781 39.215 L 47.781 39.215 L 47.781 39.215 Q 48.721 39.215 49.511 39.535 L 49.511 39.535 L 49.511 39.535 Q 50.301 39.855 50.871 40.405 L 50.871 40.405 L 50.871 40.405 Q 51.441 40.955 51.761 41.705 L 51.761 41.705 L 51.761 41.705 Q 52.081 42.455 52.081 43.315 L 52.081 43.315 L 52.081 43.315 Q 52.081 44.135 51.741 45.005 L 51.741 45.005 L 51.741 45.005 Q 51.401 45.875 50.831 46.735 L 50.831 46.735 L 50.831 46.735 Q 50.261 47.595 49.541 48.415 L 49.541 48.415 L 49.541 48.415 Q 48.821 49.235 48.061 49.955 L 48.061 49.955 L 48.061 49.955 Q 47.301 50.675 46.581 51.285 L 46.581 51.285 L 46.581 51.285 Q 45.861 51.895 45.281 52.315 L 45.281 52.315 L 51.581 52.315 L 51.981 50.415 L 52.281 50.415 L 52.281 53.615 L 43.481 53.615 L 43.481 53.615 Q 44.861 52.115 46.081 50.815 L 46.081 50.815 L 46.081 50.815 Q 47.301 49.515 48.211 48.285 L 48.211 48.285 L 48.211 48.285 Q 49.121 47.055 49.651 45.845 L 49.651 45.845 L 49.651 45.845 Q 50.181 44.635 50.181 43.315 L 50.181 43.315 L 50.181 43.315 Q 50.181 42.335 49.981 41.635 L 49.981 41.635 L 49.981 41.635 Q 49.781 40.935 49.441 40.485 L 49.441 40.485 L 49.441 40.485 Q 49.101 40.035 48.621 39.825 L 48.621 39.825 L 48.621 39.825 Q 48.141 39.615 47.581 39.615 Z " fill="rgb(232,232,232)"/></svg>