<?xml version="1.0" encoding="UTF-8" standalone="no"?><!-- Generator: Gravit.io --><svg xmlns="http://www.w3.org/2000/svg" xmlns:xlink="http://www.w3.org/1999/xlink" style="isolation:isolate" viewBox="44 36 12 23" width="12pt" height="23pt"><path d=" M 47.981 39.615 L 47.981 39.615 L 47.981 39.615 Q 47.081 39.615 46.581 40.135 L 46.581 40.135 L 46.581 40.135 Q 46.081 40.655 46.081 41.715 L 46.081 41.715 L 46.081 41.715 Q 46.081 42.015 46.181 42.315 L 46.181 42.315 L 46.181 42.315 Q 46.221 42.475 46.281 42.615 L 46.281 42.615 L 44.581 43.015 L 44.581 43.015 Q 44.521 42.935 44.481 42.795 L 44.481 42.795 L 44.481 42.795 Q 44.381 42.555 44.381 42.115 L 44.381 42.115 L 44.381 42.115 Q 44.381 41.555 44.621 41.045 L 44.621 41.045 L 44.621 41.045 Q 44.861 40.535 45.321 40.155 L 45.321 40.155 L 45.321 40.155 Q 45.781 39.775 46.451 39.545 L 46.451 39.545 L 46.451 39.545 Q 47.121 39.315 47.981 39.315 L 47.981 39.315 L 47.981 39.315 Q 48.881 39.315 49.591 39.565 L 49.591 39.565 L 49.591 39.565 Q 50.301 39.815 50.781 40.255 L 50.781 40.255 L 50.781 40.255 Q 51.261 40.695 51.521 41.295 L 51.521 41.295 L 51.521 41.295 Q 51.781 41.895 51.781 42.615 L 51.781 42.615 L 51.781 42.615 Q 51.781 43.715 51.311 44.335 L 51.311 44.335 L 51.311 44.335 Q 50.841 44.955 50.281 45.295 L 50.281 45.295 L 50.281 45.295 Q 49.621 45.675 48.781 45.815 L 48.781 45.815 L 48.781 45.815 Q 49.821 45.955 50.621 46.435 L 50.621 46.435 L 50.621 46.435 Q 50.961 46.635 51.301 46.935 L 51.301 46.935 L 51.301 46.935 Q 51.641 47.235 51.901 47.645 L 51.901 47.645 L 51.901 47.645 Q 52.161 48.055 52.321 48.595 L 52.321 48.595 L 52.321 48.595 Q 52.481 49.135 52.481 49.815 L 52.481 49.815 L 52.481 49.815 Q 52.481 50.675 52.151 51.425 L 52.151 51.425 L 52.151 51.425 Q 51.821 52.175 51.221 52.725 L 51.221 52.725 L 51.221 52.725 Q 50.621 53.275 49.771 53.595 L 49.771 53.595 L 49.771 53.595 Q 48.921 53.915 47.881 53.915 L 47.881 53.915 L 47.881 53.915 Q 47.021 53.915 46.301 53.635 L 46.301 53.635 L 46.301 53.635 Q 45.581 53.355 45.071 52.875 L 45.071 52.875 L 45.071 52.875 Q 44.561 52.395 44.271 51.765 L 44.271 51.765 L 44.271 51.765 Q 43.981 51.135 43.981 50.415 L 43.981 50.415 L 43.981 50.415 Q 43.981 48.835 44.571 48.125 L 44.571 48.125 L 44.571 48.125 Q 45.161 47.415 45.981 47.415 L 45.981 47.415 L 45.981 47.415 Q 46.081 47.415 46.191 47.435 L 46.191 47.435 L 46.191 47.435 Q 46.301 47.455 46.401 47.475 L 46.401 47.475 L 46.401 47.475 Q 46.501 47.495 46.581 47.515 L 46.581 47.515 L 46.181 49.115 L 46.181 49.115 Q 44.381 49.115 44.381 50.815 L 44.381 50.815 L 44.381 50.815 Q 44.381 51.295 44.631 51.785 L 44.631 51.785 L 44.631 51.785 Q 44.881 52.275 45.321 52.655 L 45.321 52.655 L 45.321 52.655 Q 45.761 53.035 46.361 53.275 L 46.361 53.275 L 46.361 53.275 Q 46.961 53.515 47.681 53.515 L 47.681 53.515 L 47.681 53.515 Q 49.041 53.515 49.811 52.645 L 49.811 52.645 L 49.811 52.645 Q 50.581 51.775 50.581 49.815 L 50.581 49.815 L 50.581 49.815 Q 50.581 47.795 49.821 46.905 L 49.821 46.905 L 49.821 46.905 Q 49.061 46.015 47.781 46.015 L 47.781 46.015 L 46.981 46.015 L 46.981 45.615 L 47.781 45.615 L 47.781 45.615 Q 48.841 45.615 49.461 44.905 L 49.461 44.905 L 49.461 44.905 Q 50.081 44.195 50.081 42.615 L 50.081 42.615 L 50.081 42.615 Q 50.081 41.875 49.911 41.305 L 49.911 41.305 L 49.911 41.305 Q 49.741 40.735 49.451 40.365 L 49.451 40.365 L 49.451 40.365 Q 49.161 39.995 48.781 39.805 L 48.781 39.805 L 48.781 39.805 Q 48.401 39.615 47.981 39.615 Z " fill="rgb(232,232,232)"/></svg>