<?xml version="1.0" encoding="UTF-8" standalone="no"?><!-- Generator: Gravit.io --><svg xmlns="http://www.w3.org/2000/svg" xmlns:xlink="http://www.w3.org/1999/xlink" style="isolation:isolate" viewBox="44 36 11 23" width="11pt" height="23pt"><path d=" M 52.541 39.615 L 52.541 40.635 L 52.541 40.635 Q 51.701 41.675 51.051 42.855 L 51.051 42.855 L 51.051 42.855 Q 50.401 44.035 49.961 45.545 L 49.961 45.545 L 49.961 45.545 Q 49.521 47.055 49.301 49.025 L 49.301 49.025 L 49.301 49.025 Q 49.081 50.995 49.081 53.615 L 49.081 53.615 L 47.081 53.615 L 47.081 53.615 Q 47.081 51.215 47.521 49.285 L 47.521 49.285 L 47.521 49.285 Q 47.961 47.355 48.631 45.825 L 48.631 45.825 L 48.631 45.825 Q 49.301 44.295 50.111 43.135 L 50.111 43.135 L 50.111 43.135 Q 50.921 41.975 51.681 41.115 L 51.681 41.115 L 45.181 41.115 L 44.781 42.815 L 44.481 42.815 L 44.481 39.615 L 52.541 39.615 L 52.541 39.615 Z " fill="rgb(232,232,232)"/></svg>