<?xml version="1.0" encoding="UTF-8" standalone="no"?><!-- Generator: Gravit.io --><svg xmlns="http://www.w3.org/2000/svg" xmlns:xlink="http://www.w3.org/1999/xlink" style="isolation:isolate" viewBox="44 36 12 23" width="12pt" height="23pt"><path d=" M 46.081 44.015 L 46.081 44.015 L 46.081 44.015 Q 46.081 45.075 46.291 45.825 L 46.291 45.825 L 46.291 45.825 Q 46.501 46.575 46.831 47.065 L 46.831 47.065 L 46.831 47.065 Q 47.161 47.555 47.591 47.785 L 47.591 47.785 L 47.591 47.785 Q 48.021 48.015 48.481 48.015 L 48.481 48.015 L 48.481 48.015 Q 48.901 48.015 49.311 47.785 L 49.311 47.785 L 49.311 47.785 Q 49.721 47.555 50.051 47.095 L 50.051 47.095 L 50.051 47.095 Q 50.381 46.635 50.581 45.915 L 50.581 45.915 L 50.581 45.915 Q 50.781 45.195 50.781 44.235 L 50.781 44.235 L 50.781 44.235 Q 50.781 42.955 50.571 42.075 L 50.571 42.075 L 50.571 42.075 Q 50.361 41.195 50.021 40.645 L 50.021 40.645 L 50.021 40.645 Q 49.681 40.095 49.221 39.855 L 49.221 39.855 L 49.221 39.855 Q 48.761 39.615 48.281 39.615 L 48.281 39.615 L 48.281 39.615 Q 47.901 39.615 47.511 39.855 L 47.511 39.855 L 47.511 39.855 Q 47.121 40.095 46.801 40.615 L 46.801 40.615 L 46.801 40.615 Q 46.481 41.135 46.281 41.975 L 46.281 41.975 L 46.281 41.975 Q 46.081 42.815 46.081 44.015 Z  M 52.681 46.215 L 52.681 46.615 L 52.681 46.615 Q 52.681 48.535 52.301 49.915 L 52.301 49.915 L 52.301 49.915 Q 51.921 51.295 51.291 52.185 L 51.291 52.185 L 51.291 52.185 Q 50.661 53.075 49.851 53.495 L 49.851 53.495 L 49.851 53.495 Q 49.041 53.915 48.181 53.915 L 48.181 53.915 L 48.181 53.915 Q 47.361 53.915 46.711 53.685 L 46.711 53.685 L 46.711 53.685 Q 46.061 53.455 45.611 53.075 L 45.611 53.075 L 45.611 53.075 Q 45.161 52.695 44.921 52.185 L 44.921 52.185 L 44.921 52.185 Q 44.681 51.675 44.681 51.115 L 44.681 51.115 L 44.681 51.115 Q 44.681 50.695 44.781 50.435 L 44.781 50.435 L 44.781 50.435 Q 44.821 50.315 44.881 50.215 L 44.881 50.215 L 46.581 50.615 L 46.581 50.615 Q 46.521 50.755 46.481 50.915 L 46.481 50.915 L 46.481 50.915 Q 46.381 51.215 46.381 51.515 L 46.381 51.515 L 46.381 51.515 Q 46.381 52.575 46.861 53.095 L 46.861 53.095 L 46.861 53.095 Q 47.341 53.615 48.181 53.615 L 48.181 53.615 L 48.181 53.615 Q 48.621 53.615 49.101 53.305 L 49.101 53.305 L 49.101 53.305 Q 49.581 52.995 49.981 52.275 L 49.981 52.275 L 49.981 52.275 Q 50.381 51.555 50.631 50.365 L 50.631 50.365 L 50.631 50.365 Q 50.881 49.175 50.881 47.415 L 50.881 47.415 L 50.881 46.415 L 50.881 46.415 Q 50.881 46.415 50.751 46.725 L 50.751 46.725 L 50.751 46.725 Q 50.621 47.035 50.301 47.415 L 50.301 47.415 L 50.301 47.415 Q 49.981 47.795 49.491 48.105 L 49.491 48.105 L 49.491 48.105 Q 49.001 48.415 48.281 48.415 L 48.281 48.415 L 48.281 48.415 Q 47.421 48.415 46.671 48.095 L 46.671 48.095 L 46.671 48.095 Q 45.921 47.775 45.371 47.195 L 45.371 47.195 L 45.371 47.195 Q 44.821 46.615 44.501 45.805 L 44.501 45.805 L 44.501 45.805 Q 44.181 44.995 44.181 44.015 L 44.181 44.015 L 44.181 44.015 Q 44.181 42.935 44.501 42.065 L 44.501 42.065 L 44.501 42.065 Q 44.821 41.195 45.371 40.585 L 45.371 40.585 L 45.371 40.585 Q 45.921 39.975 46.671 39.645 L 46.671 39.645 L 46.671 39.645 Q 47.421 39.315 48.281 39.315 L 48.281 39.315 L 48.281 39.315 Q 49.261 39.315 50.071 39.675 L 50.071 39.675 L 50.071 39.675 Q 50.881 40.035 51.461 40.855 L 51.461 40.855 L 51.461 40.855 Q 52.041 41.675 52.361 42.985 L 52.361 42.985 L 52.361 42.985 Q 52.681 44.295 52.681 46.215 L 52.681 46.215 L 52.681 46.215 Z " fill="rgb(232,232,232)"/></svg>