<?xml version="1.0" encoding="UTF-8" standalone="no"?><!-- Generator: Gravit.io --><svg xmlns="http://www.w3.org/2000/svg" xmlns:xlink="http://www.w3.org/1999/xlink" style="isolation:isolate" viewBox="43 36 14 23" width="14pt" height="23pt"><path d=" M 50.881 39.615 L 50.881 49.115 L 50.881 49.115 Q 51.401 49.115 51.891 49.045 L 51.891 49.045 L 51.891 49.045 Q 52.381 48.975 52.761 48.875 L 52.761 48.875 L 52.761 48.875 Q 53.201 48.775 53.581 48.615 L 53.581 48.615 L 53.581 48.815 L 53.581 48.815 Q 53.281 49.095 52.901 49.335 L 52.901 49.335 L 52.901 49.335 Q 52.561 49.555 52.061 49.745 L 52.061 49.745 L 52.061 49.745 Q 51.561 49.935 50.881 50.015 L 50.881 50.015 L 50.881 53.115 L 52.081 53.415 L 52.081 53.615 L 47.981 53.615 L 47.981 53.415 L 49.181 53.115 L 49.181 50.015 L 42.881 50.015 L 42.881 50.015 Q 45.001 47.895 46.521 45.305 L 46.521 45.305 L 46.521 45.305 Q 48.041 42.715 49.181 39.615 L 49.181 39.615 L 50.881 39.615 L 50.881 39.615 Z  M 49.181 49.115 L 49.181 40.915 L 49.181 40.915 Q 48.761 41.975 48.201 43.115 L 48.201 43.115 L 48.201 43.115 Q 47.641 44.255 46.991 45.355 L 46.991 45.355 L 46.991 45.355 Q 46.341 46.455 45.651 47.425 L 45.651 47.425 L 45.651 47.425 Q 44.961 48.395 44.281 49.115 L 44.281 49.115 L 49.181 49.115 L 49.181 49.115 Z " fill="rgb(232,232,232)"/></svg>