<?xml version="1.0" encoding="UTF-8" standalone="no"?><!-- Generator: Gravit.io --><svg xmlns="http://www.w3.org/2000/svg" xmlns:xlink="http://www.w3.org/1999/xlink" style="isolation:isolate" viewBox="44 36 12 23" width="12pt" height="23pt"><path d=" M 47.381 53.515 L 47.381 53.515 L 47.381 53.515 Q 47.981 53.515 48.541 53.235 L 48.541 53.235 L 48.541 53.235 Q 49.101 52.955 49.531 52.395 L 49.531 52.395 L 49.531 52.395 Q 49.961 51.835 50.221 50.985 L 50.221 50.985 L 50.221 50.985 Q 50.481 50.135 50.481 49.015 L 50.481 49.015 L 50.481 49.015 Q 50.481 47.995 50.191 47.205 L 50.191 47.205 L 50.191 47.205 Q 49.901 46.415 49.391 45.855 L 49.391 45.855 L 49.391 45.855 Q 48.881 45.295 48.161 45.005 L 48.161 45.005 L 48.161 45.005 Q 47.441 44.715 46.581 44.715 L 46.581 44.715 L 46.581 44.715 Q 46.241 44.715 45.941 44.775 L 45.941 44.775 L 45.941 44.775 Q 45.641 44.835 45.401 44.915 L 45.401 44.915 L 45.401 44.915 Q 45.121 44.995 44.881 45.115 L 44.881 45.115 L 45.981 39.595 L 45.981 39.595 Q 45.981 39.595 46.181 39.635 L 46.181 39.635 L 46.181 39.635 Q 46.381 39.675 46.711 39.715 L 46.711 39.715 L 46.711 39.715 Q 47.041 39.755 47.451 39.785 L 47.451 39.785 L 47.451 39.785 Q 47.861 39.815 48.281 39.815 L 48.281 39.815 L 48.281 39.815 Q 48.921 39.815 49.511 39.755 L 49.511 39.755 L 49.511 39.755 Q 50.101 39.695 50.561 39.615 L 50.561 39.615 L 50.561 39.615 Q 51.101 39.535 51.581 39.415 L 51.581 39.415 L 51.561 39.615 L 51.561 39.615 Q 50.801 40.455 49.461 40.885 L 49.461 40.885 L 49.461 40.885 Q 48.121 41.315 46.081 41.315 L 46.081 41.315 L 45.481 44.315 L 45.481 44.315 Q 45.681 44.275 45.921 44.215 L 45.921 44.215 L 45.921 44.215 Q 46.141 44.175 46.451 44.145 L 46.451 44.145 L 46.451 44.145 Q 46.761 44.115 47.181 44.115 L 47.181 44.115 L 47.181 44.115 Q 48.381 44.115 49.341 44.475 L 49.341 44.475 L 49.341 44.475 Q 50.301 44.835 50.981 45.475 L 50.981 45.475 L 50.981 45.475 Q 51.661 46.115 52.021 47.025 L 52.021 47.025 L 52.021 47.025 Q 52.381 47.935 52.381 49.015 L 52.381 49.015 L 52.381 49.015 Q 52.381 50.095 52.021 51.005 L 52.021 51.005 L 52.021 51.005 Q 51.661 51.915 51.031 52.555 L 51.031 52.555 L 51.031 52.555 Q 50.401 53.195 49.511 53.555 L 49.511 53.555 L 49.511 53.555 Q 48.621 53.915 47.581 53.915 L 47.581 53.915 L 47.581 53.915 Q 46.801 53.915 46.141 53.655 L 46.141 53.655 L 46.141 53.655 Q 45.481 53.395 45.001 52.935 L 45.001 52.935 L 45.001 52.935 Q 44.521 52.475 44.251 51.855 L 44.251 51.855 L 44.251 51.855 Q 43.981 51.235 43.981 50.515 L 43.981 50.515 L 43.981 50.515 Q 43.981 49.095 44.571 48.405 L 44.571 48.405 L 44.571 48.405 Q 45.161 47.715 45.981 47.715 L 45.981 47.715 L 45.981 47.715 Q 46.081 47.715 46.191 47.735 L 46.191 47.735 L 46.191 47.735 Q 46.301 47.755 46.401 47.775 L 46.401 47.775 L 46.401 47.775 Q 46.501 47.795 46.581 47.815 L 46.581 47.815 L 46.181 49.415 L 46.181 49.415 Q 45.281 49.415 44.831 49.825 L 44.831 49.825 L 44.831 49.825 Q 44.381 50.235 44.381 50.915 L 44.381 50.915 L 44.381 50.915 Q 44.381 51.395 44.611 51.865 L 44.611 51.865 L 44.611 51.865 Q 44.841 52.335 45.241 52.705 L 45.241 52.705 L 45.241 52.705 Q 45.641 53.075 46.191 53.295 L 46.191 53.295 L 46.191 53.295 Q 46.741 53.515 47.381 53.515 Z " fill="rgb(232,232,232)"/></svg>