<?xml version="1.0" encoding="UTF-8" standalone="no"?><!-- Generator: Gravit.io --><svg xmlns="http://www.w3.org/2000/svg" xmlns:xlink="http://www.w3.org/1999/xlink" style="isolation:isolate" viewBox="43 36 13 23" width="13pt" height="23pt"><path d=" M 46.781 46.115 L 46.781 46.115 L 46.781 46.115 Q 46.101 45.735 45.581 45.215 L 45.581 45.215 L 45.581 45.215 Q 45.121 44.755 44.751 44.085 L 44.751 44.085 L 44.751 44.085 Q 44.381 43.415 44.381 42.515 L 44.381 42.515 L 44.381 42.515 Q 44.381 41.835 44.631 41.255 L 44.631 41.255 L 44.631 41.255 Q 44.881 40.675 45.361 40.245 L 45.361 40.245 L 45.361 40.245 Q 45.841 39.815 46.531 39.565 L 46.531 39.565 L 46.531 39.565 Q 47.221 39.315 48.081 39.315 L 48.081 39.315 L 48.081 39.315 Q 48.981 39.315 49.691 39.555 L 49.691 39.555 L 49.691 39.555 Q 50.401 39.795 50.881 40.215 L 50.881 40.215 L 50.881 40.215 Q 51.361 40.635 51.621 41.175 L 51.621 41.175 L 51.621 41.175 Q 51.881 41.715 51.881 42.315 L 51.881 42.315 L 51.881 42.315 Q 51.881 43.155 51.471 43.745 L 51.471 43.745 L 51.471 43.745 Q 51.061 44.335 50.581 44.735 L 50.581 44.735 L 50.581 44.735 Q 50.001 45.195 49.281 45.515 L 49.281 45.515 L 49.281 45.515 Q 50.201 45.975 50.921 46.635 L 50.921 46.635 L 50.921 46.635 Q 51.221 46.915 51.521 47.275 L 51.521 47.275 L 51.521 47.275 Q 51.821 47.635 52.061 48.055 L 52.061 48.055 L 52.061 48.055 Q 52.301 48.475 52.441 48.965 L 52.441 48.965 L 52.441 48.965 Q 52.581 49.455 52.581 50.015 L 52.581 50.015 L 52.581 50.015 Q 52.581 50.795 52.261 51.505 L 52.261 51.505 L 52.261 51.505 Q 51.941 52.215 51.351 52.755 L 51.351 52.755 L 51.351 52.755 Q 50.761 53.295 49.931 53.605 L 49.931 53.605 L 49.931 53.605 Q 49.101 53.915 48.081 53.915 L 48.081 53.915 L 48.081 53.915 Q 47.021 53.915 46.211 53.635 L 46.211 53.635 L 46.211 53.635 Q 45.401 53.355 44.831 52.855 L 44.831 52.855 L 44.831 52.855 Q 44.261 52.355 43.971 51.675 L 43.971 51.675 L 43.971 51.675 Q 43.681 50.995 43.681 50.215 L 43.681 50.215 L 43.681 50.215 Q 43.681 49.155 44.161 48.395 L 44.161 48.395 L 44.161 48.395 Q 44.641 47.635 45.221 47.115 L 45.221 47.115 L 45.221 47.115 Q 45.901 46.515 46.781 46.115 Z  M 51.081 50.415 L 51.081 50.415 L 51.081 50.415 Q 51.081 49.995 50.921 49.615 L 50.921 49.615 L 50.921 49.615 Q 50.761 49.235 50.501 48.875 L 50.501 48.875 L 50.501 48.875 Q 50.241 48.515 49.901 48.205 L 49.901 48.205 L 49.901 48.205 Q 49.561 47.895 49.221 47.635 L 49.221 47.635 L 49.221 47.635 Q 48.421 47.015 47.381 46.515 L 47.381 46.515 L 47.381 46.515 Q 46.641 46.795 46.081 47.315 L 46.081 47.315 L 46.081 47.315 Q 45.581 47.755 45.181 48.455 L 45.181 48.455 L 45.181 48.455 Q 44.781 49.155 44.781 50.215 L 44.781 50.215 L 44.781 50.215 Q 44.781 50.975 45.031 51.595 L 45.031 51.595 L 45.031 51.595 Q 45.281 52.215 45.721 52.665 L 45.721 52.665 L 45.721 52.665 Q 46.161 53.115 46.761 53.365 L 46.761 53.365 L 46.761 53.365 Q 47.361 53.615 48.081 53.615 L 48.081 53.615 L 48.081 53.615 Q 49.441 53.615 50.261 52.765 L 50.261 52.765 L 50.261 52.765 Q 51.081 51.915 51.081 50.415 Z  M 48.081 39.615 L 48.081 39.615 L 48.081 39.615 Q 47.621 39.615 47.221 39.795 L 47.221 39.795 L 47.221 39.795 Q 46.821 39.975 46.521 40.305 L 46.521 40.305 L 46.521 40.305 Q 46.221 40.635 46.051 41.085 L 46.051 41.085 L 46.051 41.085 Q 45.881 41.535 45.881 42.095 L 45.881 42.095 L 45.881 42.095 Q 45.881 42.795 46.321 43.345 L 46.321 43.345 L 46.321 43.345 Q 46.761 43.895 47.281 44.295 L 47.281 44.295 L 47.281 44.295 Q 47.901 44.755 48.681 45.115 L 48.681 45.115 L 48.681 45.115 Q 49.261 44.875 49.721 44.475 L 49.721 44.475 L 49.721 44.475 Q 50.121 44.135 50.451 43.605 L 50.451 43.605 L 50.451 43.605 Q 50.781 43.075 50.781 42.315 L 50.781 42.315 L 50.781 42.315 Q 50.781 41.755 50.571 41.265 L 50.571 41.265 L 50.571 41.265 Q 50.361 40.775 49.991 40.405 L 49.991 40.405 L 49.991 40.405 Q 49.621 40.035 49.131 39.825 L 49.131 39.825 L 49.131 39.825 Q 48.641 39.615 48.081 39.615 Z " fill="rgb(232,232,232)"/></svg>