<?xml version="1.0" encoding="UTF-8" standalone="no"?><!-- Generator: Gravit.io --><svg xmlns="http://www.w3.org/2000/svg" xmlns:xlink="http://www.w3.org/1999/xlink" style="isolation:isolate" viewBox="43 36 13 23" width="13pt" height="23pt"><path d=" M 50.781 46.615 L 50.781 46.615 L 50.781 46.615 Q 50.781 44.515 50.541 43.155 L 50.541 43.155 L 50.541 43.155 Q 50.301 41.795 49.941 41.015 L 49.941 41.015 L 49.941 41.015 Q 49.581 40.235 49.141 39.925 L 49.141 39.925 L 49.141 39.925 Q 48.701 39.615 48.281 39.615 L 48.281 39.615 L 48.281 39.615 Q 47.861 39.615 47.421 39.925 L 47.421 39.925 L 47.421 39.925 Q 46.981 40.235 46.621 41.015 L 46.621 41.015 L 46.621 41.015 Q 46.261 41.795 46.021 43.155 L 46.021 43.155 L 46.021 43.155 Q 45.781 44.515 45.781 46.615 L 45.781 46.615 L 45.781 46.615 Q 45.781 48.715 46.021 50.075 L 46.021 50.075 L 46.021 50.075 Q 46.261 51.435 46.621 52.215 L 46.621 52.215 L 46.621 52.215 Q 46.981 52.995 47.421 53.305 L 47.421 53.305 L 47.421 53.305 Q 47.861 53.615 48.281 53.615 L 48.281 53.615 L 48.281 53.615 Q 48.701 53.615 49.141 53.305 L 49.141 53.305 L 49.141 53.305 Q 49.581 52.995 49.941 52.215 L 49.941 52.215 L 49.941 52.215 Q 50.301 51.435 50.541 50.075 L 50.541 50.075 L 50.541 50.075 Q 50.781 48.715 50.781 46.615 Z  M 52.681 46.615 L 52.681 46.615 L 52.681 46.615 Q 52.681 48.535 52.301 49.915 L 52.301 49.915 L 52.301 49.915 Q 51.921 51.295 51.301 52.185 L 51.301 52.185 L 51.301 52.185 Q 50.681 53.075 49.891 53.495 L 49.891 53.495 L 49.891 53.495 Q 49.101 53.915 48.281 53.915 L 48.281 53.915 L 48.281 53.915 Q 47.461 53.915 46.671 53.495 L 46.671 53.495 L 46.671 53.495 Q 45.881 53.075 45.261 52.185 L 45.261 52.185 L 45.261 52.185 Q 44.641 51.295 44.261 49.915 L 44.261 49.915 L 44.261 49.915 Q 43.881 48.535 43.881 46.615 L 43.881 46.615 L 43.881 46.615 Q 43.881 44.695 44.261 43.315 L 44.261 43.315 L 44.261 43.315 Q 44.641 41.935 45.261 41.045 L 45.261 41.045 L 45.261 41.045 Q 45.881 40.155 46.671 39.735 L 46.671 39.735 L 46.671 39.735 Q 47.461 39.315 48.281 39.315 L 48.281 39.315 L 48.281 39.315 Q 49.101 39.315 49.891 39.735 L 49.891 39.735 L 49.891 39.735 Q 50.681 40.155 51.301 41.045 L 51.301 41.045 L 51.301 41.045 Q 51.921 41.935 52.301 43.315 L 52.301 43.315 L 52.301 43.315 Q 52.681 44.695 52.681 46.615 Z " fill="rgb(232,232,232)"/></svg>