<?xml version="1.0" encoding="UTF-8" standalone="no"?><!-- Generator: Gravit.io --><svg xmlns="http://www.w3.org/2000/svg" xmlns:xlink="http://www.w3.org/1999/xlink" style="isolation:isolate" viewBox="44 36 12 23" width="12pt" height="23pt"><path d=" M 50.981 49.215 L 50.981 49.215 L 50.981 49.215 Q 50.981 48.175 50.771 47.415 L 50.771 47.415 L 50.771 47.415 Q 50.561 46.655 50.231 46.165 L 50.231 46.165 L 50.231 46.165 Q 49.901 45.675 49.461 45.445 L 49.461 45.445 L 49.461 45.445 Q 49.021 45.215 48.581 45.215 L 48.581 45.215 L 48.581 45.215 Q 48.161 45.215 47.751 45.445 L 47.751 45.445 L 47.751 45.445 Q 47.341 45.675 47.011 46.135 L 47.011 46.135 L 47.011 46.135 Q 46.681 46.595 46.481 47.315 L 46.481 47.315 L 46.481 47.315 Q 46.281 48.035 46.281 48.995 L 46.281 48.995 L 46.281 48.995 Q 46.281 50.275 46.491 51.155 L 46.491 51.155 L 46.491 51.155 Q 46.701 52.035 47.041 52.585 L 47.041 52.585 L 47.041 52.585 Q 47.381 53.135 47.841 53.375 L 47.841 53.375 L 47.841 53.375 Q 48.301 53.615 48.781 53.615 L 48.781 53.615 L 48.781 53.615 Q 49.161 53.615 49.551 53.375 L 49.551 53.375 L 49.551 53.375 Q 49.941 53.135 50.261 52.615 L 50.261 52.615 L 50.261 52.615 Q 50.581 52.095 50.781 51.255 L 50.781 51.255 L 50.781 51.255 Q 50.981 50.415 50.981 49.215 Z  M 44.381 47.015 L 44.381 46.615 L 44.381 46.615 Q 44.381 44.695 44.761 43.315 L 44.761 43.315 L 44.761 43.315 Q 45.141 41.935 45.771 41.045 L 45.771 41.045 L 45.771 41.045 Q 46.401 40.155 47.211 39.735 L 47.211 39.735 L 47.211 39.735 Q 48.021 39.315 48.881 39.315 L 48.881 39.315 L 48.881 39.315 Q 49.701 39.315 50.351 39.545 L 50.351 39.545 L 50.351 39.545 Q 51.001 39.775 51.451 40.155 L 51.451 40.155 L 51.451 40.155 Q 51.901 40.535 52.141 41.045 L 52.141 41.045 L 52.141 41.045 Q 52.381 41.555 52.381 42.115 L 52.381 42.115 L 52.381 42.115 Q 52.381 42.335 52.351 42.515 L 52.351 42.515 L 52.351 42.515 Q 52.321 42.695 52.281 42.795 L 52.281 42.795 L 52.281 42.795 Q 52.221 42.935 52.181 43.015 L 52.181 43.015 L 50.481 42.615 L 50.581 42.315 L 50.581 42.315 Q 50.621 42.175 50.651 42.025 L 50.651 42.025 L 50.651 42.025 Q 50.681 41.875 50.681 41.715 L 50.681 41.715 L 50.681 41.715 Q 50.681 40.655 50.201 40.135 L 50.201 40.135 L 50.201 40.135 Q 49.721 39.615 48.881 39.615 L 48.881 39.615 L 48.881 39.615 Q 48.421 39.615 47.951 39.925 L 47.951 39.925 L 47.951 39.925 Q 47.481 40.235 47.081 40.955 L 47.081 40.955 L 47.081 40.955 Q 46.681 41.675 46.431 42.865 L 46.431 42.865 L 46.431 42.865 Q 46.181 44.055 46.181 45.815 L 46.181 45.815 L 46.181 46.815 L 46.181 46.815 Q 46.181 46.815 46.311 46.505 L 46.311 46.505 L 46.311 46.505 Q 46.441 46.195 46.761 45.815 L 46.761 45.815 L 46.761 45.815 Q 47.081 45.435 47.571 45.125 L 47.571 45.125 L 47.571 45.125 Q 48.061 44.815 48.781 44.815 L 48.781 44.815 L 48.781 44.815 Q 49.641 44.815 50.391 45.135 L 50.391 45.135 L 50.391 45.135 Q 51.141 45.455 51.691 46.035 L 51.691 46.035 L 51.691 46.035 Q 52.241 46.615 52.561 47.425 L 52.561 47.425 L 52.561 47.425 Q 52.881 48.235 52.881 49.215 L 52.881 49.215 L 52.881 49.215 Q 52.881 50.295 52.561 51.165 L 52.561 51.165 L 52.561 51.165 Q 52.241 52.035 51.691 52.645 L 51.691 52.645 L 51.691 52.645 Q 51.141 53.255 50.391 53.585 L 50.391 53.585 L 50.391 53.585 Q 49.641 53.915 48.781 53.915 L 48.781 53.915 L 48.781 53.915 Q 47.801 53.915 46.991 53.555 L 46.991 53.555 L 46.991 53.555 Q 46.181 53.195 45.601 52.375 L 45.601 52.375 L 45.601 52.375 Q 45.021 51.555 44.701 50.245 L 44.701 50.245 L 44.701 50.245 Q 44.381 48.935 44.381 47.015 L 44.381 47.015 L 44.381 47.015 Z " fill="rgb(232,232,232)"/></svg>