<svg xmlns="http://www.w3.org/2000/svg" style="isolation:isolate" viewBox="38 25 24 66"><defs/><g fill-rule="evenodd"><path fill="#EBEBEB" d="M47.673 42.89v-4.947l-1.396-4.773h1.608l.952-3.58L50 25.214l1.163 4.376.952 3.58h1.608l-1.396 4.773v4.947q.699-.335 1.744-.638c1.167-.339 4.275.501 5.274.177.958-.312 1.658-1.86.565-1.825-.296.342-.775.566-1.315.566-.893 0-1.619-.611-1.619-1.362 0-.752.726-1.362 1.619-1.362q3.237-.086 3.237 2.724c0 1.893-2.365 3.013-4.204 2.674q-1.318-.243-3.553.596l-1.525 3.698v1.076q2.809-.606 6.725.644-4.685-.356-6.725 1.017v.943q1.645-.408 3.178.764-2.121.956-3.059 3.824 3.214-1.61 8.517-2.129-6.326 2.181-8.126 4.986v6.101q3.249-.925 6.269 1.384-4.646 2.093-6.297 9.023v6.796c1.056.874 1.73 2.194 1.73 3.671C54.762 88.866 52.628 91 50 91c-2.628 0-4.762-2.134-4.762-4.762 0-1.477.674-2.797 1.73-3.671v-6.894q-1.66-6.847-6.273-8.925 3.009-2.301 6.245-1.391v-6.094q-1.8-2.805-8.126-4.986 5.303.519 8.517 2.129-.938-2.868-3.059-3.824 1.533-1.172 3.178-.764v-.726q-1.979-1.617-7.018-1.234 4.122-1.316 7.018-.575v-1.145l-1.525-3.698q-2.235-.839-3.553-.596c-1.839.339-4.204-.781-4.204-2.674q0-2.81 3.237-2.724c.893 0 1.619.61 1.619 1.362 0 .751-.726 1.362-1.619 1.362-.54 0-1.019-.224-1.315-.566-1.093-.035-.393 1.513.565 1.825.999.324 4.107-.516 5.274-.177q1.045.303 1.744.638zm.185 43.348c0-1.182.96-2.142 2.142-2.142s2.142.96 2.142 2.142-.96 2.142-2.142 2.142-2.142-.96-2.142-2.142z"/><path d="M49.165 85.374v-10.23l-.572-4.655q-.998-1.144-2.6-1.63 1.444-.744 2.977-.643l.422-2.272.304-1.637-.531-4.311-.694-5.645q-.642-.927-1.809-1.281 1.137-.586 2.365-.312l.365-1.962.335-1.801-.345-3.786q-.647-1.021-1.886-1.397.837-.431 1.722-.397l-.053-.581-.834-9.161h.656l.405-1.697.608-2.55.608 2.55.405 1.697h.656l-.834 9.161-.053.581q.885-.034 1.722.397-1.239.376-1.886 1.397l-.345 3.786.335 1.801.365 1.962q1.228-.274 2.365.312-1.167.354-1.809 1.281l-.694 5.645-.531 4.311.304 1.637.422 2.272q1.533-.101 2.977.643-1.602.486-2.6 1.63l-.572 4.655v10.23c.226.219.366.525.366.864 0 .663-.538 1.201-1.201 1.201s-1.201-.538-1.201-1.201c0-.339.14-.645.366-.864z"/></g></svg>