<svg xmlns="http://www.w3.org/2000/svg" style="isolation:isolate" viewBox="41 9 19 82"><defs/><g fill-rule="evenodd"><path fill="#EBEBEB" d="M48.371 81.762v-7.31q-1.409-9.971-6.071-12.818 2.913-3.02 6.056-1.639v-7.129q-1.407-3.92-7.799-6.907 4.916.651 7.895 2.675-.869-3.605-2.836-4.806 1.453-1.506 3.014-.937v-.86q-1.816-2.118-6.573-1.626 3.869-1.675 6.573-.7v-2.002h.006l-.828-5.047h.942v-7.228l-.75-6h.864l.511-4.5.625-5.5.625 5.5.511 4.5H52l-.75 6v7.228h.942l-.828 5.047h.006v1.912q2.624-.802 6.302.79-4.422-.457-6.302 1.34v1.146q1.561-.569 3.014.937-1.967 1.201-2.836 4.806 2.979-2.024 7.895-2.675-6.392 2.987-7.799 6.907v7.139q3.155-1.401 6.078 1.629-4.699 2.87-6.093 12.973v7.155c1.827.666 3.133 2.42 3.133 4.476C54.762 88.866 52.628 91 50 91c-2.628 0-4.762-2.134-4.762-4.762 0-2.056 1.306-3.81 3.133-4.476zm-.513 4.476c0-1.182.96-2.142 2.142-2.142s2.142.96 2.142 2.142-.96 2.142-2.142 2.142-2.142-.96-2.142-2.142z"/><path d="M49.5 85.146V72.187l-.146-2.481q-.506-4.241-2.354-5.418 1.136-1.228 2.364-.624h.002l.27-3.04.182-2.058-.318-5.419-.416-7.096q-.385-1.164-1.084-1.61.682-.736 1.417-.392l.219-2.465.2-2.265-.336-7.744-.5-11.514h.393l.243-2.133.364-3.206.364 3.206.243 2.133H51l-.5 11.514-.336 7.744.2 2.265.219 2.465q.735-.344 1.417.392-.699.446-1.084 1.61l-.416 7.096-.318 5.419.182 2.058.27 3.04h.002q1.228-.604 2.364.624-1.848 1.177-2.354 5.418l-.146 2.481v12.959c.414.19.701.607.701 1.092 0 .663-.538 1.201-1.201 1.201s-1.201-.538-1.201-1.201c0-.485.287-.902.701-1.092z"/></g></svg>