<svg xmlns="http://www.w3.org/2000/svg" style="isolation:isolate" viewBox="44 38 12 23"><defs/><path fill="#E8E8E8" d="M49.7 42.45q-.56 0-1.1.32t-.96 1.11q-.42.79-.68 2.12-.26 1.33-.26 3.35t.26 3.35q.26 1.33.7 2.12.44.79 1.02 1.11.58.32 1.22.32.52 0 1.06-.28t.99-.78q.45-.5.76-1.18.31-.68.39-1.46h.3q-.08.9-.4 1.65-.32.75-.81 1.3-.49.55-1.13.85-.64.3-1.36.3-.94 0-1.82-.45-.88-.45-1.57-1.36-.69-.91-1.1-2.28-.41-1.37-.41-3.21 0-1.84.41-3.21.41-1.37 1.08-2.28.67-.91 1.51-1.36.84-.45 1.7-.45.48 0 .87.16t.67.36q.32.22.56.5.16-.3.43-.57.27-.27.57-.35h.3q-.04.3-.06.6-.02.28-.03.59-.01.31-.01.61 0 .34.01.67t.03.61q.02.32.06.62h-.3q-.46-1.66-1.23-2.53-.77-.87-1.67-.87z"/></svg>