<?xml version="1.0" encoding="UTF-8" standalone="no"?><!-- Generator: Gravit.io --><svg xmlns="http://www.w3.org/2000/svg" xmlns:xlink="http://www.w3.org/1999/xlink" style="isolation:isolate" viewBox="30 4 40 93" width="40pt" height="93pt"><g><path d=" M 51.811 6.257 Q 51.906 6.259 52 6.261 Q 30.074 6.711 32 26.25 L 37 96.25 L 38 96.25 L 36 96.25 L 31 26.25 Q 29.169 7.672 47.996 6.351 L 48 6.25 C 48 5.146 48.896 4.25 50 4.25 C 51.104 4.25 52 5.146 52 6.25 L 51.811 6.257 Z " fill="rgb(235,235,235)" fill-opacity="0.66"/><path d=" M 41.233 15.697 Q 38.026 20.43 38.441 28.643 L 40.127 96.25 L 39.186 96.25 L 34.305 27.922 C 33.563 20.392 35.428 15.041 39.942 11.901 L 41.233 15.697 L 41.233 15.697 Z " fill="rgb(235,235,235)" fill-opacity="0.66"/><path d=" M 64.939 21.643 L 63.253 96.25 L 64.194 96.25 L 69.075 27.922 C 69.817 20.392 68.847 12.125 60.438 8.901 L 61.147 13.697 Q 65.121 16.013 64.939 21.643 Z " fill="rgb(235,235,235)" fill-opacity="0.66"/><path d=" M 53.09 7.206 Q 46.575 6.36 40.78 9.66 Q 47.802 7.333 53.259 8.222 L 53.09 7.206 Z " fill="rgb(255,255,255)" fill-opacity="0.66"/><linearGradient id="_lgradient_15" x1="0.5" y1="0" x2="0.5000000000000001" y2="0.9999999999999998" gradientTransform="matrix(40,0,0,93,30,4)" gradientUnits="userSpaceOnUse"><stop offset="0%" stop-opacity="1" style="stop-color:rgb(12,12,12)"/><stop offset="12.760536639381915%" stop-opacity="1" style="stop-color:rgb(207,207,207)"/><stop offset="80.8104651638059%" stop-opacity="1" style="stop-color:rgb(235,235,235)"/><stop offset="100%" stop-opacity="1" style="stop-color:rgb(0,0,0)"/></linearGradient><path d=" M 47.501 6.319 Q 28.145 7.425 30 26.25 L 35 96.25 L 65 96.25 L 70 26.25 Q 71.855 7.425 52.499 6.319 C 52.5 6.296 52.5 6.273 52.5 6.25 C 52.5 4.87 51.38 3.75 50 3.75 C 48.62 3.75 47.5 4.87 47.5 6.25 C 47.5 6.273 47.5 6.296 47.501 6.319 Z " fill-rule="evenodd" fill="url(#_lgradient_15)" fill-opacity="0.5"/></g></svg>