<?xml version="1.0" encoding="UTF-8" standalone="no"?><!-- Generator: Gravit.io --><svg xmlns="http://www.w3.org/2000/svg" xmlns:xlink="http://www.w3.org/1999/xlink" style="isolation:isolate" viewBox="2 14 95 72" width="95pt" height="72pt"><g><path d=" M 94.391 38.062 C 96.739 36.475 98.097 34.392 97.586 32.88 C 96.935 30.958 93.509 30.681 89.939 32.262 C 86.368 33.843 83.998 36.688 84.648 38.61 C 84.763 38.95 84.966 39.24 85.241 39.476 C 86.28 39.01 87.474 38.621 88.755 38.344 C 90.856 37.891 92.832 37.816 94.391 38.062 Z " fill-rule="evenodd" fill="rgb(235,235,235)"/><g><path d="M 37 64 L 40 64 C 41 64 41 65 41 65 L 41 80 C 41 81 41 81 40 81 L 37 81 C 36 81 36 81 36 80 L 36 65 C 36 65 36 64 37 64 Z" style="stroke:none;fill:#EBEBEB;stroke-miterlimit:10;"/><path d=" M 37.681 77.256 L 39.36 77.909 C 40.073 78.187 40.417 78.986 40.126 79.694 L 38.219 84.345 C 37.929 85.053 37.074 85.593 36.31 85.551 L 33.12 85.375 C 32.356 85.333 32.033 84.753 32.399 84.081 L 35.727 77.971 C 36.092 77.299 36.968 76.979 37.681 77.256 Z " fill="rgb(235,235,235)"/><rect x="35" y="64" width="4" height="9" transform="matrix(1,0,0,1,-15,10)" fill="rgb(235,235,235)"/><path d=" M 45.376 77.493 L 47.055 78.147 C 47.768 78.424 48.111 79.224 47.821 79.932 L 45.914 84.582 C 45.624 85.29 44.768 85.831 44.004 85.788 L 40.814 85.612 C 40.051 85.57 39.728 84.991 40.093 84.319 L 43.421 78.208 C 43.787 77.536 44.663 77.216 45.376 77.493 Z " fill="rgb(235,235,235)"/><rect x="43" y="65" width="4" height="9" transform="matrix(1,0,0,1,-15,12)" fill="rgb(235,235,235)"/><path d="M 69 60 L 71 60 C 72 60 73 61 72 62 L 70 79 C 69 80 68 81 68 81 L 65 80 C 64 80 63 79 64 78 L 67 61 C 67 60 68 60 69 60 Z" style="stroke:none;fill:#EBEBEB;stroke-miterlimit:10;"/><path d=" M 65.778 75.538 L 67.749 76.304 C 68.585 76.63 68.988 77.568 68.648 78.399 L 66.41 83.856 C 66.069 84.687 65.065 85.321 64.169 85.272 L 60.426 85.065 C 59.529 85.016 59.15 84.336 59.58 83.547 L 63.484 76.376 C 63.914 75.588 64.942 75.212 65.778 75.538 Z " fill="rgb(235,235,235)"/><rect x="64" y="60" width="4" height="10" transform="matrix(1,0,0,1,-13,17)" fill="rgb(235,235,235)"/><path d="M 76 60 L 79 60 C 80 60 80 61 80 62 L 78 79 C 78 80 77 81 76 81 L 74 81 C 73 80 72 80 72 79 L 74 62 C 74 61 75 60 76 60 Z" style="stroke:none;fill:#EBEBEB;stroke-miterlimit:10;"/><path d=" M 74.684 75.816 L 76.655 76.583 C 77.491 76.908 77.894 77.847 77.554 78.678 L 75.316 84.135 C 74.975 84.966 73.971 85.6 73.075 85.55 L 69.332 85.344 C 68.435 85.295 68.056 84.614 68.485 83.826 L 72.39 76.655 C 72.82 75.867 73.847 75.491 74.684 75.816 Z " fill="rgb(235,235,235)"/><rect x="72" y="61" width="4" height="10" transform="matrix(1,0,0,1,-13,19)" fill="rgb(235,235,235)"/><path d="M 45 64 L 47 64 C 48 64 49 65 49 66 L 49 80 C 49 81 48 82 47 82 L 45 82 C 44 82 43 81 43 80 L 43 66 C 43 65 44 64 45 64 Z" style="stroke:none;fill:#EBEBEB;stroke-miterlimit:10;"/></g><path d=" M 23.1 52.916 C 22.673 52.312 22.43 51.574 22.43 50.78 C 22.43 49.495 23.068 48.357 24.051 47.676 C 23.981 47.139 23.952 46.593 23.952 46.042 C 23.952 45.574 23.973 45.11 24.021 44.651 C 21.563 43.29 19.891 40.672 19.891 37.666 C 19.891 33.277 23.455 29.713 27.844 29.713 C 29.09 29.713 30.269 30 31.312 30.524 C 31.253 30.292 31.228 30.048 31.228 29.798 C 31.228 27.696 32.934 25.991 35.036 25.991 C 35.467 25.991 35.882 26.062 36.267 26.199 C 36.179 25.891 36.136 25.565 36.136 25.229 C 36.136 23.128 37.841 21.422 39.943 21.422 C 41.767 21.422 43.293 22.707 43.652 24.425 C 44.181 22.968 45.58 21.929 47.219 21.929 C 48.643 21.929 49.885 22.713 50.535 23.873 C 51.165 23.394 51.952 23.114 52.803 23.114 C 53.351 23.114 53.873 23.23 54.339 23.448 C 54.537 21.411 56.256 19.814 58.344 19.814 C 60.342 19.814 62.001 21.275 62.302 23.189 C 62.88 22.817 63.57 22.606 64.309 22.606 C 65.757 22.606 67.017 23.416 67.665 24.604 C 68.328 23.506 69.533 22.776 70.908 22.776 C 73.009 22.776 74.715 24.481 74.715 26.583 C 74.715 26.652 74.714 26.721 74.709 26.79 C 75.806 27.059 76.714 27.806 77.2 28.8 C 77.894 28.01 78.912 27.513 80.045 27.513 C 82.147 27.513 83.853 29.219 83.853 31.321 C 83.853 32.453 83.357 33.471 82.564 34.159 C 84.331 35.022 85.545 36.838 85.545 38.935 C 85.545 40.063 85.194 41.109 84.584 41.962 C 86.38 42.261 87.745 43.824 87.745 45.703 C 87.745 46.7 87.361 47.608 86.729 48.283 C 86.838 48.646 86.898 49.029 86.898 49.426 C 86.898 50.881 86.08 52.147 84.875 52.781 C 85.604 53.466 86.052 54.44 86.052 55.518 C 86.052 57.619 84.346 59.325 82.245 59.325 C 81.587 59.325 80.968 59.158 80.432 58.858 C 80.566 59.242 80.638 59.656 80.638 60.086 C 80.638 61.26 80.105 62.311 79.271 63.013 C 79.071 65.68 76.841 67.785 74.123 67.785 C 72.877 67.785 71.734 67.343 70.835 66.614 C 70.338 67.361 69.581 67.918 68.686 68.142 C 68.042 69.338 66.777 70.154 65.324 70.154 C 64.085 70.154 62.983 69.561 62.291 68.641 C 61.923 68.936 61.5 69.164 61.037 69.302 C 60.006 70.5 58.478 71.258 56.775 71.258 C 54.982 71.258 53.384 70.417 52.366 69.1 C 51.36 70.56 49.675 71.508 47.771 71.508 C 45.432 71.508 43.425 70.079 42.59 68.039 C 41.577 67.848 40.709 67.251 40.174 66.414 C 39.515 67.539 38.294 68.293 36.897 68.293 C 34.796 68.293 33.09 66.587 33.09 64.486 C 33.09 64.4 33.093 64.314 33.097 64.229 C 33.067 64.232 33.036 64.232 33.005 64.232 C 30.904 64.232 29.198 62.526 29.198 60.425 C 29.198 60.352 29.2 60.28 29.207 60.209 C 28.678 60.406 28.104 60.509 27.506 60.509 C 24.704 60.509 22.43 58.235 22.43 55.433 C 22.43 54.517 22.673 53.657 23.1 52.916 Z " fill-rule="evenodd" fill="rgb(235,235,235)"/><path d=" M 26.461 24.271 C 25.391 22.463 27.557 19.199 31.294 16.988 C 35.032 14.777 38.935 14.45 40.005 16.259 C 41.075 18.067 38.909 21.33 35.171 23.542 C 31.434 25.753 27.531 26.08 26.461 24.271 Z " fill="rgb(235,235,235)"/><path d=" M 2.487 16.965 C 3.373 15.06 7.289 15 11.226 16.831 C 15.164 18.662 17.642 21.696 16.756 23.601 C 15.87 25.506 11.953 25.566 8.016 23.735 C 4.078 21.904 1.601 18.871 2.487 16.965 Z " fill="rgb(235,235,235)"/><path d=" M 29.348 26.649 C 29.389 26.286 29.396 25.918 29.373 25.545 C 29.286 24.198 28.8 22.951 28.007 21.874 C 28.164 21.431 28.23 20.948 28.198 20.449 C 28.078 18.575 26.618 17.103 24.809 16.918 C 24.32 15.258 22.731 14.102 20.932 14.217 C 19.957 14.28 19.091 14.705 18.461 15.356 C 17.734 14.69 16.747 14.316 15.686 14.384 C 13.589 14.518 11.996 16.33 12.13 18.427 C 12.164 18.953 12.303 19.447 12.536 19.884 C 9.983 21.537 8.425 24.103 8.602 26.876 C 8.668 27.895 8.962 28.857 9.444 29.731 C 6.161 36.914 7.455 44.569 12.397 46.921 C 17.409 49.306 24.287 45.34 27.747 38.07 C 29.633 34.106 30.116 29.972 29.348 26.649 Z " fill-rule="evenodd" fill="rgb(235,235,235)"/></g></svg>