<?xml version="1.0" encoding="UTF-8" standalone="no"?>
<!-- Generator: Gravit.io -->
<svg xmlns="http://www.w3.org/2000/svg" xmlns:xlink="http://www.w3.org/1999/xlink" style="isolation:isolate" viewBox="212.5 208.501 53.999 54.997" width="53.999pt" height="54.997pt"><g><path d=" M 240 224.896 L 240 224.896 L 240 224.896 Q 241.083 224.896 241.792 225.646 L 241.792 225.646 L 241.792 225.646 Q 242.5 226.396 242.5 227.813 L 242.5 227.813 L 240.625 248.021 L 239.375 248.021 L 237.5 227.813 L 237.5 227.813 Q 237.5 226.396 238.208 225.646 L 238.208 225.646 L 238.208 225.646 Q 238.917 224.896 240 224.896 Z  M 237.708 252.813 L 237.708 252.813 L 237.708 252.813 Q 237.708 251.854 238.375 251.188 L 238.375 251.188 L 238.375 251.188 Q 239.042 250.521 240 250.521 L 240 250.521 L 240 250.521 Q 240.958 250.521 241.625 251.188 L 241.625 251.188 L 241.625 251.188 Q 242.292 251.854 242.292 252.813 L 242.292 252.813 L 242.292 252.813 Q 242.292 253.771 241.625 254.438 L 241.625 254.438 L 241.625 254.438 Q 240.958 255.104 240 255.104 L 240 255.104 L 240 255.104 Q 239.042 255.104 238.375 254.438 L 238.375 254.438 L 238.375 254.438 Q 237.708 253.771 237.708 252.813 Z " fill="rgb(0,0,0)"/><line x1="240" y1="221" x2="240" y2="210" vector-effect="non-scaling-stroke" stroke-width="3" stroke="rgb(0,0,0)" stroke-linejoin="miter" stroke-linecap="square" stroke-miterlimit="3"/><line x1="232" y1="240" x2="214" y2="240" vector-effect="non-scaling-stroke" stroke-width="3" stroke="rgb(0,0,0)" stroke-linejoin="miter" stroke-linecap="square" stroke-miterlimit="3"/><line x1="265" y1="240" x2="247" y2="240" vector-effect="non-scaling-stroke" stroke-width="3" stroke="rgb(0,0,0)" stroke-linejoin="miter" stroke-linecap="square" stroke-miterlimit="3"/><line x1="240" y1="262" x2="240" y2="259" vector-effect="non-scaling-stroke" stroke-width="3" stroke="rgb(0,0,0)" stroke-linejoin="miter" stroke-linecap="square" stroke-miterlimit="3"/><g><line x1="254" y1="231" x2="245" y2="240" vector-effect="non-scaling-stroke" stroke-width="2" stroke="rgb(0,0,0)" stroke-linejoin="miter" stroke-linecap="square" stroke-miterlimit="3"/><line x1="245" y1="240" x2="254" y2="249" vector-effect="non-scaling-stroke" stroke-width="2" stroke="rgb(0,0,0)" stroke-linejoin="miter" stroke-linecap="square" stroke-miterlimit="3"/><line x1="260" y1="235" x2="255" y2="240" vector-effect="non-scaling-stroke" stroke-width="2" stroke="rgb(0,0,0)" stroke-linejoin="miter" stroke-linecap="square" stroke-miterlimit="3"/><line x1="255" y1="240" x2="260" y2="245" vector-effect="non-scaling-stroke" stroke-width="2" stroke="rgb(0,0,0)" stroke-linejoin="miter" stroke-linecap="square" stroke-miterlimit="3"/></g><g><line x1="235" y1="215" x2="240" y2="220" vector-effect="non-scaling-stroke" stroke-width="2" stroke="rgb(0,0,0)" stroke-linejoin="miter" stroke-linecap="square" stroke-miterlimit="3"/><line x1="240" y1="220" x2="245" y2="215" vector-effect="non-scaling-stroke" stroke-width="2" stroke="rgb(0,0,0)" stroke-linejoin="miter" stroke-linecap="square" stroke-miterlimit="3"/></g><g><line x1="225" y1="249" x2="234" y2="240" vector-effect="non-scaling-stroke" stroke-width="2" stroke="rgb(0,0,0)" stroke-linejoin="miter" stroke-linecap="square" stroke-miterlimit="3"/><line x1="234" y1="240" x2="225" y2="231" vector-effect="non-scaling-stroke" stroke-width="2" stroke="rgb(0,0,0)" stroke-linejoin="miter" stroke-linecap="square" stroke-miterlimit="3"/><line x1="219" y1="245" x2="224" y2="240" vector-effect="non-scaling-stroke" stroke-width="2" stroke="rgb(0,0,0)" stroke-linejoin="miter" stroke-linecap="square" stroke-miterlimit="3"/><line x1="224" y1="240" x2="219" y2="235" vector-effect="non-scaling-stroke" stroke-width="2" stroke="rgb(0,0,0)" stroke-linejoin="miter" stroke-linecap="square" stroke-miterlimit="3"/></g></g></svg>