<?xml version="1.0" encoding="UTF-8" standalone="no"?><!-- Generator: Gravit.io --><svg xmlns="http://www.w3.org/2000/svg" xmlns:xlink="http://www.w3.org/1999/xlink" style="isolation:isolate" viewBox="43 34 15 31" width="15pt" height="31pt"><g><path d=" M 45.645 36.892 C 49.073 36.892 46.847 62.477 50.707 62.477 C 54.566 62.477 52.216 36.911 55.707 36.894" fill="none" vector-effect="non-scaling-stroke" stroke-width="5" stroke="rgb(232,232,232)" stroke-opacity="0.25" stroke-linejoin="round" stroke-linecap="round" stroke-miterlimit="3"/><g><linearGradient id="_lgradient_16" x1="-0.262498487752886" y1="0.49923055766860536" x2="0.6509409756376454" y2="0.7081789099752367" gradientTransform="matrix(-1,0,0,8,50,52)" gradientUnits="userSpaceOnUse"><stop offset="0%" stop-opacity="1" style="stop-color:rgb(255,255,255)"/><stop offset="100%" stop-opacity="0" style="stop-color:rgb(255,255,255)"/></linearGradient><path d=" M 49.744 51.953 Q 50.824 57.674 50.059 59.894 Q 49.636 61.12 49.424 58.498 L 48.779 53.212 L 49.744 51.953 Z " fill="url(#_lgradient_16)"/><linearGradient id="_lgradient_17" x1="-0.262498487752886" y1="0.49923055766860536" x2="0.6509409756376454" y2="0.7081789099752367" gradientTransform="matrix(1,0,1,11,49,41)" gradientUnits="userSpaceOnUse"><stop offset="0%" stop-opacity="1" style="stop-color:rgb(255,255,255)"/><stop offset="100%" stop-opacity="0" style="stop-color:rgb(255,255,255)"/></linearGradient><path d=" M 48.839 40.572 Q 49.113 47.94 49.93 50.676 Q 50.382 52.189 50.086 48.84 L 49.622 42.069 L 48.839 40.572 Z " fill="url(#_lgradient_17)"/><linearGradient id="_lgradient_18" x1="0.36975086021114145" y1="-0.030710050698782965" x2="0.3683233944732082" y2="1.0129797129234903" gradientTransform="matrix(0,0,-1,-7,51,59)" gradientUnits="userSpaceOnUse"><stop offset="0%" stop-opacity="0" style="stop-color:rgb(255,255,255)"/><stop offset="46.52173913043478%" stop-opacity="1" style="stop-color:rgb(255,255,255)"/><stop offset="100%" stop-opacity="0" style="stop-color:rgb(255,255,255)"/></linearGradient><path d=" M 51.427 58.689 Q 50.854 53.371 50.732 51.878 C 50.64 50.758 50.462 52.539 50.658 54.791 Q 50.854 57.044 51.427 58.689 Z " fill="url(#_lgradient_18)"/><linearGradient id="_lgradient_19" x1="0.5" y1="1.0000000000000018" x2="0.49999999999999983" y2="0" gradientTransform="matrix(1,0,-1,6,52,39)" gradientUnits="userSpaceOnUse"><stop offset="0%" stop-opacity="0" style="stop-color:rgb(253,253,253)"/><stop offset="50.800000000000125%" stop-opacity="1" style="stop-color:rgb(235,235,235)"/><stop offset="100%" stop-opacity="0" style="stop-color:rgb(255,255,255)"/></linearGradient><path d=" M 51.735 42.571 C 51.964 40.785 52.396 39.367 52.698 39.406 C 53 39.444 53.059 40.926 52.829 42.712 C 52.6 44.498 52.168 45.916 51.866 45.878 C 51.564 45.839 51.505 44.357 51.735 42.571 Z " fill="url(#_lgradient_19)"/><defs><filter id="kTjDvH36blSt0KKXR6vguz0moCRHWKnk" x="-200%" y="-200%" width="400%" height="400%" filterUnits="objectBoundingBox" color-interpolation-filters="sRGB"><feGaussianBlur xmlns="http://www.w3.org/2000/svg" stdDeviation="2.146804531419514"/></filter></defs><g filter="url(#kTjDvH36blSt0KKXR6vguz0moCRHWKnk)"><path d=" M 51.244 48.75 C 51.505 45.859 51.688 43.509 51.652 43.506 C 51.616 43.503 51.375 45.847 51.114 48.738 C 50.853 51.629 50.67 53.978 50.706 53.982 C 50.742 53.985 50.983 51.641 51.244 48.75 Z " fill="rgb(0,0,0)" fill-opacity="0.2"/></g><path d=" M 46.057 49.347 C 45.727 44.491 45.424 40.551 45.381 40.554 C 45.338 40.557 45.571 44.502 45.902 49.358 C 46.232 54.214 46.534 58.154 46.577 58.151 C 46.62 58.148 46.387 54.203 46.057 49.347 Z " fill="rgb(0,0,0)" fill-opacity="0.25"/><linearGradient id="_lgradient_20" x1="0.5" y1="1.0000000000000018" x2="0.49999999999999983" y2="0" gradientTransform="matrix(1,0,-1,5,54,41)" gradientUnits="userSpaceOnUse"><stop offset="0%" stop-opacity="0" style="stop-color:rgb(253,253,253)"/><stop offset="50.800000000000125%" stop-opacity="1" style="stop-color:rgb(235,235,235)"/><stop offset="100%" stop-opacity="0" style="stop-color:rgb(255,255,255)"/></linearGradient><path d=" M 53.7 43.243 C 53.885 41.803 54.149 40.648 54.289 40.666 C 54.429 40.684 54.392 41.868 54.207 43.308 C 54.022 44.749 53.758 45.903 53.618 45.886 C 53.478 45.868 53.515 44.684 53.7 43.243 Z " fill="url(#_lgradient_20)"/><linearGradient id="_lgradient_21" x1="0.5" y1="1.0000000000000018" x2="0.49999999999999983" y2="0" gradientTransform="matrix(0,0,-1,1,53,61)" gradientUnits="userSpaceOnUse"><stop offset="0%" stop-opacity="0" style="stop-color:rgb(253,253,253)"/><stop offset="50.800000000000125%" stop-opacity="1" style="stop-color:rgb(235,235,235)"/><stop offset="100%" stop-opacity="0" style="stop-color:rgb(255,255,255)"/></linearGradient><path d=" M 52.701 62.045 C 52.927 61.828 52.949 61.467 53.064 61.587 C 53.179 61.707 53.174 62.07 52.947 62.287 C 52.72 62.503 52.2 62.37 52.085 62.25 C 51.97 62.13 52.474 62.261 52.701 62.045 Z " fill="url(#_lgradient_21)"/><linearGradient id="_lgradient_22" x1="0.5" y1="1.0000000000000018" x2="0.49999999999999983" y2="0" gradientTransform="matrix(0,4,-7,0,54,61)" gradientUnits="userSpaceOnUse"><stop offset="0%" stop-opacity="0" style="stop-color:rgb(253,253,253)"/><stop offset="50.800000000000125%" stop-opacity="1" style="stop-color:rgb(235,235,235)"/><stop offset="100%" stop-opacity="0" style="stop-color:rgb(255,255,255)"/></linearGradient><path d=" M 50.485 63.11 C 52.255 63.018 54.203 61.408 54.125 62.352 C 54.047 63.297 52.803 64.918 50.76 64.996 C 48.716 65.074 47.138 62.661 47.089 61.721 C 47.04 60.782 48.716 63.203 50.485 63.11 Z " fill="url(#_lgradient_22)" fill-opacity="0.25"/><linearGradient id="_lgradient_23" x1="0.1962093500086297" y1="0.5212409753799854" x2="1" y2="0.4999999999999999" gradientTransform="matrix(0,-2,4,0,44,37)" gradientUnits="userSpaceOnUse"><stop offset="0%" stop-opacity="0" style="stop-color:rgb(0,0,0)"/><stop offset="100%" stop-opacity="1" style="stop-color:rgb(0,0,0)"/></linearGradient><path d=" M 46.015 36.294 C 44.976 36.294 43.786 37.315 43.86 36.679 C 43.935 36.042 44.545 35.008 45.912 35.008 C 47.112 35.008 47.597 36.178 47.597 36.816 C 47.597 37.454 47.055 36.294 46.015 36.294 Z " fill="url(#_lgradient_23)" fill-opacity="0.25"/><linearGradient id="_lgradient_24" x1="0.5" y1="-1.4210854715202004e-14" x2="0.5000000000000001" y2="1" gradientTransform="matrix(1,0,0,1,51,62)" gradientUnits="userSpaceOnUse"><stop offset="0%" stop-opacity="0.5" style="stop-color:rgb(235,235,235)"/><stop offset="97.82608695652173%" stop-opacity="0" style="stop-color:rgb(255,255,255)"/></linearGradient><path d=" M 52.209 63.807 L 51.826 63.863 L 51.442 63.905 L 51.537 63.144 L 51.638 62.39 L 51.926 63.094 L 52.209 63.807 Z " fill="url(#_lgradient_24)"/><path d=" M 52.013 41.361 Q 52.138 40.328 52.312 39.682 C 52.485 39.036 52.873 38.987 53.155 39.174 C 53.744 39.564 53.819 38.488 52.923 38.336 Q 51.942 38.169 52.013 41.361 Z " fill="rgb(255,255,255)" fill-opacity="0.33"/><circle vector-effect="non-scaling-stroke" cx="45.72263760637787" cy="36.89004175157072" r="1.8877472831581201" fill="rgb(0,0,0)" fill-opacity="0.1"/><linearGradient id="_lgradient_25" x1="0.17041251801195045" y1="0.01694107837776121" x2="0.6564972405290883" y2="0.34347711049573626" gradientTransform="matrix(2,0,0,9,44,37)" gradientUnits="userSpaceOnUse"><stop offset="0%" stop-opacity="1" style="stop-color:rgb(255,255,255)"/><stop offset="100%" stop-opacity="0.33" style="stop-color:rgb(255,255,255)"/></linearGradient><path d=" M 44.571 38.329 Q 43.88 37.96 43.924 37.271 C 43.95 36.874 44.206 36.627 44.65 36.671 C 45.061 36.712 45.44 37.106 45.566 37.571 C 45.934 38.932 45.975 45.731 45.89 46.071 C 45.805 46.412 45.257 39.811 45.074 39.256 Q 44.792 38.394 44.571 38.329 Z " fill="url(#_lgradient_25)"/><linearGradient id="_lgradient_26" x1="0.1962093500086297" y1="0.5212409753799854" x2="1" y2="0.4999999999999999" gradientTransform="matrix(1,1,-2,1,48,38)" gradientUnits="userSpaceOnUse"><stop offset="0%" stop-opacity="0" style="stop-color:rgb(0,0,0)"/><stop offset="100%" stop-opacity="1" style="stop-color:rgb(0,0,0)"/></linearGradient><path d=" M 47.242 38.869 C 47.884 38.457 48.242 37.399 48.431 37.794 C 48.62 38.19 48.624 39.025 47.78 39.567 C 47.039 40.042 46.309 39.562 46.074 39.196 C 45.838 38.83 46.601 39.281 47.242 38.869 Z " fill="url(#_lgradient_26)" fill-opacity="0.25"/><linearGradient id="_lgradient_27" x1="0.33463787298865627" y1="0.6635651680002878" x2="0.5070314925086824" y2="0.52488357074495" gradientTransform="matrix(6,0,0,18,46,46)" gradientUnits="userSpaceOnUse"><stop offset="1.3043478260869565%" stop-opacity="0.5" style="stop-color:rgb(255,255,255)"/><stop offset="100%" stop-opacity="0" style="stop-color:rgb(255,255,255)"/></linearGradient><path d=" M 46.405 51.65 L 45.841 45.652 Q 46.147 51.557 46.156 51.821 C 46.383 58.356 47.41 62.235 48.85 63.08 C 51.941 64.895 50.88 62.739 50.403 62.079 Q 48.856 59.837 48.345 53.687 L 46.405 51.65 Z " fill="url(#_lgradient_27)"/><linearGradient id="_lgradient_28" x1="0.1962093500086297" y1="0.5212409753799854" x2="1" y2="0.4999999999999999" gradientTransform="matrix(0,0,-1,1,53,61)" gradientUnits="userSpaceOnUse"><stop offset="0%" stop-opacity="0" style="stop-color:rgb(0,0,0)"/><stop offset="100%" stop-opacity="1" style="stop-color:rgb(0,0,0)"/></linearGradient><path d=" M 52.427 61.86 C 52.624 61.648 52.676 61.244 52.77 61.36 C 52.865 61.477 52.925 61.765 52.666 62.043 C 52.438 62.287 52.147 62.2 52.038 62.099 C 51.929 61.997 52.23 62.071 52.427 61.86 Z " fill="url(#_lgradient_28)" fill-opacity="0.25"/></g></g></svg>