<?xml version="1.0" encoding="UTF-8" standalone="no"?><!-- Generator: Gravit.io --><svg xmlns="http://www.w3.org/2000/svg" xmlns:xlink="http://www.w3.org/1999/xlink" style="isolation:isolate" viewBox="12 0 73 99" width="73pt" height="99pt"><g><path d=" M 48.922 96.651 Q 48.383 77.203 53.011 58.06 L 59.529 59.131 Q 50.059 73.829 48.922 96.651 Z " fill="rgb(209,209,209)"/><path d=" M 36.599 69.267 Q 35.333 61.176 34.888 51.487 L 35.806 51.395 Q 35.581 59.214 36.599 69.267 L 36.599 69.267 Z  M 48.205 99.207 Q 31.116 78.905 30.537 49.877 L 47.648 45.536 Q 37.269 71.538 48.205 99.207 L 48.205 99.207 Z  M 39.035 71.516 Q 38.706 63.293 39.373 53.623 L 40.293 53.682 Q 39.176 61.39 39.035 71.516 Z " fill-rule="evenodd" fill="rgb(209,209,209)"/><path d=" M 48.017 96.363 Q 38.133 69.724 47.646 42.69 L 66.115 46.618 Q 46.792 65.783 48.017 96.363 Z  M 47.411 73.656 Q 47.828 65.437 49.446 55.902 L 50.424 56.075 Q 48.509 63.603 47.411 73.656 Z " fill-rule="evenodd" fill="rgb(209,209,209)"/><path d=" M 35.196 51.086 C 36.141 52.461 37.727 53.359 39.521 53.359 C 41.738 53.359 43.637 51.989 44.401 50.042 C 48.1 51.554 51.894 50.948 53.395 48.423 C 54.016 47.379 54.16 46.147 53.877 44.88 C 56.684 42.461 58.365 39.378 58.365 36.022 C 58.365 28.247 49.343 21.935 38.23 21.935 C 37.408 21.935 36.598 21.97 35.806 22.046 L 35.806 22.046 C 34.854 21.02 33.493 20.386 31.984 20.386 C 30.371 20.386 28.926 21.111 27.968 22.261 C 27.912 22.173 27.853 22.088 27.787 22.006 C 26.36 20.232 22.668 20.83 19.547 23.34 C 16.427 25.85 15.051 29.329 16.478 31.103 C 16.718 31.401 17.022 31.632 17.38 31.793 C 15.289 33.025 13.896 35.305 13.896 37.908 L 13.896 37.908 C 13.896 39.627 14.503 41.205 15.508 42.446 C 13.607 42.922 12.257 44.021 12.094 45.431 C 11.842 47.604 14.502 49.699 18.03 50.108 C 18.078 50.113 18.125 50.118 18.172 50.121 C 18.17 50.147 18.171 50.174 18.171 50.201 C 18.261 53.704 21.113 56.477 24.537 56.389 C 27.329 56.318 29.645 54.367 30.363 51.753 C 30.721 51.784 31.093 51.791 31.471 51.781 C 32.842 51.746 34.119 51.497 35.196 51.086 Z " fill-rule="evenodd" fill="rgb(185,185,185)"/><path d=" M 40.725 24.966 C 39.647 26.378 39.016 28.143 39.016 30.054 C 39.016 34.755 42.833 38.572 47.534 38.572 C 48.838 38.572 50.075 38.278 51.171 37.736 C 51.285 40.546 53.602 42.79 56.439 42.79 C 59.315 42.79 61.656 40.484 61.711 37.622 L 61.711 37.622 C 61.866 37.633 62.023 37.638 62.18 37.638 C 64.435 37.638 66.468 36.681 67.882 35.139 L 67.882 35.139 C 69.247 37.375 71.711 38.858 74.519 38.858 C 78.835 38.858 82.338 35.354 82.338 31.039 C 82.338 29.475 81.878 28.018 81.068 26.809 L 81.068 26.809 C 83.201 25.428 84.599 23.026 84.599 20.299 C 84.599 15.983 81.096 12.48 76.78 12.48 C 74.019 12.48 71.59 13.914 70.216 16.091 C 68.847 14.897 67.056 14.175 65.098 14.175 C 64.745 14.175 64.397 14.199 64.058 14.251 L 64.058 14.251 C 64.02 11.927 62.74 9.904 60.851 8.818 C 60.855 8.689 60.859 8.559 60.859 8.429 C 60.859 4.009 56.511 0.421 51.155 0.421 C 47.434 0.421 44.199 2.153 42.568 4.691 C 41.824 4.361 40.998 4.189 40.133 4.189 C 36.597 4.189 33.727 7.06 33.727 10.595 L 33.727 10.595 L 33.727 10.595 L 33.727 10.595 L 33.727 10.595 L 33.727 10.595 C 33.727 11.793 34.056 12.914 34.636 13.867 C 32.095 14.239 30.147 16.431 30.147 19.074 C 30.147 21.986 32.511 24.35 35.422 24.35 C 37.025 24.35 38.462 23.633 39.43 22.503 C 39.675 23.399 40.115 24.232 40.725 24.966 Z " fill-rule="evenodd" fill="rgb(209,209,209)"/><path d=" M 51.09 57.616 C 51.864 59.547 53.755 60.903 55.96 60.903 C 57.043 60.903 58.051 60.576 58.879 60.002 C 60.164 62.549 62.806 64.294 65.852 64.294 C 69.91 64.294 73.25 61.197 73.645 57.243 L 73.645 57.243 C 79.545 55.159 83.392 51.076 82.566 47.418 C 81.971 44.781 79.088 42.987 75.176 42.45 C 75.178 42.415 75.179 42.379 75.179 42.344 C 75.179 38.028 71.675 34.524 67.359 34.524 C 64.213 34.524 61.498 36.387 60.277 39.077 C 59.246 38.462 58.04 38.113 56.753 38.113 C 53.673 38.113 51.057 40.113 50.134 42.885 C 48.28 42.094 46.102 42.258 44.049 43.204 C 43.386 42.884 42.641 42.712 41.857 42.712 C 38.945 42.712 36.581 45.076 36.581 47.988 L 36.581 47.988 L 36.581 47.988 L 36.581 47.988 C 36.581 49.105 36.929 50.142 37.536 50.986 C 36.36 54.892 37.318 58.805 40.188 60.6 C 43.427 62.626 48.024 61.281 51.09 57.616 Z " fill-rule="evenodd" fill="rgb(235,235,235)"/></g></svg>