<?xml version="1.0" encoding="UTF-8" standalone="no"?><!-- Generator: Gravit.io --><svg xmlns="http://www.w3.org/2000/svg" xmlns:xlink="http://www.w3.org/1999/xlink" style="isolation:isolate" viewBox="38 8 24 85" width="24pt" height="85pt"><path d=" M 45 18 C 45 15.24 47.24 13 50 13 C 52.76 13 55 15.24 55 18 C 55 20.76 52.76 23 50 23 C 47.24 23 45 20.76 45 18 L 45 18 L 45 18 Z  M 45 82 C 45 79.24 47.24 77 50 77 C 52.76 77 55 79.24 55 82 C 55 84.76 52.76 87 50 87 C 47.24 87 45 84.76 45 82 L 45 82 Z  M 50 7.5 L 50 7.5 C 56.702 7.5 62.143 12.941 62.143 19.643 L 62.143 80.357 C 62.143 87.059 56.702 92.5 50 92.5 L 50 92.5 C 43.298 92.5 37.857 87.059 37.857 80.357 L 37.857 19.643 C 37.857 12.941 43.298 7.5 50 7.5 L 50 7.5 L 50 7.5 Z  M 47.5 30 L 52.5 30 L 52.5 70 L 47.5 70 L 47.5 30 Z " fill-rule="evenodd" fill="rgb(235,235,235)"/></svg>