<?xml version="1.0" encoding="UTF-8" standalone="no"?><!-- Generator: Gravit.io --><svg xmlns="http://www.w3.org/2000/svg" xmlns:xlink="http://www.w3.org/1999/xlink" style="isolation:isolate" viewBox="8 8 85 85" width="85pt" height="85pt"><path d=" M 12.643 21 C 12.643 17.137 15.779 14 19.643 14 C 23.506 14 26.643 17.137 26.643 21 C 26.643 24.863 23.506 28 19.643 28 C 15.779 28 12.643 24.863 12.643 21 L 12.643 21 L 12.643 21 L 12.643 21 Z  M 31.786 54.344 L 31.786 51.386 L 31.786 19.643 C 31.786 12.941 26.345 7.5 19.643 7.5 L 19.643 7.5 L 19.643 7.5 C 12.941 7.5 7.5 12.941 7.5 19.643 L 7.5 80.357 C 7.5 87.059 12.941 92.5 19.643 92.5 L 80.357 92.5 C 87.059 92.5 92.5 87.059 92.5 80.357 L 92.5 80.357 C 92.5 73.655 87.059 68.214 80.357 68.214 L 48.614 68.214 L 48.614 68.214 L 45.656 68.214 C 38.596 66.98 33.02 61.404 31.786 54.344 L 31.786 54.344 Z  M 79 73.357 C 82.863 73.357 86 76.494 86 80.357 C 86 84.221 82.863 87.357 79 87.357 C 75.137 87.357 72 84.221 72 80.357 C 72 76.494 75.137 73.357 79 73.357 Z " fill-rule="evenodd" fill="rgb(235,235,235)"/></svg>