<?xml version="1.0" encoding="UTF-8" standalone="no"?><!-- Generator: Gravit.io --><svg xmlns="http://www.w3.org/2000/svg" xmlns:xlink="http://www.w3.org/1999/xlink" style="isolation:isolate" viewBox="32 1 35 91" width="35pt" height="91pt"><g><path d=" M 34.788 69.284 L 64.788 69.284 C 66.167 69.284 67.288 70.404 67.288 71.784 L 67.288 71.784 C 67.288 73.164 66.167 74.284 64.788 74.284 L 34.788 74.284 C 33.408 74.284 32.288 73.164 32.288 71.784 L 32.288 71.784 C 32.288 70.404 33.408 69.284 34.788 69.284 L 34.788 69.284 L 34.788 69.284 L 34.788 69.284 L 34.788 69.284 Z  M 34.788 52.123 L 64.788 52.123 C 66.167 52.123 67.288 53.244 67.288 54.623 L 67.288 54.623 C 67.288 56.003 66.167 57.123 64.788 57.123 L 34.788 57.123 C 33.408 57.123 32.288 56.003 32.288 54.623 L 32.288 54.623 C 32.288 53.244 33.408 52.123 34.788 52.123 L 34.788 52.123 L 34.788 52.123 L 34.788 52.123 L 34.788 52.123 Z  M 34.788 86.445 L 64.788 86.445 C 66.167 86.445 67.288 87.565 67.288 88.945 L 67.288 88.945 C 67.288 90.324 66.167 91.445 64.788 91.445 L 34.788 91.445 C 33.408 91.445 32.288 90.324 32.288 88.945 L 32.288 88.945 C 32.288 87.565 33.408 86.445 34.788 86.445 L 34.788 86.445 L 34.788 86.445 L 34.788 86.445 Z  M 34.771 35 L 64.771 35 C 66.151 35 67.271 36.12 67.271 37.5 L 67.271 37.5 C 67.271 38.88 66.151 40 64.771 40 L 34.771 40 C 33.391 40 32.271 38.88 32.271 37.5 L 32.271 37.5 C 32.271 36.12 33.391 35 34.771 35 L 34.771 35 L 34.771 35 Z  M 34.771 0.716 L 64.771 0.716 C 66.151 0.716 67.271 1.836 67.271 3.216 L 67.271 3.216 C 67.271 4.596 66.151 5.716 64.771 5.716 L 34.771 5.716 C 33.391 5.716 32.271 4.596 32.271 3.216 L 32.271 3.216 C 32.271 1.836 33.391 0.716 34.771 0.716 L 34.771 0.716 Z  M 34.771 17.839 L 64.771 17.839 C 66.151 17.839 67.271 18.96 67.271 20.339 L 67.271 20.339 C 67.271 21.719 66.151 22.839 64.771 22.839 L 34.771 22.839 C 33.391 22.839 32.271 21.719 32.271 20.339 L 32.271 20.339 C 32.271 18.96 33.391 17.839 34.771 17.839 Z " fill-rule="evenodd" fill="rgb(235,235,235)"/><path d=" M 33.67 69.543 L 63.193 52.497 C 64.461 51.765 66.051 52.141 66.74 53.336 L 66.74 53.336 C 67.43 54.531 66.961 56.095 65.693 56.827 L 36.17 73.873 C 34.902 74.605 33.313 74.229 32.623 73.034 L 32.623 73.034 C 31.933 71.839 32.402 70.275 33.67 69.543 L 33.67 69.543 L 33.67 69.543 L 33.67 69.543 Z  M 33.67 86.703 L 63.193 69.658 C 64.461 68.926 66.051 69.302 66.74 70.497 L 66.74 70.497 C 67.43 71.692 66.961 73.256 65.693 73.988 L 36.17 91.033 C 34.902 91.765 33.313 91.39 32.623 90.195 L 32.623 90.195 C 31.933 89 32.402 87.435 33.67 86.703 L 33.67 86.703 L 33.67 86.703 L 33.67 86.703 Z  M 33.67 52.419 L 63.193 35.374 C 64.461 34.642 66.051 35.018 66.74 36.213 L 66.74 36.213 C 67.43 37.408 66.961 38.972 65.693 39.704 L 36.17 56.75 C 34.902 57.481 33.313 57.106 32.623 55.911 L 32.623 55.911 C 31.933 54.716 32.402 53.151 33.67 52.419 L 33.67 52.419 L 33.67 52.419 Z  M 33.653 35.259 L 63.177 18.213 C 64.444 17.481 66.034 17.857 66.724 19.052 L 66.724 19.052 C 67.414 20.247 66.944 21.811 65.677 22.543 L 36.153 39.589 C 34.885 40.321 33.296 39.945 32.606 38.75 L 32.606 38.75 C 31.916 37.555 32.385 35.991 33.653 35.259 L 33.653 35.259 Z  M 33.653 18.135 L 63.177 1.09 C 64.444 0.358 66.034 0.734 66.724 1.929 L 66.724 1.929 C 67.414 3.124 66.944 4.688 65.677 5.42 L 36.153 22.466 C 34.885 23.197 33.296 22.822 32.606 21.627 L 32.606 21.627 C 31.916 20.432 32.385 18.867 33.653 18.135 Z " fill-rule="evenodd" fill="rgb(235,235,235)"/></g></svg>