<?xml version="1.0" encoding="UTF-8" standalone="no"?><!-- Generator: Gravit.io --><svg xmlns="http://www.w3.org/2000/svg" xmlns:xlink="http://www.w3.org/1999/xlink" style="isolation:isolate" viewBox="0 20 100 50" width="100pt" height="50pt"><path d=" M 27.101 20.087 C 26.408 20.029 25.708 20 25 20 C 11.202 20 0 31.202 0 45 L 0 45 C 0 58.798 11.202 70 25 70 C 38.798 70 50 58.798 50 45 C 50 40.553 48.836 36.375 46.797 32.755 Q 75.169 32.579 100 40 Q 71.223 20.793 27.101 20.087 Z  M 14.286 45 C 14.286 39.087 19.087 34.286 25 34.286 C 30.913 34.286 35.714 39.087 35.714 45 C 35.714 50.913 30.913 55.714 25 55.714 C 19.087 55.714 14.286 50.913 14.286 45 L 14.286 45 Z " fill-rule="evenodd" fill="rgb(235,235,235)"/></svg>