<?xml version="1.0" encoding="UTF-8" standalone="no"?><!-- Generator: Gravit.io --><svg xmlns="http://www.w3.org/2000/svg" xmlns:xlink="http://www.w3.org/1999/xlink" style="isolation:isolate" viewBox="28 5 45 90" width="45pt" height="90pt"><path d=" M 43.927 73.761 L 29.01 55.109 C 27.901 53.722 27.415 52.037 27.524 50.394 C 27.51 50.214 27.5 50.033 27.5 49.849 L 27.5 9.849 C 27.5 7.09 29.74 4.849 32.5 4.849 L 32.5 4.849 C 35.26 4.849 37.5 7.09 37.5 9.849 L 37.5 41.708 L 56.287 65.199 C 56.687 65.167 57.092 65.151 57.5 65.151 C 65.779 65.151 72.5 71.872 72.5 80.151 C 72.5 88.429 65.779 95.151 57.5 95.151 C 49.221 95.151 42.5 88.429 42.5 80.151 C 42.5 77.866 43.012 75.7 43.927 73.761 Z  M 50.5 80.151 C 50.5 76.287 53.637 73.151 57.5 73.151 C 61.363 73.151 64.5 76.287 64.5 80.151 C 64.5 84.014 61.363 87.151 57.5 87.151 C 53.637 87.151 50.5 84.014 50.5 80.151 Z " fill-rule="evenodd" fill="rgb(235,235,235)"/></svg>