<?xml version="1.0" encoding="UTF-8" standalone="no"?><!-- Generator: Gravit.io --><svg xmlns="http://www.w3.org/2000/svg" xmlns:xlink="http://www.w3.org/1999/xlink" style="isolation:isolate" viewBox="38 8 24 85" width="24pt" height="85pt"><path d=" M 43 21 C 43 17.137 46.137 14 50 14 C 53.863 14 57 17.137 57 21 C 57 24.863 53.863 28 50 28 C 46.137 28 43 24.863 43 21 L 43 21 Z  M 50 7.5 L 50 7.5 C 56.702 7.5 62.143 12.941 62.143 19.643 L 62.143 80.357 C 62.143 87.059 56.702 92.5 50 92.5 L 50 92.5 C 43.298 92.5 37.857 87.059 37.857 80.357 L 37.857 19.643 C 37.857 12.941 43.298 7.5 50 7.5 L 50 7.5 Z  M 43 79 C 43 75.137 46.137 72 50 72 C 53.863 72 57 75.137 57 79 C 57 82.863 53.863 86 50 86 C 46.137 86 43 82.863 43 79 Z " fill-rule="evenodd" fill="rgb(235,235,235)"/></svg>