<?xml version="1.0" encoding="UTF-8" standalone="no"?><!-- Generator: Gravit.io --><svg xmlns="http://www.w3.org/2000/svg" xmlns:xlink="http://www.w3.org/1999/xlink" style="isolation:isolate" viewBox="13 10 77 80" width="77pt" height="80pt"><path d=" M 49.535 43 L 38.424 29.107 L 38.424 29.107 L 38.424 29.107 C 39.242 27.375 39.699 25.44 39.699 23.399 C 39.699 16.004 33.695 10 26.3 10 C 18.904 10 12.9 16.004 12.9 23.399 C 12.9 30.795 18.904 36.799 26.3 36.799 C 26.664 36.799 27.026 36.784 27.383 36.755 L 38.116 50.176 L 38.116 50.176 L 27.383 63.596 L 27.383 63.596 C 27.026 63.567 26.664 63.553 26.3 63.553 C 18.904 63.553 12.9 69.557 12.9 76.952 C 12.9 84.347 18.904 90.351 26.3 90.351 C 33.695 90.351 39.699 84.347 39.699 76.952 C 39.699 74.911 39.242 72.976 38.424 71.244 L 49.816 57 L 90 57 L 90 43 L 49.535 43 Z  M 32.553 76.952 C 32.553 73.501 29.751 70.699 26.3 70.699 C 22.848 70.699 20.047 73.501 20.047 76.952 C 20.047 80.403 22.848 83.205 26.3 83.205 C 29.751 83.205 32.553 80.403 32.553 76.952 L 32.553 76.952 L 32.553 76.952 L 32.553 76.952 L 32.553 76.952 Z  M 32.553 23.399 C 32.553 26.85 29.751 29.652 26.3 29.652 C 22.848 29.652 20.047 26.85 20.047 23.399 C 20.047 19.948 22.848 17.146 26.3 17.146 C 29.751 17.146 32.553 19.948 32.553 23.399 L 32.553 23.399 Z " fill-rule="evenodd" fill="rgb(235,235,235)"/></svg>