<svg xmlns="http://www.w3.org/2000/svg" style="isolation:isolate" viewBox="32 1 35 91"><defs/><g fill="#EBEBEB" fill-rule="evenodd"><path d="M34.788 69.284h30c1.379 0 2.5 1.12 2.5 2.5s-1.121 2.5-2.5 2.5h-30c-1.38 0-2.5-1.12-2.5-2.5s1.12-2.5 2.5-2.5zm0-17.161h30c1.379 0 2.5 1.121 2.5 2.5 0 1.38-1.121 2.5-2.5 2.5h-30c-1.38 0-2.5-1.12-2.5-2.5 0-1.379 1.12-2.5 2.5-2.5zm0 34.322h30c1.379 0 2.5 1.12 2.5 2.5 0 1.379-1.121 2.5-2.5 2.5h-30c-1.38 0-2.5-1.121-2.5-2.5 0-1.38 1.12-2.5 2.5-2.5zM34.771 35h30c1.38 0 2.5 1.12 2.5 2.5s-1.12 2.5-2.5 2.5h-30c-1.38 0-2.5-1.12-2.5-2.5s1.12-2.5 2.5-2.5zm0-34.284h30c1.38 0 2.5 1.12 2.5 2.5s-1.12 2.5-2.5 2.5h-30c-1.38 0-2.5-1.12-2.5-2.5s1.12-2.5 2.5-2.5zm0 17.123h30c1.38 0 2.5 1.121 2.5 2.5 0 1.38-1.12 2.5-2.5 2.5h-30c-1.38 0-2.5-1.12-2.5-2.5 0-1.379 1.12-2.5 2.5-2.5z"/><path d="M33.67 69.543l29.523-17.046c1.268-.732 2.858-.356 3.547.839.69 1.195.221 2.759-1.047 3.491L36.17 73.873c-1.268.732-2.857.356-3.547-.839-.69-1.195-.221-2.759 1.047-3.491zm0 17.16l29.523-17.045c1.268-.732 2.858-.356 3.547.839.69 1.195.221 2.759-1.047 3.491L36.17 91.033c-1.268.732-2.857.357-3.547-.838-.69-1.195-.221-2.76 1.047-3.492zm0-34.284l29.523-17.045c1.268-.732 2.858-.356 3.547.839.69 1.195.221 2.759-1.047 3.491L36.17 56.75c-1.268.731-2.857.356-3.547-.839-.69-1.195-.221-2.76 1.047-3.492zm-.017-17.16l29.524-17.046c1.267-.732 2.857-.356 3.547.839.69 1.195.22 2.759-1.047 3.491L36.153 39.589c-1.268.732-2.857.356-3.547-.839-.69-1.195-.221-2.759 1.047-3.491zm0-17.124L63.177 1.09c1.267-.732 2.857-.356 3.547.839.69 1.195.22 2.759-1.047 3.491L36.153 22.466c-1.268.731-2.857.356-3.547-.839-.69-1.195-.221-2.76 1.047-3.492z"/></g></svg>