<svg xmlns="http://www.w3.org/2000/svg" style="isolation:isolate" viewBox="8 8 85 85"><defs/><path fill="#EBEBEB" fill-rule="evenodd" d="M12.643 21c0-3.863 3.136-7 7-7 3.863 0 7 3.137 7 7s-3.137 7-7 7c-3.864 0-7-3.137-7-7zm19.143 33.344V19.643c0-6.702-5.441-12.143-12.143-12.143C12.941 7.5 7.5 12.941 7.5 19.643v60.714c0 6.702 5.441 12.143 12.143 12.143h60.714c6.702 0 12.143-5.441 12.143-12.143 0-6.702-5.441-12.143-12.143-12.143H45.656c-7.06-1.234-12.636-6.81-13.87-13.87zM79 73.357c3.863 0 7 3.137 7 7 0 3.864-3.137 7-7 7s-7-3.136-7-7c0-3.863 3.137-7 7-7z"/></svg>