<svg xmlns="http://www.w3.org/2000/svg" style="isolation:isolate" viewBox="13 10 77 80"><defs/><path fill="#EBEBEB" fill-rule="evenodd" d="M49.535 43L38.424 29.107c.818-1.732 1.275-3.667 1.275-5.708C39.699 16.004 33.695 10 26.3 10c-7.396 0-13.4 6.004-13.4 13.399 0 7.396 6.004 13.4 13.4 13.4.364 0 .726-.015 1.083-.044l10.733 13.421-10.733 13.42c-.357-.029-.719-.043-1.083-.043-7.396 0-13.4 6.004-13.4 13.399s6.004 13.399 13.4 13.399c7.395 0 13.399-6.004 13.399-13.399 0-2.041-.457-3.976-1.275-5.708L49.816 57H90V43H49.535zM32.553 76.952c0-3.451-2.802-6.253-6.253-6.253-3.452 0-6.253 2.802-6.253 6.253s2.801 6.253 6.253 6.253c3.451 0 6.253-2.802 6.253-6.253zm0-53.553c0 3.451-2.802 6.253-6.253 6.253-3.452 0-6.253-2.802-6.253-6.253s2.801-6.253 6.253-6.253c3.451 0 6.253 2.802 6.253 6.253z"/></svg>