<svg xmlns="http://www.w3.org/2000/svg" style="isolation:isolate" viewBox="30 4 40 93"><defs/><path fill="#EBEBEB" d="M51.811 6.257q.095.002.189.004-21.926.45-20 19.989l5 70h1-2l-5-70Q29.169 7.672 47.996 6.351L48 6.25c0-1.104.896-2 2-2s2 .896 2 2l-.189.007z"/><path fill="#EBEBEB" d="M41.233 15.697q-3.207 4.733-2.792 12.946l1.686 67.607h-.941l-4.881-68.328c-.742-7.53 1.123-12.881 5.637-16.021l1.291 3.796zm23.706 5.946L63.253 96.25h.941l4.881-68.328c.742-7.53-.228-15.797-8.637-19.021l.709 4.796q3.974 2.316 3.792 7.946z"/><path fill="#FFF" d="M53.09 7.206Q46.575 6.36 40.78 9.66q7.022-2.327 12.479-1.438l-.169-1.016z"/><linearGradient id="bulb_svg__a" x1="1" x2="1" y1="0" y2="1" gradientTransform="matrix(40 0 0 93 30 4)" gradientUnits="userSpaceOnUse"><stop offset="0%" stop-color="#0c0c0c"/><stop offset="13%" stop-color="#cfcfcf"/><stop offset="81%" stop-color="#ebebeb"/><stop offset="100%"/></linearGradient><path fill="url(#bulb_svg__a)" fill-rule="evenodd" d="M47.501 6.319Q28.145 7.425 30 26.25l5 70h30l5-70Q71.855 7.425 52.499 6.319c.001-.023.001-.046.001-.069 0-1.38-1.12-2.5-2.5-2.5s-2.5 1.12-2.5 2.5c0 .023 0 .046.001.069z"/></svg>