<svg xmlns="http://www.w3.org/2000/svg" style="isolation:isolate" viewBox="2 14 95 72"><defs/><path fill="#EBEBEB" fill-rule="evenodd" d="M94.391 38.062c2.348-1.587 3.706-3.67 3.195-5.182-.651-1.922-4.077-2.199-7.647-.618-3.571 1.581-5.941 4.426-5.291 6.348.115.34.318.63.593.866 1.039-.466 2.233-.855 3.514-1.132 2.101-.453 4.077-.528 5.636-.282z"/><path fill="#ebebeb" d="M37 64h3c1 0 1 1 1 1v15c0 1 0 1-1 1h-3c-1 0-1 0-1-1V65s0-1 1-1z"/><path fill="#EBEBEB" d="M37.681 77.256l1.679.653c.713.278 1.057 1.077.766 1.785l-1.907 4.651c-.29.708-1.145 1.248-1.909 1.206l-3.19-.176c-.764-.042-1.087-.622-.721-1.294l3.328-6.11c.365-.672 1.241-.992 1.954-.715zM20 74h4v9h-4zm25.376 3.493l1.679.654c.713.277 1.056 1.077.766 1.785l-1.907 4.65c-.29.708-1.146 1.249-1.91 1.206l-3.19-.176c-.763-.042-1.086-.621-.721-1.293l3.328-6.111c.366-.672 1.242-.992 1.955-.715zM28 77h4v9h-4z"/><path fill="#ebebeb" d="M69 60h2c1 0 2 1 1 2l-2 17-2 2-3-1c-1 0-2-1-1-2l3-17c0-1 1-1 2-1z"/><path fill="#EBEBEB" d="M65.778 75.538l1.971.766c.836.326 1.239 1.264.899 2.095l-2.238 5.457c-.341.831-1.345 1.465-2.241 1.416l-3.743-.207c-.897-.049-1.276-.729-.846-1.518l3.904-7.171c.43-.788 1.458-1.164 2.294-.838zM51 77h4v10h-4z"/><path fill="#ebebeb" d="M76 60h3c1 0 1 1 1 2l-2 17c0 1-1 2-2 2h-2c-1-1-2-1-2-2l2-17c0-1 1-2 2-2z"/><path fill="#EBEBEB" d="M74.684 75.816l1.971.767c.836.325 1.239 1.264.899 2.095l-2.238 5.457c-.341.831-1.345 1.465-2.241 1.415l-3.743-.206c-.897-.049-1.276-.73-.847-1.518l3.905-7.171c.43-.788 1.457-1.164 2.294-.839zM59 80h4v10h-4z"/><path fill="#ebebeb" d="M45 64h2c1 0 2 1 2 2v14c0 1-1 2-2 2h-2c-1 0-2-1-2-2V66c0-1 1-2 2-2z"/><path fill="#EBEBEB" fill-rule="evenodd" d="M23.1 52.916c-.427-.604-.67-1.342-.67-2.136 0-1.285.638-2.423 1.621-3.104-.07-.537-.099-1.083-.099-1.634 0-.468.021-.932.069-1.391-2.458-1.361-4.13-3.979-4.13-6.985 0-4.389 3.564-7.953 7.953-7.953 1.246 0 2.425.287 3.468.811-.059-.232-.084-.476-.084-.726 0-2.102 1.706-3.807 3.808-3.807.431 0 .846.071 1.231.208-.088-.308-.131-.634-.131-.97 0-2.101 1.705-3.807 3.807-3.807 1.824 0 3.35 1.285 3.709 3.003.529-1.457 1.928-2.496 3.567-2.496 1.424 0 2.666.784 3.316 1.944.63-.479 1.417-.759 2.268-.759.548 0 1.07.116 1.536.334.198-2.037 1.917-3.634 4.005-3.634 1.998 0 3.657 1.461 3.958 3.375.578-.372 1.268-.583 2.007-.583 1.448 0 2.708.81 3.356 1.998.663-1.098 1.868-1.828 3.243-1.828 2.101 0 3.807 1.705 3.807 3.807 0 .069-.001.138-.006.207 1.097.269 2.005 1.016 2.491 2.01.694-.79 1.712-1.287 2.845-1.287 2.102 0 3.808 1.706 3.808 3.808 0 1.132-.496 2.15-1.289 2.838 1.767.863 2.981 2.679 2.981 4.776 0 1.128-.351 2.174-.961 3.027 1.796.299 3.161 1.862 3.161 3.741 0 .997-.384 1.905-1.016 2.58.109.363.169.746.169 1.143 0 1.455-.818 2.721-2.023 3.355.729.685 1.177 1.659 1.177 2.737 0 2.101-1.706 3.807-3.807 3.807-.658 0-1.277-.167-1.813-.467.134.384.206.798.206 1.228 0 1.174-.533 2.225-1.367 2.927-.2 2.667-2.43 4.772-5.148 4.772-1.246 0-2.389-.442-3.288-1.171-.497.747-1.254 1.304-2.149 1.528-.644 1.196-1.909 2.012-3.362 2.012-1.239 0-2.341-.593-3.033-1.513-.368.295-.791.523-1.254.661-1.031 1.198-2.559 1.956-4.262 1.956-1.793 0-3.391-.841-4.409-2.158-1.006 1.46-2.691 2.408-4.595 2.408-2.339 0-4.346-1.429-5.181-3.469-1.013-.191-1.881-.788-2.416-1.625-.659 1.125-1.88 1.879-3.277 1.879-2.101 0-3.807-1.706-3.807-3.807 0-.086.003-.172.007-.257-.03.003-.061.003-.092.003-2.101 0-3.807-1.706-3.807-3.807 0-.073.002-.145.009-.216-.529.197-1.103.3-1.701.3-2.802 0-5.076-2.274-5.076-5.076 0-.916.243-1.776.67-2.517z"/><path fill="#EBEBEB" d="M26.461 24.271c-1.07-1.808 1.096-5.072 4.833-7.283 3.738-2.211 7.641-2.538 8.711-.729 1.07 1.808-1.096 5.071-4.834 7.283-3.737 2.211-7.64 2.538-8.71.729zM2.487 16.965c.886-1.905 4.802-1.965 8.739-.134 3.938 1.831 6.416 4.865 5.53 6.77-.886 1.905-4.803 1.965-8.74.134-3.938-1.831-6.415-4.864-5.529-6.77z"/><path fill="#EBEBEB" fill-rule="evenodd" d="M29.348 26.649c.041-.363.048-.731.025-1.104-.087-1.347-.573-2.594-1.366-3.671.157-.443.223-.926.191-1.425-.12-1.874-1.58-3.346-3.389-3.531-.489-1.66-2.078-2.816-3.877-2.701-.975.063-1.841.488-2.471 1.139-.727-.666-1.714-1.04-2.775-.972-2.097.134-3.69 1.946-3.556 4.043.034.526.173 1.02.406 1.457-2.553 1.653-4.111 4.219-3.934 6.992.066 1.019.36 1.981.842 2.855-3.283 7.183-1.989 14.838 2.953 17.19 5.012 2.385 11.89-1.581 15.35-8.851 1.886-3.964 2.369-8.098 1.601-11.421z"/></svg>