<svg xmlns="http://www.w3.org/2000/svg" style="isolation:isolate" viewBox="212.5 208.5 54 55"><defs/><path d="M240 224.9q1 0 1.8.7.7.8.7 2.2l-1.9 20.2h-1.2l-1.9-20.2q0-1.4.7-2.2.7-.7 1.8-.7zm-2.3 28q0-1 .7-1.7.6-.7 1.6-.7t1.6.7q.7.7.7 1.6 0 1-.7 1.6-.6.7-1.6.7t-1.6-.7q-.7-.6-.7-1.6z"/><path stroke="#000" stroke-linecap="square" stroke-miterlimit="3" stroke-width="3" d="M240 221v-11M232 240h-18M265 240h-18M240 262v-3" vector-effect="non-scaling-stroke"/><g stroke="#000" stroke-linecap="square" stroke-miterlimit="3" stroke-width="2"><path d="M254 231l-9 9M245 240l9 9M260 235l-5 5M255 240l5 5" vector-effect="non-scaling-stroke"/></g><g stroke="#000" stroke-linecap="square" stroke-miterlimit="3" stroke-width="2"><path d="M235 215l5 5M240 220l5-5" vector-effect="non-scaling-stroke"/></g><g stroke="#000" stroke-linecap="square" stroke-miterlimit="3" stroke-width="2"><path d="M225 249l9-9M234 240l-9-9M219 245l5-5M224 240l-5-5" vector-effect="non-scaling-stroke"/></g></svg>