<svg xmlns="http://www.w3.org/2000/svg" style="isolation:isolate" viewBox="43 34 15 31"><defs/><path fill="none" d="M45.645 36.892c3.428 0 1.202 25.585 5.062 25.585 3.859 0 1.509-25.566 5-25.583" vector-effect="non-scaling-stroke"/><linearGradient id="spiral_pipe_svg__a" x1="0" x2="1" y1="0" y2="1" gradientTransform="matrix(-1 0 0 8 50 52)" gradientUnits="userSpaceOnUse"><stop offset="0%" stop-color="#fff"/><stop offset="100%" stop-color="#fff" stop-opacity="0"/></linearGradient><path fill="url(#spiral_pipe_svg__a)" d="M49.744 51.953q1.08 5.721.315 7.941-.423 1.226-.635-1.396l-.645-5.286.965-1.259z"/><linearGradient id="spiral_pipe_svg__b" x1="0" x2="1" y1="0" y2="1" gradientTransform="matrix(1 0 1 11 49 41)" gradientUnits="userSpaceOnUse"><stop offset="0%" stop-color="#fff"/><stop offset="100%" stop-color="#fff" stop-opacity="0"/></linearGradient><path fill="url(#spiral_pipe_svg__b)" d="M48.839 40.572q.274 7.368 1.091 10.104.452 1.513.156-1.836l-.464-6.771-.783-1.497z"/><linearGradient id="spiral_pipe_svg__c" x1="0" x2="0" y1="0" y2="1" gradientTransform="matrix(0 0 -1 -7 51 59)" gradientUnits="userSpaceOnUse"><stop offset="0%" stop-color="#fff" stop-opacity="0"/><stop offset="47%" stop-color="#fff"/><stop offset="100%" stop-color="#fff" stop-opacity="0"/></linearGradient><path fill="url(#spiral_pipe_svg__c)" d="M51.427 58.689q-.573-5.318-.695-6.811c-.092-1.12-.27.661-.074 2.913q.196 2.253.769 3.898z"/><linearGradient id="spiral_pipe_svg__d" x1="1" x2="0" y1="1" y2="0" gradientTransform="matrix(1 0 -1 6 52 39)" gradientUnits="userSpaceOnUse"><stop offset="0%" stop-color="#fdfdfd" stop-opacity="0"/><stop offset="51%" stop-color="#ebebeb"/><stop offset="100%" stop-color="#fff" stop-opacity="0"/></linearGradient><path fill="url(#spiral_pipe_svg__d)" d="M51.735 42.571c.229-1.786.661-3.204.963-3.165.302.038.361 1.52.131 3.306-.229 1.786-.661 3.204-.963 3.166-.302-.039-.361-1.521-.131-3.307z"/><defs><filter id="spiral_pipe_svg__e" width="400%" height="400%" x="-200%" y="-200%" color-interpolation-filters="sRGB" filterUnits="objectBoundingBox"><feGaussianBlur xmlns="http://www.w3.org/2000/svg" stdDeviation="2"/></filter></defs><g filter="url(#spiral_pipe_svg__e)"><path fill="none" d="M51.244 48.75c.261-2.891.444-5.241.408-5.244-.036-.003-.277 2.341-.538 5.232s-.444 5.24-.408 5.244c.036.003.277-2.341.538-5.232z"/></g><path fill="none" d="M46.057 49.347c-.33-4.856-.633-8.796-.676-8.793-.043.003.19 3.948.521 8.804.33 4.856.632 8.796.675 8.793.043-.003-.19-3.948-.52-8.804z"/><linearGradient id="spiral_pipe_svg__f" x1="1" x2="0" y1="1" y2="0" gradientTransform="matrix(1 0 -1 5 54 41)" gradientUnits="userSpaceOnUse"><stop offset="0%" stop-color="#fdfdfd" stop-opacity="0"/><stop offset="51%" stop-color="#ebebeb"/><stop offset="100%" stop-color="#fff" stop-opacity="0"/></linearGradient><path fill="url(#spiral_pipe_svg__f)" d="M53.7 43.243c.185-1.44.449-2.595.589-2.577.14.018.103 1.202-.082 2.642-.185 1.441-.449 2.595-.589 2.578-.14-.018-.103-1.202.082-2.643z"/><linearGradient id="spiral_pipe_svg__g" x1="1" x2="0" y1="1" y2="0" gradientTransform="matrix(0 0 -1 1 53 61)" gradientUnits="userSpaceOnUse"><stop offset="0%" stop-color="#fdfdfd" stop-opacity="0"/><stop offset="51%" stop-color="#ebebeb"/><stop offset="100%" stop-color="#fff" stop-opacity="0"/></linearGradient><path fill="url(#spiral_pipe_svg__g)" d="M52.701 62.045c.226-.217.248-.578.363-.458.115.12.11.483-.117.7-.227.216-.747.083-.862-.037-.115-.12.389.011.616-.205z"/><path fill="none" d="M50.485 63.11c1.77-.092 3.718-1.702 3.64-.758-.078.945-1.322 2.566-3.365 2.644-2.044.078-3.622-2.335-3.671-3.275-.049-.939 1.627 1.482 3.396 1.389zM46.015 36.294c-1.039 0-2.229 1.021-2.155.385.075-.637.685-1.671 2.052-1.671 1.2 0 1.685 1.17 1.685 1.808 0 .638-.542-.522-1.582-.522z"/><linearGradient id="spiral_pipe_svg__h" x1="1" x2="1" y1="0" y2="1" gradientTransform="translate(51 62)" gradientUnits="userSpaceOnUse"><stop offset="0%" stop-color="#ebebeb"/><stop offset="98%" stop-color="#fff" stop-opacity="0"/></linearGradient><path fill="url(#spiral_pipe_svg__h)" d="M52.209 63.807l-.383.056-.384.042.095-.761.101-.754.288.704.283.713z"/><path fill="none" d="M52.013 41.361q.125-1.033.299-1.679c.173-.646.561-.695.843-.508.589.39.664-.686-.232-.838q-.981-.167-.91 3.025z"/><circle cx="46" cy="37" r="2" fill="none" vector-effect="non-scaling-stroke"/><linearGradient id="spiral_pipe_svg__i" x1="0" x2="1" y1="0" y2="0" gradientTransform="matrix(2 0 0 9 44 37)" gradientUnits="userSpaceOnUse"><stop offset="0%" stop-color="#fff"/><stop offset="100%" stop-color="#fff" stop-opacity="0"/></linearGradient><path fill="url(#spiral_pipe_svg__i)" d="M44.571 38.329q-.691-.369-.647-1.058c.026-.397.282-.644.726-.6.411.041.79.435.916.9.368 1.361.409 8.16.324 8.5-.085.341-.633-6.26-.816-6.815q-.282-.862-.503-.927z"/><path fill="none" d="M47.242 38.869c.642-.412 1-1.47 1.189-1.075.189.396.193 1.231-.651 1.773-.741.475-1.471-.005-1.706-.371-.236-.366.527.085 1.168-.327z"/><linearGradient id="spiral_pipe_svg__j" x1="0" x2="1" y1="1" y2="1" gradientTransform="matrix(6 0 0 18 46 46)" gradientUnits="userSpaceOnUse"><stop offset="1%" stop-color="#fff"/><stop offset="100%" stop-color="#fff" stop-opacity="0"/></linearGradient><path fill="url(#spiral_pipe_svg__j)" d="M46.405 51.65l-.564-5.998q.306 5.905.315 6.169c.227 6.535 1.254 10.414 2.694 11.259 3.091 1.815 2.03-.341 1.553-1.001q-1.547-2.242-2.058-8.392l-1.94-2.037z"/><path fill="none" d="M52.427 61.86c.197-.212.249-.616.343-.5.095.117.155.405-.104.683-.228.244-.519.157-.628.056-.109-.102.192-.028.389-.239z"/></svg>