<svg xmlns="http://www.w3.org/2000/svg" style="isolation:isolate" viewBox="12 0 73 99"><defs/><path fill="#D1D1D1" d="M48.922 96.651q-.539-19.448 4.089-38.591l6.518 1.071q-9.47 14.698-10.607 37.52z"/><path fill="#D1D1D1" fill-rule="evenodd" d="M36.599 69.267q-1.266-8.091-1.711-17.78l.918-.092q-.225 7.819.793 17.872zm11.606 29.94q-17.089-20.302-17.668-49.33l17.111-4.341q-10.379 26.002.557 53.671zm-9.17-27.691q-.329-8.223.338-17.893l.92.059q-1.117 7.708-1.258 17.834z"/><path fill="#D1D1D1" fill-rule="evenodd" d="M48.017 96.363q-9.884-26.639-.371-53.673l18.469 3.928Q46.792 65.783 48.017 96.363zm-.606-22.707q.417-8.219 2.035-17.754l.978.173q-1.915 7.528-3.013 17.581z"/><path fill="#B9B9B9" fill-rule="evenodd" d="M35.196 51.086c.945 1.375 2.531 2.273 4.325 2.273 2.217 0 4.116-1.37 4.88-3.317 3.699 1.512 7.493.906 8.994-1.619.621-1.044.765-2.276.482-3.543 2.807-2.419 4.488-5.502 4.488-8.858 0-7.775-9.022-14.087-20.135-14.087-.822 0-1.632.035-2.424.111-.952-1.026-2.313-1.66-3.822-1.66-1.613 0-3.058.725-4.016 1.875-.056-.088-.115-.173-.181-.255-1.427-1.774-5.119-1.176-8.24 1.334-3.12 2.51-4.496 5.989-3.069 7.763.24.298.544.529.902.69-2.091 1.232-3.484 3.512-3.484 6.115 0 1.719.607 3.297 1.612 4.538-1.901.476-3.251 1.575-3.414 2.985-.252 2.173 2.408 4.268 5.936 4.677.048.005.095.01.142.013-.002.026-.001.053-.001.08.09 3.503 2.942 6.276 6.366 6.188 2.792-.071 5.108-2.022 5.826-4.636.358.031.73.038 1.108.028 1.371-.035 2.648-.284 3.725-.695z"/><path fill="#D1D1D1" fill-rule="evenodd" d="M40.725 24.966c-1.078 1.412-1.709 3.177-1.709 5.088 0 4.701 3.817 8.518 8.518 8.518 1.304 0 2.541-.294 3.637-.836.114 2.81 2.431 5.054 5.268 5.054 2.876 0 5.217-2.306 5.272-5.168.155.011.312.016.469.016 2.255 0 4.288-.957 5.702-2.499 1.365 2.236 3.829 3.719 6.637 3.719 4.316 0 7.819-3.504 7.819-7.819 0-1.564-.46-3.021-1.27-4.23 2.133-1.381 3.531-3.783 3.531-6.51 0-4.316-3.503-7.819-7.819-7.819-2.761 0-5.19 1.434-6.564 3.611-1.369-1.194-3.16-1.916-5.118-1.916-.353 0-.701.024-1.04.076-.038-2.324-1.318-4.347-3.207-5.433.004-.129.008-.259.008-.389 0-4.42-4.348-8.008-9.704-8.008-3.721 0-6.956 1.732-8.587 4.27-.744-.33-1.57-.502-2.435-.502-3.536 0-6.406 2.871-6.406 6.406 0 1.198.329 2.319.909 3.272-2.541.372-4.489 2.564-4.489 5.207 0 2.912 2.364 5.276 5.275 5.276 1.603 0 3.04-.717 4.008-1.847.245.896.685 1.729 1.295 2.463z"/><path fill="#EBEBEB" fill-rule="evenodd" d="M51.09 57.616c.774 1.931 2.665 3.287 4.87 3.287 1.083 0 2.091-.327 2.919-.901 1.285 2.547 3.927 4.292 6.973 4.292 4.058 0 7.398-3.097 7.793-7.051 5.9-2.084 9.747-6.167 8.921-9.825-.595-2.637-3.478-4.431-7.39-4.968.002-.035.003-.071.003-.106 0-4.316-3.504-7.82-7.82-7.82-3.146 0-5.861 1.863-7.082 4.553-1.031-.615-2.237-.964-3.524-.964-3.08 0-5.696 2-6.619 4.772-1.854-.791-4.032-.627-6.085.319-.663-.32-1.408-.492-2.192-.492-2.912 0-5.276 2.364-5.276 5.276 0 1.117.348 2.154.955 2.998-1.176 3.906-.218 7.819 2.652 9.614 3.239 2.026 7.836.681 10.902-2.984z"/></svg>