<svg xmlns="http://www.w3.org/2000/svg" style="isolation:isolate" viewBox="44 36 12 23"><defs/><path fill="#E8E8E8" d="M47.981 39.615q-.9 0-1.4.52-.5.52-.5 1.58 0 .3.1.6.04.16.1.3l-1.7.4q-.06-.08-.1-.22-.1-.24-.1-.68 0-.56.24-1.07t.7-.89q.46-.38 1.13-.61.67-.23 1.53-.23.9 0 1.61.25.71.25 1.19.69.48.44.74 1.04.26.6.26 1.32 0 1.1-.47 1.72-.47.62-1.03.96-.66.38-1.5.52 1.04.14 1.84.62.34.2.68.5t.6.71q.26.41.42.95.16.54.16 1.22 0 .86-.33 1.61-.33.75-.93 1.3-.6.55-1.45.87-.85.32-1.89.32-.86 0-1.58-.28-.72-.28-1.23-.76t-.8-1.11q-.29-.63-.29-1.35 0-1.58.59-2.29t1.41-.71q.1 0 .21.02.11.02.21.04.1.02.18.04l-.4 1.6q-1.8 0-1.8 1.7 0 .48.25.97t.69.87q.44.38 1.04.62.6.24 1.32.24 1.36 0 2.13-.87.77-.87.77-2.83 0-2.02-.76-2.91-.76-.89-2.04-.89h-.8v-.4h.8q1.06 0 1.68-.71.62-.71.62-2.29 0-.74-.17-1.31-.17-.57-.46-.94-.29-.37-.67-.56-.38-.19-.8-.19z"/></svg>