<svg xmlns="http://www.w3.org/2000/svg" style="isolation:isolate" viewBox="43 36 13 23"><defs/><path fill="#E8E8E8" d="M50.781 46.615q0-2.1-.24-3.46-.24-1.36-.6-2.14t-.8-1.09q-.44-.31-.86-.31t-.86.31q-.44.31-.8 1.09-.36.78-.6 2.14t-.24 3.46q0 2.1.24 3.46.24 1.36.6 2.14t.8 1.09q.44.31.86.31t.86-.31q.44-.31.8-1.09.36-.78.6-2.14t.24-3.46zm1.9 0q0 1.92-.38 3.3t-1 2.27q-.62.89-1.41 1.31-.79.42-1.61.42-.82 0-1.61-.42-.79-.42-1.41-1.31-.62-.89-1-2.27t-.38-3.3q0-1.92.38-3.3t1-2.27q.62-.89 1.41-1.31.79-.42 1.61-.42.82 0 1.61.42.79.42 1.41 1.31.62.89 1 2.27t.38 3.3z"/></svg>