<svg xmlns="http://www.w3.org/2000/svg" style="isolation:isolate" viewBox="44 36 12 23"><defs/><path fill="#E8E8E8" d="M47.381 53.515q.6 0 1.16-.28.56-.28.99-.84.43-.56.69-1.41.26-.85.26-1.97 0-1.02-.29-1.81t-.8-1.35q-.51-.56-1.23-.85-.72-.29-1.58-.29-.34 0-.64.06t-.54.14q-.28.08-.52.2l1.1-5.52.2.04q.2.04.53.08t.74.07q.41.03.83.03.64 0 1.23-.06t1.05-.14q.54-.08 1.02-.2l-.02.2q-.76.84-2.1 1.27-1.34.43-3.38.43l-.6 3q.2-.04.44-.1.22-.04.53-.07.31-.03.73-.03 1.2 0 2.16.36.96.36 1.64 1 .68.64 1.04 1.55t.36 1.99q0 1.08-.36 1.99-.36.91-.99 1.55t-1.52 1q-.89.36-1.93.36-.78 0-1.44-.26-.66-.26-1.14-.72-.48-.46-.75-1.08-.27-.62-.27-1.34 0-1.42.59-2.11t1.41-.69q.1 0 .21.02.11.02.21.04.1.02.18.04l-.4 1.6q-.9 0-1.35.41-.45.41-.45 1.09 0 .48.23.95t.63.84q.4.37.95.59.55.22 1.19.22z"/></svg>