<svg xmlns="http://www.w3.org/2000/svg" style="isolation:isolate" viewBox="43 36 12 23"><defs/><path fill="#E8E8E8" d="M47.581 39.615q-.56 0-1.08.24t-.93.65q-.41.41-.65.93-.24.52-.24 1.08 0 .52.41.86.41.34 1.39.34l.4 1.6q-.08.04-.18.06-.1.02-.21.03-.11.01-.21.01-.84 0-1.42-.67t-.58-2.03q0-.72.28-1.35.28-.63.76-1.11.48-.48 1.11-.76.63-.28 1.35-.28.94 0 1.73.32t1.36.87q.57.55.89 1.3.32.75.32 1.61 0 .82-.34 1.69t-.91 1.73q-.57.86-1.29 1.68-.72.82-1.48 1.54-.76.72-1.48 1.33-.72.61-1.3 1.03h6.3l.4-1.9h.3v3.2h-8.8q1.38-1.5 2.6-2.8 1.22-1.3 2.13-2.53.91-1.23 1.44-2.44.53-1.21.53-2.53 0-.98-.2-1.68t-.54-1.15q-.34-.45-.82-.66-.48-.21-1.04-.21z"/></svg>