<svg xmlns="http://www.w3.org/2000/svg" style="isolation:isolate" viewBox="43 36 13 23"><defs/><path fill="#E8E8E8" d="M46.781 46.115q-.68-.38-1.2-.9-.46-.46-.83-1.13-.37-.67-.37-1.57 0-.68.25-1.26t.73-1.01q.48-.43 1.17-.68.69-.25 1.55-.25.9 0 1.61.24.71.24 1.19.66.48.42.74.96t.26 1.14q0 .84-.41 1.43t-.89.99q-.58.46-1.3.78.92.46 1.64 1.12.3.28.6.64t.54.78q.24.42.38.91.14.49.14 1.05 0 .78-.32 1.49t-.91 1.25q-.59.54-1.42.85-.83.31-1.85.31-1.06 0-1.87-.28t-1.38-.78q-.57-.5-.86-1.18-.29-.68-.29-1.46 0-1.06.48-1.82t1.06-1.28q.68-.6 1.56-1zm4.3 4.3q0-.42-.16-.8-.16-.38-.42-.74t-.6-.67q-.34-.31-.68-.57-.8-.62-1.84-1.12-.74.28-1.3.8-.5.44-.9 1.14t-.4 1.76q0 .76.25 1.38.25.62.69 1.07.44.45 1.04.7.6.25 1.32.25 1.36 0 2.18-.85.82-.85.82-2.35zm-3-10.8q-.46 0-.86.18-.4.18-.7.51-.3.33-.47.78-.17.45-.17 1.01 0 .7.44 1.25t.96.95q.62.46 1.4.82.58-.24 1.04-.64.4-.34.73-.87.33-.53.33-1.29 0-.56-.21-1.05t-.58-.86q-.37-.37-.86-.58-.49-.21-1.05-.21z"/></svg>