<svg xmlns="http://www.w3.org/2000/svg" style="isolation:isolate" viewBox="44 36 12 23"><defs/><path fill="#E8E8E8" d="M46.081 44.015q0 1.06.21 1.81t.54 1.24q.33.49.76.72.43.23.89.23.42 0 .83-.23t.74-.69q.33-.46.53-1.18t.2-1.68q0-1.28-.21-2.16-.21-.88-.55-1.43-.34-.55-.8-.79t-.94-.24q-.38 0-.77.24t-.71.76q-.32.52-.52 1.36-.2.84-.2 2.04zm6.6 2.2v.4q0 1.92-.38 3.3t-1.01 2.27q-.63.89-1.44 1.31-.81.42-1.67.42-.82 0-1.47-.23t-1.1-.61q-.45-.38-.69-.89-.24-.51-.24-1.07 0-.42.1-.68.04-.12.1-.22l1.7.4q-.06.14-.1.3-.1.3-.1.6 0 1.06.48 1.58t1.32.52q.44 0 .92-.31.48-.31.88-1.03t.65-1.91q.25-1.19.25-2.95v-1l-.13.31q-.13.31-.45.69-.32.38-.81.69-.49.31-1.21.31-.86 0-1.61-.32-.75-.32-1.3-.9-.55-.58-.87-1.39-.32-.81-.32-1.79 0-1.08.32-1.95.32-.87.87-1.48t1.3-.94q.75-.33 1.61-.33.98 0 1.79.36t1.39 1.18q.58.82.9 2.13.32 1.31.32 3.23z"/></svg>