<svg xmlns="http://www.w3.org/2000/svg" style="isolation:isolate" viewBox="-1 -5 103 71"><defs/><g fill="none" stroke="#000" stroke-miterlimit="3"><path stroke-linecap="square" stroke-width="5" d="M62.83 16.475q15.567-1.472 17.671 12.412 12.621-1.052 14.094 6.731c1.473 7.784-2.945 18.091-23.35 14.726q-4.838 7.152-12.622 3.155-18.091 11.36-30.923-2.314C8.347 57.496-5.327 27.204 23.282 17.948 26.227-6.664 64.093 3.223 62.83 16.475z" vector-effect="non-scaling-stroke"/><path stroke-linecap="round" stroke-linejoin="round" stroke-width="4" d="M63.06 25.667q-2.267 6.263-8.422 4.211c-6.285-2.095-1.62-14.037 11.446-12.957M35.188 41.452c3.184-4.467.229-10.773-5.589-10.699-5.818.073-12.748 9.448-.668 20.91" vector-effect="non-scaling-stroke"/></g></svg>