<?xml version="1.0" encoding="UTF-8" standalone="no"?><!-- Generator: Gravit.io --><svg xmlns="http://www.w3.org/2000/svg" xmlns:xlink="http://www.w3.org/1999/xlink" style="isolation:isolate" viewBox="11 11 78 78" width="78pt" height="78pt"><path d=" M 39.835 45.814 C 39.294 47.102 39 48.517 39 50 L 39 50 L 39 50 L 39 50 L 39 50 L 39 50 L 39 50 L 39 50 L 39 50 L 39 50 L 39 50 L 39 50 L 39 50 L 39 50 L 39 50 L 39 50 L 39 50 L 39 50 L 39 50 L 39 50 L 39 50 L 39 50 L 39 50 L 39 50 L 39 50 L 39 50 L 39 50 C 39 51.963 39.515 53.806 40.424 55.399 C 40.567 55.892 40.719 56.382 40.879 56.87 C 41.312 58.202 41.854 59.492 42.481 60.749 C 43.023 61.811 43.629 62.84 44.322 63.815 C 44.939 64.693 45.632 65.516 46.39 66.286 C 47.191 67.098 48.078 67.835 49.031 68.474 C 49.973 69.114 50.98 69.666 52.03 70.11 C 53.145 70.576 54.292 70.934 55.483 71.183 C 56.804 71.454 58.157 71.617 59.511 71.671 C 60.896 71.714 62.293 71.627 63.668 71.411 C 64.902 71.205 66.114 70.869 67.284 70.392 C 68.104 70.056 68.896 69.658 69.65 69.204 C 64.669 74.327 57.702 77.5 50 77.5 C 49.979 77.5 49.959 77.5 49.938 77.5 L 49.938 77.5 L 49.8 77.468 C 48.219 77.099 46.66 76.644 45.123 76.124 C 43.9 75.702 42.698 75.214 41.54 74.65 C 40.457 74.13 39.407 73.534 38.4 72.873 C 37.588 72.321 36.809 71.714 36.094 71.042 C 35.315 70.316 34.622 69.504 34.005 68.637 C 33.453 67.824 32.976 66.957 32.608 66.047 C 32.229 65.105 31.959 64.129 31.785 63.122 C 31.601 61.962 31.526 60.781 31.569 59.6 C 31.612 58.43 31.753 57.271 31.991 56.122 C 32.197 55.147 32.489 54.182 32.879 53.272 C 33.236 52.416 33.68 51.593 34.2 50.823 C 34.73 50.043 35.325 49.328 35.997 48.656 C 36.625 48.039 37.307 47.465 38.043 46.944 C 38.621 46.537 39.219 46.159 39.835 45.814 Z  M 44.751 40.342 C 46.308 39.484 48.098 39 50 39 C 51.296 39 52.54 39.225 53.695 39.637 C 53.486 39.287 53.261 38.946 53.026 38.612 C 52.506 37.875 51.932 37.193 51.315 36.564 C 50.644 35.892 49.93 35.296 49.15 34.765 C 48.382 34.245 47.559 33.801 46.704 33.444 C 45.794 33.053 44.831 32.761 43.856 32.555 C 42.709 32.317 41.55 32.176 40.381 32.132 C 39.201 32.089 38.021 32.165 36.863 32.349 C 35.856 32.523 34.882 32.793 33.94 33.173 C 33.03 33.541 32.164 34.018 31.352 34.57 C 30.486 35.188 29.674 35.882 28.949 36.662 C 28.278 37.377 27.672 38.157 27.119 38.97 C 26.459 39.977 25.864 41.028 25.344 42.112 C 24.781 43.271 24.294 44.474 23.872 45.698 C 23.352 47.237 22.897 48.797 22.529 50.379 L 22.504 50.487 C 22.635 57.99 25.777 64.765 30.786 69.639 C 30.332 68.885 29.934 68.092 29.599 67.272 C 29.122 66.101 28.787 64.888 28.581 63.653 C 28.364 62.276 28.278 60.879 28.321 59.492 C 28.375 58.137 28.538 56.783 28.808 55.461 C 29.057 54.269 29.415 53.121 29.88 52.005 C 30.324 50.954 30.876 49.946 31.515 49.003 C 32.153 48.05 32.89 47.161 33.702 46.359 C 34.47 45.601 35.293 44.907 36.17 44.29 C 37.144 43.596 38.173 42.99 39.234 42.448 C 40.489 41.819 41.778 41.278 43.109 40.844 C 43.653 40.665 44.2 40.496 44.751 40.342 Z  M 59.232 44.032 C 60.352 45.748 61 47.799 61 50 C 61 51.383 60.744 52.707 60.276 53.925 C 60.742 53.658 61.193 53.366 61.632 53.056 C 62.369 52.535 63.051 51.961 63.679 51.344 C 64.35 50.672 64.945 49.957 65.476 49.177 C 65.995 48.407 66.439 47.584 66.796 46.728 C 67.186 45.818 67.478 44.853 67.684 43.878 C 67.922 42.729 68.063 41.57 68.106 40.4 C 68.15 39.219 68.074 38.038 67.89 36.878 C 67.717 35.871 67.446 34.895 67.067 33.953 C 66.699 33.043 66.223 32.176 65.671 31.363 C 65.053 30.496 64.361 29.684 63.581 28.958 C 62.867 28.286 62.087 27.679 61.275 27.127 C 60.268 26.466 59.218 25.87 58.136 25.35 C 56.977 24.786 55.776 24.298 54.552 23.876 C 53.015 23.356 51.456 22.901 49.876 22.532 L 49.742 22.501 C 41.436 22.578 34.004 26.345 29.024 32.253 C 29.181 32.134 29.34 32.018 29.501 31.905 C 30.497 31.211 31.58 30.626 32.716 30.16 C 33.886 29.684 35.098 29.348 36.332 29.142 C 37.707 28.925 39.104 28.839 40.489 28.882 C 41.843 28.936 43.196 29.099 44.517 29.369 C 45.708 29.619 46.855 29.976 47.97 30.442 C 49.02 30.886 50.027 31.439 50.969 32.078 C 51.922 32.718 52.809 33.454 53.61 34.267 C 54.368 35.036 55.061 35.86 55.678 36.738 C 56.371 37.713 56.977 38.742 57.519 39.804 C 58.146 41.061 58.688 42.35 59.121 43.683 C 59.159 43.799 59.197 43.915 59.232 44.032 Z  M 55.612 59.46 C 53.969 60.438 52.05 61 50 61 C 48.538 61 47.142 60.714 45.869 60.189 C 46.207 60.791 46.576 61.375 46.974 61.941 C 47.494 62.677 48.068 63.36 48.685 63.988 C 49.356 64.66 50.07 65.256 50.85 65.787 C 51.618 66.307 52.441 66.751 53.296 67.109 C 54.206 67.499 55.169 67.792 56.144 67.998 C 57.291 68.236 58.45 68.377 59.619 68.42 C 60.799 68.463 61.979 68.388 63.137 68.203 C 64.144 68.03 65.118 67.759 66.06 67.38 C 66.97 67.012 67.836 66.535 68.648 65.982 C 69.514 65.365 70.326 64.671 71.051 63.891 C 71.722 63.176 72.328 62.396 72.881 61.583 C 73.541 60.575 74.136 59.524 74.656 58.441 C 75.219 57.281 75.706 56.079 76.128 54.854 C 76.648 53.316 77.103 51.755 77.471 50.173 L 77.5 50.048 C 77.5 50.032 77.5 50.016 77.5 50 C 77.5 41.86 73.956 34.542 68.329 29.504 C 68.331 29.506 68.332 29.508 68.334 29.51 C 69.027 30.507 69.611 31.591 70.077 32.728 C 70.553 33.899 70.889 35.112 71.094 36.347 C 71.311 37.724 71.397 39.121 71.354 40.508 C 71.3 41.863 71.138 43.217 70.867 44.539 C 70.618 45.731 70.261 46.879 69.795 47.995 C 69.351 49.046 68.799 50.054 68.16 50.997 C 67.522 51.95 66.786 52.839 65.974 53.641 C 65.205 54.399 64.382 55.093 63.505 55.71 C 62.531 56.404 61.503 57.01 60.442 57.552 C 59.186 58.181 57.898 58.722 56.566 59.156 C 56.249 59.26 55.931 59.361 55.612 59.46 Z  M 43 50 C 43 46.137 46.137 43 50 43 C 53.863 43 57 46.137 57 50 C 57 53.863 53.863 57 50 57 C 46.137 57 43 53.863 43 50 L 43 50 L 43 50 L 43 50 L 43 50 L 43 50 L 43 50 L 43 50 L 43 50 L 43 50 L 43 50 L 43 50 L 43 50 L 43 50 L 43 50 L 43 50 L 43 50 L 43 50 L 43 50 L 43 50 L 43 50 L 43 50 L 43 50 L 43 50 L 43 50 L 43 50 Z  M 67.108 22.368 C 68.956 23.516 70.682 24.844 72.259 26.327 L 76.87 21.716 L 78.284 23.13 L 73.673 27.741 L 73.673 27.741 C 75.156 29.318 76.484 31.044 77.632 32.892 L 83.275 29.634 L 84.275 31.366 L 78.634 34.623 L 78.634 34.623 C 79.655 36.519 80.493 38.527 81.125 40.625 L 87.412 38.94 L 87.93 40.872 L 81.642 42.557 L 81.642 42.557 C 82.13 44.635 82.418 46.79 82.485 49 L 89 49 L 89 51 L 82.485 51 L 82.485 51 C 82.418 53.21 82.13 55.365 81.642 57.443 L 87.93 59.128 L 87.412 61.06 L 81.125 59.375 L 81.125 59.375 C 80.493 61.473 79.655 63.481 78.634 65.377 L 84.275 68.634 L 83.275 70.366 L 77.632 67.108 L 77.632 67.108 C 76.484 68.956 75.156 70.682 73.673 72.259 L 78.284 76.87 L 76.87 78.284 L 72.259 73.673 L 72.259 73.673 C 70.682 75.156 68.956 76.484 67.108 77.632 L 70.366 83.275 L 68.634 84.275 L 65.377 78.634 L 65.377 78.634 C 63.481 79.655 61.473 80.493 59.375 81.125 L 61.06 87.412 L 59.128 87.93 L 57.443 81.642 L 57.443 81.642 C 55.365 82.13 53.21 82.418 51 82.485 L 51 89 L 49 89 L 49 82.485 L 49 82.485 C 46.79 82.418 44.635 82.13 42.557 81.642 L 42.557 81.642 L 40.872 87.93 L 38.94 87.412 L 40.625 81.125 C 38.527 80.493 36.519 79.655 34.623 78.634 L 34.623 78.634 L 31.366 84.275 L 29.634 83.275 L 32.892 77.632 C 31.044 76.484 29.318 75.156 27.741 73.673 L 27.741 73.673 L 23.13 78.284 L 21.716 76.87 L 26.327 72.259 C 24.844 70.682 23.516 68.956 22.368 67.108 L 22.368 67.108 L 16.725 70.366 L 15.725 68.634 L 21.366 65.377 C 20.345 63.481 19.507 61.473 18.875 59.375 L 18.875 59.375 L 12.588 61.06 L 12.07 59.128 L 18.358 57.443 C 17.87 55.365 17.582 53.21 17.515 51 L 17.515 51 L 11 51 L 11 49 L 17.515 49 C 17.582 46.79 17.87 44.635 18.358 42.557 L 18.358 42.557 L 12.07 40.872 L 12.588 38.94 L 18.875 40.625 C 19.507 38.527 20.345 36.519 21.366 34.623 L 21.366 34.623 L 15.725 31.366 L 16.725 29.634 L 22.368 32.892 C 23.516 31.044 24.844 29.318 26.327 27.741 L 26.327 27.741 L 21.716 23.13 L 23.13 21.716 L 27.741 26.327 C 29.318 24.844 31.044 23.516 32.892 22.368 L 32.892 22.368 L 29.634 16.725 L 31.366 15.725 L 34.623 21.366 C 36.519 20.345 38.527 19.507 40.625 18.875 L 40.625 18.875 L 38.94 12.588 L 40.872 12.07 L 42.557 18.358 C 44.635 17.87 46.79 17.582 49 17.515 L 49 17.515 L 49 11 L 51 11 L 51 17.515 C 53.21 17.582 55.365 17.87 57.443 18.358 L 59.128 12.07 L 61.06 12.588 L 59.375 18.875 L 59.375 18.875 C 61.473 19.507 63.481 20.345 65.377 21.366 L 68.634 15.725 L 70.366 16.725 L 67.108 22.368 L 67.108 22.368 Z " fill-rule="evenodd" fill="rgb(235,235,235)"/></svg>