<?xml version="1.0" encoding="UTF-8" standalone="no"?><!-- Generator: Gravit.io --><svg xmlns="http://www.w3.org/2000/svg" xmlns:xlink="http://www.w3.org/1999/xlink" style="isolation:isolate" viewBox="4 4 92 92" width="92pt" height="92pt"><path d=" M 41.5 58.5 L 41.5 41.5 L 41.5 41.5 L 58.5 41.5 L 58.5 58.5 L 41.5 58.5 Z  M 41.5 63.5 L 41.5 76.159 C 44.177 77.029 47.034 77.5 50 77.5 C 52.966 77.5 55.823 77.029 58.5 76.159 L 58.5 63.5 L 41.5 63.5 Z  M 76.159 58.5 C 77.029 55.823 77.5 52.966 77.5 50 C 77.5 47.034 77.029 44.177 76.159 41.5 L 76.159 41.5 L 63.5 41.5 L 63.5 58.5 L 76.159 58.5 Z  M 73.959 63.5 C 71.492 67.866 67.866 71.492 63.5 73.959 L 63.5 63.5 L 73.959 63.5 Z  M 23.841 58.5 C 22.971 55.823 22.5 52.966 22.5 50 L 22.5 50 C 22.5 47.034 22.971 44.177 23.841 41.5 L 23.841 41.5 L 36.5 41.5 L 36.5 58.5 L 23.841 58.5 Z  M 26.041 63.5 C 28.508 67.866 32.134 71.492 36.5 73.959 L 36.5 63.5 L 26.041 63.5 Z  M 41.5 36.5 L 41.5 23.841 L 41.5 23.841 C 44.177 22.971 47.034 22.5 50 22.5 C 52.966 22.5 55.823 22.971 58.5 23.841 L 58.5 23.841 L 58.5 36.5 L 41.5 36.5 L 41.5 36.5 Z  M 73.959 36.5 C 71.492 32.134 67.866 28.508 63.5 26.041 L 63.5 26.041 L 63.5 36.5 L 73.959 36.5 L 73.959 36.5 Z  M 26.041 36.5 C 28.508 32.134 32.134 28.508 36.5 26.041 L 36.5 26.041 L 36.5 26.041 L 36.5 36.5 L 26.041 36.5 L 26.041 36.5 Z  M 53.73 14.191 L 53.875 14.047 L 53.875 7.203 L 50.672 4 L 49.328 4 L 49.328 4 L 49.328 4 L 49.328 4 L 49.328 4 L 49.328 4 L 49.328 4 L 49.328 4 L 49.328 4 L 49.328 4 L 49.328 4 L 49.328 4 L 49.328 4 L 49.328 4 L 49.328 4 L 49.328 4 L 46.125 7.203 L 46.125 14.047 L 46.27 14.191 C 44.135 14.412 42.055 14.819 40.047 15.396 L 40.124 15.213 L 37.561 8.868 L 33.391 7.098 L 32.145 7.601 L 32.145 7.601 L 32.145 7.601 L 32.145 7.601 L 32.145 7.601 L 30.375 11.771 L 32.939 18.116 L 33.128 18.196 C 31.063 19.295 29.118 20.588 27.317 22.052 L 27.317 21.837 L 22.478 16.998 L 17.948 16.998 L 16.998 17.948 L 16.998 17.948 L 16.998 17.948 L 16.998 17.948 L 16.998 17.948 L 16.998 17.948 L 16.998 17.948 L 16.998 17.948 L 16.998 17.948 L 16.998 17.948 L 16.998 17.948 L 16.998 17.948 L 16.998 17.948 L 16.998 22.478 L 21.837 27.317 L 22.052 27.317 C 20.719 28.957 19.528 30.716 18.496 32.576 L 18.419 32.385 L 12.12 29.711 L 7.919 31.408 L 7.394 32.645 L 7.394 32.645 L 7.394 32.645 L 7.394 32.645 L 7.394 32.645 L 7.394 32.645 L 7.394 32.645 L 9.091 36.845 L 15.391 39.519 L 15.575 39.444 C 14.902 41.638 14.434 43.921 14.191 46.27 L 14.047 46.125 L 7.203 46.125 L 4 49.328 L 4 50.672 L 4 50.672 L 4 50.672 L 4 50.672 L 4 50.672 L 4 50.672 L 4 50.672 L 4 50.672 L 4 50.672 L 4 50.672 L 4 50.672 L 4 50.672 L 4 50.672 L 4 50.672 L 4 50.672 L 7.203 53.875 L 14.047 53.875 L 14.191 53.73 C 14.412 55.865 14.819 57.945 15.396 59.953 L 15.213 59.876 L 8.868 62.439 L 7.098 66.609 L 7.601 67.855 L 7.601 67.855 L 7.601 67.855 L 11.771 69.625 L 18.116 67.061 L 18.196 66.872 C 19.295 68.937 20.588 70.882 22.052 72.683 L 21.837 72.683 L 16.998 77.522 L 16.998 82.052 L 17.948 83.002 L 17.948 83.002 L 17.948 83.002 L 17.948 83.002 L 17.948 83.002 L 17.948 83.002 L 17.948 83.002 L 17.948 83.002 L 17.948 83.002 L 17.948 83.002 L 17.948 83.002 L 22.478 83.002 L 27.317 78.163 L 27.317 77.948 C 28.957 79.281 30.716 80.472 32.576 81.504 L 32.576 81.504 L 32.385 81.581 L 29.711 87.88 L 31.408 92.081 L 32.645 92.606 L 36.845 90.909 L 39.519 84.609 L 39.444 84.425 C 41.638 85.098 43.921 85.566 46.27 85.809 L 46.27 85.809 L 46.125 85.953 L 46.125 92.797 L 49.328 96 L 50.672 96 L 53.875 92.797 L 53.875 85.953 L 53.73 85.809 C 55.865 85.588 57.945 85.181 59.953 84.604 L 59.953 84.604 L 59.876 84.787 L 62.439 91.132 L 66.609 92.902 L 67.855 92.399 L 69.625 88.229 L 67.061 81.884 L 66.872 81.804 C 68.937 80.705 70.882 79.412 72.683 77.948 L 72.683 77.948 L 72.683 78.163 L 77.522 83.002 L 82.052 83.002 L 83.002 82.052 L 83.002 77.522 L 78.163 72.683 L 77.948 72.683 C 79.281 71.043 80.472 69.284 81.504 67.424 L 81.504 67.424 L 81.581 67.615 L 87.88 70.289 L 92.081 68.592 L 92.606 67.355 L 90.909 63.155 L 84.609 60.481 L 84.425 60.556 C 85.098 58.362 85.566 56.079 85.809 53.73 L 85.809 53.73 L 85.953 53.875 L 92.797 53.875 L 96 50.672 L 96 49.328 L 92.797 46.125 L 85.953 46.125 L 85.809 46.27 C 85.588 44.135 85.181 42.055 84.604 40.047 L 84.604 40.047 L 84.787 40.124 L 91.132 37.561 L 92.902 33.391 L 92.399 32.145 L 88.229 30.375 L 81.884 32.939 L 81.804 33.128 C 80.705 31.063 79.412 29.118 77.948 27.317 L 77.948 27.317 L 78.163 27.317 L 83.002 22.478 L 83.002 17.948 L 82.052 16.998 L 77.522 16.998 L 72.683 21.837 L 72.683 22.052 C 71.043 20.719 69.284 19.528 67.424 18.496 L 67.615 18.419 L 70.289 12.12 L 68.592 7.919 L 67.355 7.394 L 67.355 7.394 L 67.355 7.394 L 67.355 7.394 L 67.355 7.394 L 67.355 7.394 L 67.355 7.394 L 67.355 7.394 L 67.355 7.394 L 63.155 9.091 L 60.481 15.391 L 60.556 15.575 C 58.362 14.902 56.079 14.434 53.73 14.191 L 53.73 14.191 L 53.73 14.191 L 53.73 14.191 L 53.73 14.191 Z " fill-rule="evenodd" fill="rgb(235,235,235)"/></svg>