<?xml version="1.0" encoding="UTF-8" standalone="no"?><!-- Generator: Gravit.io --><svg xmlns="http://www.w3.org/2000/svg" xmlns:xlink="http://www.w3.org/1999/xlink" style="isolation:isolate" viewBox="7 7 86 86" width="86pt" height="86pt"><path d=" M 79.209 55.262 L 79.268 61.815 L 79.268 61.815 L 70.805 70.433 L 62.341 79.05 L 55.262 79.114 L 55.262 79.114 L 55.262 55.262 L 79.209 55.262 Z  M 79.114 44.738 L 79.05 37.659 L 70.433 29.195 L 61.815 20.732 L 55.262 20.791 L 55.262 44.738 L 79.114 44.738 Z  M 20.886 55.262 L 20.95 62.341 L 29.567 70.805 L 38.185 79.268 L 44.738 79.209 L 44.738 79.209 L 44.738 55.262 L 20.886 55.262 Z  M 20.791 44.738 L 20.732 38.185 L 29.195 29.567 L 37.659 20.95 L 44.738 20.886 L 44.738 44.738 L 20.791 44.738 Z  M 86.426 42.919 C 87.241 45.781 89.878 47.878 93 47.878 L 93 52.122 C 89.766 52.122 87.053 54.372 86.361 57.398 L 86.361 57.398 L 86.361 57.398 C 85.816 60.453 87.434 63.584 90.411 64.848 L 88.752 68.755 C 85.878 67.535 82.632 68.435 80.764 70.751 C 79.317 73.35 79.699 76.697 81.906 78.905 L 78.905 81.906 C 76.618 79.619 73.109 79.292 70.48 80.942 C 67.934 82.717 66.864 86.075 68.076 89.074 L 64.14 90.664 C 62.971 87.769 60.039 86.11 57.081 86.426 C 54.219 87.241 52.122 89.878 52.122 93 L 47.878 93 C 47.878 89.766 45.628 87.053 42.602 86.361 L 42.602 86.361 L 42.602 86.361 L 42.602 86.361 L 42.602 86.361 C 39.547 85.816 36.416 87.434 35.152 90.411 L 31.245 88.752 C 32.465 85.878 31.565 82.632 29.249 80.764 C 26.65 79.317 23.303 79.699 21.095 81.906 L 18.094 78.905 C 20.381 76.618 20.708 73.109 19.058 70.48 C 17.283 67.934 13.925 66.864 10.926 68.076 L 9.336 64.14 C 12.231 62.971 13.89 60.039 13.574 57.081 C 12.759 54.219 10.122 52.122 7 52.122 L 7 47.878 C 10.234 47.878 12.947 45.628 13.639 42.602 C 14.184 39.547 12.566 36.416 9.589 35.152 L 11.248 31.245 C 14.122 32.465 17.368 31.565 19.236 29.249 C 20.683 26.65 20.301 23.303 18.094 21.095 L 21.095 18.094 C 23.382 20.381 26.891 20.708 29.52 19.058 L 29.52 19.058 L 29.52 19.058 C 32.066 17.283 33.136 13.925 31.924 10.926 L 35.86 9.336 C 37.029 12.231 39.961 13.89 42.919 13.574 C 45.781 12.759 47.878 10.122 47.878 7 L 52.122 7 C 52.122 10.234 54.372 12.947 57.398 13.639 L 57.398 13.639 L 57.398 13.639 L 57.398 13.639 L 57.398 13.639 C 60.453 14.184 63.584 12.566 64.848 9.589 L 68.755 11.248 C 67.535 14.122 68.435 17.368 70.751 19.236 C 73.35 20.683 76.697 20.301 78.905 18.094 L 81.906 21.095 C 79.619 23.382 79.292 26.891 80.942 29.52 C 82.717 32.066 86.075 33.136 89.074 31.924 L 90.664 35.86 C 87.769 37.029 86.11 39.961 86.426 42.919 L 86.426 42.919 L 86.426 42.919 L 86.426 42.919 Z " fill-rule="evenodd" fill="rgb(235,235,235)"/></svg>