<?xml version="1.0" encoding="UTF-8" standalone="no"?><!-- Generator: Gravit.io --><svg xmlns="http://www.w3.org/2000/svg" xmlns:xlink="http://www.w3.org/1999/xlink" style="isolation:isolate" viewBox="11 11 78 78" width="78pt" height="78pt"><path d=" M 67.108 22.368 C 68.956 23.516 70.682 24.844 72.259 26.327 L 76.87 21.716 L 78.284 23.13 L 73.673 27.741 L 73.673 27.741 C 75.156 29.318 76.484 31.044 77.632 32.892 L 83.275 29.634 L 84.275 31.366 L 78.634 34.623 L 78.634 34.623 C 79.655 36.519 80.493 38.527 81.125 40.625 L 87.412 38.94 L 87.93 40.872 L 81.642 42.557 L 81.642 42.557 C 82.13 44.635 82.418 46.79 82.485 49 L 89 49 L 89 51 L 82.485 51 L 82.485 51 C 82.418 53.21 82.13 55.365 81.642 57.443 L 87.93 59.128 L 87.412 61.06 L 81.125 59.375 L 81.125 59.375 C 80.493 61.473 79.655 63.481 78.634 65.377 L 84.275 68.634 L 83.275 70.366 L 77.632 67.108 L 77.632 67.108 C 76.484 68.956 75.156 70.682 73.673 72.259 L 78.284 76.87 L 76.87 78.284 L 72.259 73.673 L 72.259 73.673 C 70.682 75.156 68.956 76.484 67.108 77.632 L 70.366 83.275 L 68.634 84.275 L 65.377 78.634 L 65.377 78.634 C 63.481 79.655 61.473 80.493 59.375 81.125 L 61.06 87.412 L 59.128 87.93 L 57.443 81.642 L 57.443 81.642 C 55.365 82.13 53.21 82.418 51 82.485 L 51 89 L 49 89 L 49 82.485 L 49 82.485 C 46.79 82.418 44.635 82.13 42.557 81.642 L 42.557 81.642 L 40.872 87.93 L 38.94 87.412 L 40.625 81.125 C 38.527 80.493 36.519 79.655 34.623 78.634 L 34.623 78.634 L 31.366 84.275 L 29.634 83.275 L 32.892 77.632 C 31.044 76.484 29.318 75.156 27.741 73.673 L 27.741 73.673 L 23.13 78.284 L 21.716 76.87 L 26.327 72.259 C 24.844 70.682 23.516 68.956 22.368 67.108 L 22.368 67.108 L 16.725 70.366 L 15.725 68.634 L 21.366 65.377 C 20.345 63.481 19.507 61.473 18.875 59.375 L 18.875 59.375 L 12.588 61.06 L 12.07 59.128 L 18.358 57.443 C 17.87 55.365 17.582 53.21 17.515 51 L 17.515 51 L 11 51 L 11 49 L 17.515 49 C 17.582 46.79 17.87 44.635 18.358 42.557 L 18.358 42.557 L 12.07 40.872 L 12.588 38.94 L 18.875 40.625 C 19.507 38.527 20.345 36.519 21.366 34.623 L 21.366 34.623 L 15.725 31.366 L 16.725 29.634 L 22.368 32.892 C 23.516 31.044 24.844 29.318 26.327 27.741 L 26.327 27.741 L 21.716 23.13 L 23.13 21.716 L 27.741 26.327 C 29.318 24.844 31.044 23.516 32.892 22.368 L 32.892 22.368 L 29.634 16.725 L 31.366 15.725 L 34.623 21.366 C 36.519 20.345 38.527 19.507 40.625 18.875 L 40.625 18.875 L 38.94 12.588 L 40.872 12.07 L 42.557 18.358 C 44.635 17.87 46.79 17.582 49 17.515 L 49 17.515 L 49 11 L 51 11 L 51 17.515 C 53.21 17.582 55.365 17.87 57.443 18.358 L 59.128 12.07 L 61.06 12.588 L 59.375 18.875 L 59.375 18.875 C 61.473 19.507 63.481 20.345 65.377 21.366 L 68.634 15.725 L 70.366 16.725 L 67.108 22.368 Z  M 34.579 72.767 C 38.978 75.754 44.287 77.5 50 77.5 C 55.713 77.5 61.022 75.754 65.421 72.767 L 65.421 72.767 L 54.674 59.959 C 53.255 60.627 51.671 61 50 61 C 48.329 61 46.745 60.627 45.326 59.959 L 34.579 72.767 L 34.579 72.767 L 34.579 72.767 L 34.579 72.767 L 34.579 72.767 L 34.579 72.767 L 34.579 72.767 L 34.579 72.767 L 34.579 72.767 L 34.579 72.767 L 34.579 72.767 L 34.579 72.767 L 34.579 72.767 L 34.579 72.767 L 34.579 72.767 L 34.579 72.767 L 34.579 72.767 L 34.579 72.767 L 34.579 72.767 L 34.579 72.767 L 34.579 72.767 L 34.579 72.767 L 34.579 72.767 L 34.579 72.767 L 34.579 72.767 L 34.579 72.767 Z  M 30.713 69.595 C 25.644 64.606 22.5 57.667 22.5 50 L 22.5 50 L 22.5 50 C 22.5 47.184 22.924 44.466 23.712 41.907 L 23.712 41.907 L 39.27 47.57 C 39.093 48.352 39 49.165 39 50 L 39 50 C 39 52.592 39.899 54.976 41.401 56.857 L 30.713 69.595 L 30.713 69.595 L 30.713 69.595 L 30.713 69.595 L 30.713 69.595 L 30.713 69.595 L 30.713 69.595 L 30.713 69.595 L 30.713 69.595 L 30.713 69.595 L 30.713 69.595 L 30.713 69.595 L 30.713 69.595 L 30.713 69.595 L 30.713 69.595 L 30.713 69.595 L 30.713 69.595 L 30.713 69.595 L 30.713 69.595 L 30.713 69.595 L 30.713 69.595 L 30.713 69.595 L 30.713 69.595 L 30.713 69.595 L 30.713 69.595 L 30.713 69.595 Z  M 69.287 69.595 C 74.356 64.606 77.5 57.667 77.5 50 C 77.5 47.184 77.076 44.466 76.288 41.907 L 76.288 41.907 L 60.73 47.57 C 60.907 48.352 61 49.165 61 50 C 61 52.592 60.101 54.976 58.599 56.857 L 69.287 69.595 L 69.287 69.595 L 69.287 69.595 L 69.287 69.595 L 69.287 69.595 L 69.287 69.595 L 69.287 69.595 L 69.287 69.595 L 69.287 69.595 L 69.287 69.595 L 69.287 69.595 L 69.287 69.595 L 69.287 69.595 L 69.287 69.595 L 69.287 69.595 L 69.287 69.595 L 69.287 69.595 L 69.287 69.595 L 69.287 69.595 L 69.287 69.595 L 69.287 69.595 L 69.287 69.595 L 69.287 69.595 L 69.287 69.595 L 69.287 69.595 L 69.287 69.595 L 69.287 69.595 Z  M 25.617 37.28 C 29.845 29.197 37.976 23.472 47.5 22.612 L 47.5 22.612 L 47.5 39.286 C 45.093 39.846 42.988 41.198 41.475 43.052 L 25.617 37.28 L 25.617 37.28 L 25.617 37.28 L 25.617 37.28 L 25.617 37.28 L 25.617 37.28 L 25.617 37.28 L 25.617 37.28 L 25.617 37.28 L 25.617 37.28 L 25.617 37.28 L 25.617 37.28 L 25.617 37.28 L 25.617 37.28 L 25.617 37.28 L 25.617 37.28 L 25.617 37.28 L 25.617 37.28 L 25.617 37.28 L 25.617 37.28 L 25.617 37.28 L 25.617 37.28 L 25.617 37.28 L 25.617 37.28 L 25.617 37.28 L 25.617 37.28 L 25.617 37.28 L 25.617 37.28 Z  M 74.383 37.28 C 70.155 29.197 62.024 23.472 52.5 22.612 L 52.5 39.286 C 54.907 39.846 57.012 41.198 58.525 43.052 L 74.383 37.28 L 74.383 37.28 L 74.383 37.28 L 74.383 37.28 L 74.383 37.28 L 74.383 37.28 L 74.383 37.28 L 74.383 37.28 L 74.383 37.28 L 74.383 37.28 L 74.383 37.28 L 74.383 37.28 L 74.383 37.28 L 74.383 37.28 L 74.383 37.28 L 74.383 37.28 L 74.383 37.28 L 74.383 37.28 L 74.383 37.28 L 74.383 37.28 L 74.383 37.28 L 74.383 37.28 L 74.383 37.28 L 74.383 37.28 L 74.383 37.28 L 74.383 37.28 L 74.383 37.28 L 74.383 37.28 L 74.383 37.28 Z  M 42.574 49.908 C 42.574 45.86 45.86 42.574 49.908 42.574 C 53.955 42.574 57.241 45.86 57.241 49.908 C 57.241 53.955 53.955 57.241 49.908 57.241 C 45.86 57.241 42.574 53.955 42.574 49.908 L 42.574 49.908 L 42.574 49.908 L 42.574 49.908 L 42.574 49.908 L 42.574 49.908 L 42.574 49.908 L 42.574 49.908 L 42.574 49.908 L 42.574 49.908 L 42.574 49.908 L 42.574 49.908 L 42.574 49.908 L 42.574 49.908 L 42.574 49.908 L 42.574 49.908 L 42.574 49.908 L 42.574 49.908 L 42.574 49.908 L 42.574 49.908 L 42.574 49.908 L 42.574 49.908 L 42.574 49.908 L 42.574 49.908 L 42.574 49.908 Z " fill-rule="evenodd" fill="rgb(235,235,235)"/></svg>