<?xml version="1.0" encoding="UTF-8" standalone="no"?><!-- Generator: Gravit.io --><svg xmlns="http://www.w3.org/2000/svg" xmlns:xlink="http://www.w3.org/1999/xlink" style="isolation:isolate" viewBox="10 10 80 81" width="80pt" height="81pt"><path d=" M 25.175 44.738 C 27.152 34.906 34.906 27.152 44.738 25.175 L 44.738 25.175 L 44.738 44.738 L 25.175 44.738 L 25.175 44.738 L 25.175 44.738 L 25.175 44.738 L 25.175 44.738 L 25.175 44.738 L 25.175 44.738 L 25.175 44.738 L 25.175 44.738 L 25.175 44.738 L 25.175 44.738 L 25.175 44.738 L 25.175 44.738 L 25.175 44.738 L 25.175 44.738 L 25.175 44.738 L 25.175 44.738 L 25.175 44.738 L 25.175 44.738 L 25.175 44.738 L 25.175 44.738 L 25.175 44.738 L 25.175 44.738 L 25.175 44.738 L 25.175 44.738 L 25.175 44.738 Z  M 25.31 55.262 C 27.486 64.794 35.117 72.26 44.738 74.195 L 44.738 55.262 L 25.31 55.262 L 25.31 55.262 L 25.31 55.262 L 25.31 55.262 L 25.31 55.262 L 25.31 55.262 L 25.31 55.262 L 25.31 55.262 L 25.31 55.262 L 25.31 55.262 L 25.31 55.262 L 25.31 55.262 L 25.31 55.262 L 25.31 55.262 L 25.31 55.262 L 25.31 55.262 L 25.31 55.262 L 25.31 55.262 L 25.31 55.262 L 25.31 55.262 L 25.31 55.262 L 25.31 55.262 L 25.31 55.262 L 25.31 55.262 L 25.31 55.262 L 25.31 55.262 Z  M 74.195 44.738 C 72.26 35.117 64.794 27.486 55.262 25.31 L 55.262 25.31 L 55.262 44.738 L 74.195 44.738 L 74.195 44.738 L 74.195 44.738 L 74.195 44.738 L 74.195 44.738 L 74.195 44.738 L 74.195 44.738 L 74.195 44.738 L 74.195 44.738 L 74.195 44.738 L 74.195 44.738 L 74.195 44.738 L 74.195 44.738 L 74.195 44.738 L 74.195 44.738 L 74.195 44.738 L 74.195 44.738 L 74.195 44.738 L 74.195 44.738 L 74.195 44.738 L 74.195 44.738 L 74.195 44.738 L 74.195 44.738 L 74.195 44.738 L 74.195 44.738 L 74.195 44.738 Z  M 74.06 55.262 C 71.932 64.585 64.585 71.932 55.262 74.06 L 55.262 55.262 L 74.06 55.262 L 74.06 55.262 L 74.06 55.262 L 74.06 55.262 L 74.06 55.262 L 74.06 55.262 L 74.06 55.262 L 74.06 55.262 L 74.06 55.262 L 74.06 55.262 L 74.06 55.262 L 74.06 55.262 L 74.06 55.262 L 74.06 55.262 L 74.06 55.262 L 74.06 55.262 L 74.06 55.262 L 74.06 55.262 L 74.06 55.262 L 74.06 55.262 L 74.06 55.262 L 74.06 55.262 L 74.06 55.262 L 74.06 55.262 L 74.06 55.262 L 74.06 55.262 Z  M 86.988 43.928 C 87.132 44.716 87.236 45.519 87.314 46.328 L 87.314 46.328 C 87.801 47.319 88.822 48 90 48 L 90 48 Q 90 50 90 52 L 90 52 C 88.822 52 87.801 52.681 87.314 53.672 C 87.236 54.481 87.132 55.282 86.988 56.071 C 87.187 57.172 88.003 58.112 89.155 58.421 L 89.155 58.421 C 88.869 59.487 88.405 61.218 88.119 62.285 L 88.119 62.285 C 86.998 61.984 85.853 62.362 85.122 63.167 L 85.122 63.167 C 84.829 63.942 84.511 64.706 84.155 65.448 C 84.068 66.56 84.612 67.674 85.641 68.268 L 85.641 68.268 C 85.089 69.224 84.193 70.776 83.641 71.732 L 83.641 71.732 C 82.592 71.126 81.327 71.227 80.404 71.894 L 80.404 71.894 C 79.965 72.522 79.496 73.129 79.01 73.72 C 78.615 74.78 78.847 76.018 79.698 76.87 L 79.698 76.87 C 78.918 77.651 77.651 78.918 76.87 79.698 L 76.87 79.698 C 76.017 78.846 74.777 78.614 73.716 79.011 L 73.716 79.011 C 73.129 79.494 72.526 79.959 71.901 80.394 C 71.228 81.318 71.124 82.588 71.732 83.641 L 71.732 83.641 C 70.776 84.193 69.224 85.089 68.268 85.641 L 68.268 85.641 C 67.675 84.614 66.564 84.07 65.455 84.154 L 65.455 84.154 C 64.737 84.48 64.007 84.783 63.259 85.05 C 62.39 85.771 61.973 86.958 62.285 88.119 L 62.285 88.119 C 61.218 88.405 59.487 88.869 58.421 89.155 L 58.421 89.155 C 58.107 87.985 57.143 87.162 56.019 86.98 L 56.019 86.98 C 55.268 87.114 54.505 87.213 53.735 87.288 C 52.709 87.759 52 88.798 52 90 L 52 90 Q 50 90 48 90 L 48 90 C 48 88.798 47.291 87.759 46.265 87.288 L 46.265 87.288 C 45.497 87.213 44.735 87.114 43.985 86.98 C 42.86 87.16 41.893 87.984 41.579 89.155 L 41.579 89.155 C 40.513 88.869 38.782 88.405 37.715 88.119 L 37.715 88.119 C 38.019 86.985 37.63 85.827 36.804 85.099 L 36.804 85.099 C 36.048 84.813 35.302 84.504 34.577 84.158 C 33.457 84.059 32.331 84.604 31.732 85.641 L 31.732 85.641 C 30.776 85.089 29.224 84.193 28.268 83.641 L 28.268 83.641 C 28.875 82.589 28.772 81.32 28.101 80.397 L 28.101 80.397 C 27.475 79.96 26.872 79.495 26.284 79.011 C 25.223 78.614 23.983 78.846 23.13 79.698 L 23.13 79.698 C 22.349 78.918 21.082 77.651 20.302 76.87 L 20.302 76.87 C 21.153 76.018 21.385 74.78 20.99 73.72 L 20.99 73.72 C 20.504 73.13 20.036 72.524 19.598 71.896 C 18.675 71.227 17.409 71.126 16.359 71.732 L 16.359 71.732 C 15.807 70.776 14.911 69.224 14.359 68.268 L 14.359 68.268 C 15.375 67.681 15.919 66.588 15.85 65.49 L 15.85 65.49 C 15.514 64.752 15.202 64 14.928 63.23 L 14.928 63.23 C 14.204 62.381 13.03 61.977 11.881 62.285 L 11.881 62.285 C 11.595 61.218 11.131 59.487 10.845 58.421 L 10.845 58.421 C 11.997 58.112 12.812 57.173 13.012 56.072 C 12.868 55.284 12.764 54.481 12.686 53.672 C 12.199 52.681 11.178 52 10 52 L 10 52 C 10 50.896 10 49.104 10 48 L 10 48 C 11.178 48 12.199 47.319 12.686 46.328 L 12.686 46.328 C 12.764 45.519 12.868 44.718 13.012 43.929 L 13.012 43.929 C 12.813 42.828 11.997 41.888 10.845 41.579 L 10.845 41.579 C 11.131 40.513 11.595 38.782 11.881 37.715 L 11.881 37.715 C 13.002 38.016 14.147 37.638 14.878 36.833 C 15.171 36.058 15.489 35.294 15.845 34.552 L 15.845 34.552 C 15.932 33.44 15.388 32.326 14.359 31.732 L 14.359 31.732 C 14.911 30.776 15.807 29.224 16.359 28.268 L 16.359 28.268 C 17.408 28.874 18.673 28.773 19.596 28.106 C 20.035 27.478 20.504 26.871 20.99 26.28 L 20.99 26.28 C 21.385 25.22 21.153 23.982 20.302 23.13 L 20.302 23.13 C 21.082 22.349 22.349 21.082 23.13 20.302 L 23.13 20.302 C 23.983 21.154 25.223 21.386 26.284 20.989 C 26.871 20.506 27.474 20.041 28.099 19.606 L 28.099 19.606 C 28.772 18.682 28.876 17.412 28.268 16.359 L 28.268 16.359 C 29.224 15.807 30.776 14.911 31.732 14.359 L 31.732 14.359 C 32.325 15.386 33.436 15.93 34.545 15.846 C 35.263 15.52 35.993 15.217 36.741 14.95 L 36.741 14.95 C 37.61 14.229 38.027 13.042 37.715 11.881 L 37.715 11.881 C 38.782 11.595 40.513 11.131 41.579 10.845 L 41.579 10.845 C 41.893 12.015 42.857 12.838 43.981 13.02 C 44.732 12.886 45.495 12.787 46.265 12.712 L 46.265 12.712 C 47.291 12.241 48 11.202 48 10 L 48 10 C 49.104 10 50.896 10 52 10 L 52 10 C 52 11.202 52.709 12.241 53.735 12.712 C 54.503 12.787 55.265 12.886 56.015 13.02 L 56.015 13.02 C 57.14 12.84 58.107 12.016 58.421 10.845 L 58.421 10.845 C 59.487 11.131 61.218 11.595 62.285 11.881 L 62.285 11.881 C 61.981 13.015 62.37 14.173 63.196 14.901 C 63.952 15.187 64.698 15.496 65.423 15.842 L 65.423 15.842 C 66.543 15.941 67.669 15.396 68.268 14.359 L 68.268 14.359 C 69.224 14.911 70.776 15.807 71.732 16.359 L 71.732 16.359 C 71.125 17.411 71.228 18.68 71.899 19.603 C 72.525 20.04 73.128 20.505 73.716 20.989 L 73.716 20.989 C 74.777 21.386 76.017 21.154 76.87 20.302 L 76.87 20.302 C 77.651 21.082 78.918 22.349 79.698 23.13 L 79.698 23.13 C 78.847 23.982 78.615 25.22 79.01 26.28 C 79.496 26.87 79.964 27.476 80.402 28.104 L 80.402 28.104 C 81.325 28.773 82.591 28.874 83.641 28.268 L 83.641 28.268 C 84.193 29.224 85.089 30.776 85.641 31.732 L 85.641 31.732 C 84.625 32.319 84.081 33.412 84.15 34.51 C 84.486 35.248 84.798 36 85.072 36.77 C 85.796 37.619 86.97 38.023 88.119 37.715 L 88.119 37.715 C 88.405 38.782 88.869 40.513 89.155 41.579 L 89.155 41.579 C 88.003 41.888 87.188 42.827 86.988 43.928 L 86.988 43.928 Z  M 47.5 50 C 47.5 48.62 48.62 47.5 50 47.5 C 51.38 47.5 52.5 48.62 52.5 50 C 52.5 51.38 51.38 52.5 50 52.5 C 48.62 52.5 47.5 51.38 47.5 50 Z " fill-rule="evenodd" fill="rgb(235,235,235)"/></svg>