<?xml version="1.0" encoding="UTF-8" standalone="no"?><!-- Generator: Gravit.io --><svg xmlns="http://www.w3.org/2000/svg" xmlns:xlink="http://www.w3.org/1999/xlink" style="isolation:isolate" viewBox="11 11 78 78" width="78pt" height="78pt"><path d=" M 26.617 59.331 C 29.262 65.644 34.425 70.645 40.847 73.075 L 40.847 73.075 L 40.847 73.075 L 44.354 67 L 47.777 61.072 C 43.327 60.182 39.818 56.673 38.928 52.223 L 33 55.646 L 26.617 59.331 L 26.617 59.331 L 26.617 59.331 L 26.617 59.331 L 26.617 59.331 L 26.617 59.331 L 26.617 59.331 L 26.617 59.331 L 26.617 59.331 L 26.617 59.331 Z  M 26.41 40.549 C 28.948 34.095 34.095 28.948 40.549 26.41 L 40.549 26.41 L 44.354 33 L 47.777 38.928 C 43.327 39.818 39.818 43.327 38.928 47.777 L 33 44.354 L 26.41 40.549 L 26.41 40.549 L 26.41 40.549 L 26.41 40.549 L 26.41 40.549 L 26.41 40.549 L 26.41 40.549 L 26.41 40.549 L 26.41 40.549 L 26.41 40.549 Z  M 72.874 59.037 C 70.336 65.318 65.318 70.336 59.037 72.874 L 59.037 72.874 L 55.646 67 L 52.223 61.072 C 56.673 60.182 60.182 56.673 61.072 52.223 L 67 55.646 L 72.874 59.037 L 72.874 59.037 L 72.874 59.037 L 72.874 59.037 L 72.874 59.037 L 72.874 59.037 L 72.874 59.037 L 72.874 59.037 L 72.874 59.037 L 72.874 59.037 L 72.874 59.037 Z  M 73.075 40.847 C 70.645 34.425 65.644 29.262 59.331 26.617 L 55.646 33 L 52.223 38.928 C 56.673 39.818 60.182 43.327 61.072 47.777 L 67 44.354 L 73.075 40.847 L 73.075 40.847 L 73.075 40.847 L 73.075 40.847 L 73.075 40.847 L 73.075 40.847 L 73.075 40.847 L 73.075 40.847 L 73.075 40.847 L 73.075 40.847 L 73.075 40.847 Z  M 33.534 25.4 C 36.727 23.275 40.35 21.745 44.244 20.97 L 44.244 20.97 L 46.925 16.326 L 50 11 L 53.075 16.326 L 55.725 20.915 C 59.696 21.666 63.391 23.201 66.644 25.352 L 66.644 25.352 L 71.637 24.015 L 77.577 22.423 L 75.985 28.363 L 74.694 33.183 C 77.046 36.533 78.731 40.386 79.554 44.546 L 79.554 44.546 L 83.674 46.925 L 89 50 L 83.674 53.075 L 79.714 55.361 C 78.979 59.767 77.281 63.849 74.846 67.384 L 74.846 67.384 L 75.985 71.637 L 77.577 77.577 L 71.637 75.985 L 67.467 74.868 C 63.886 77.412 59.723 79.189 55.219 79.961 L 53.075 83.674 L 50 89 L 46.925 83.674 L 44.753 79.912 L 44.753 79.912 C 40.327 79.111 36.237 77.337 32.714 74.82 L 28.363 75.985 L 22.423 77.577 L 24.015 71.637 L 25.224 67.122 L 25.224 67.122 C 22.914 63.691 21.293 59.757 20.562 55.521 L 16.326 53.075 L 11 50 L 16.326 46.925 L 20.727 44.384 L 20.727 44.384 C 21.54 40.392 23.147 36.687 25.375 33.442 L 24.015 28.363 L 22.423 22.423 L 28.363 24.015 L 33.534 25.4 L 33.534 25.4 Z  M 55 50 C 55 47.24 52.76 45 50 45 C 47.24 45 45 47.24 45 50 C 45 52.76 47.24 55 50 55 C 52.76 55 55 52.76 55 50 Z " fill-rule="evenodd" fill="rgb(235,235,235)"/></svg>