<?xml version="1.0" encoding="UTF-8" standalone="no"?><!-- Generator: Gravit.io --><svg xmlns="http://www.w3.org/2000/svg" xmlns:xlink="http://www.w3.org/1999/xlink" style="isolation:isolate" viewBox="7 7 86 86" width="86pt" height="86pt"><path d=" M 86.464 41.218 C 86.721 42.287 86.932 43.374 87.095 44.477 C 88.276 46.512 90.48 47.878 93 47.878 L 93 52.122 C 90.48 52.122 88.276 53.488 87.095 55.523 L 87.095 55.523 C 86.9 56.841 86.637 58.136 86.303 59.404 C 86.594 61.741 88.089 63.862 90.411 64.848 L 88.752 68.755 C 86.422 67.766 83.847 68.17 81.961 69.596 L 81.961 69.596 C 81.394 70.512 80.789 71.402 80.148 72.263 C 79.522 74.554 80.108 77.107 81.906 78.905 L 78.905 81.906 C 77.106 80.108 74.551 79.521 72.259 80.148 L 72.259 80.148 C 71.229 80.915 70.157 81.63 69.045 82.284 C 67.579 84.147 67.125 86.721 68.076 89.074 L 64.14 90.664 C 63.195 88.325 61.1 86.792 58.767 86.461 L 58.767 86.461 C 57.707 86.715 56.63 86.924 55.537 87.086 C 53.495 88.266 52.122 90.474 52.122 93 L 47.878 93 C 47.878 90.474 46.505 88.266 44.463 87.086 L 44.463 87.086 C 43.154 86.892 41.867 86.631 40.608 86.301 C 38.266 86.589 36.139 88.085 35.152 90.411 L 31.245 88.752 C 32.235 86.42 31.829 83.843 30.401 81.956 L 30.401 81.956 C 29.488 81.391 28.6 80.788 27.741 80.148 L 27.741 80.148 C 25.449 79.521 22.894 80.108 21.095 81.906 L 18.094 78.905 C 19.892 77.107 20.478 74.554 19.852 72.263 C 19.083 71.23 18.367 70.156 17.712 69.042 L 17.712 69.042 C 15.849 67.578 13.277 67.126 10.926 68.076 L 9.336 64.14 C 11.67 63.197 13.201 61.109 13.536 58.782 C 13.279 57.713 13.068 56.626 12.905 55.523 L 12.905 55.523 C 11.724 53.488 9.52 52.122 7 52.122 L 7 47.878 C 9.52 47.878 11.724 46.512 12.905 44.477 C 13.1 43.159 13.363 41.864 13.697 40.596 L 13.697 40.596 C 13.406 38.259 11.911 36.138 9.589 35.152 L 11.248 31.245 C 13.578 32.234 16.153 31.83 18.039 30.404 C 18.606 29.488 19.211 28.598 19.852 27.737 L 19.852 27.737 C 20.478 25.446 19.892 22.893 18.094 21.095 L 21.095 18.094 C 22.894 19.892 25.449 20.479 27.741 19.852 C 28.771 19.085 29.843 18.37 30.955 17.716 L 30.955 17.716 C 32.421 15.853 32.875 13.279 31.924 10.926 L 35.86 9.336 C 36.805 11.675 38.9 13.208 41.233 13.539 C 42.293 13.285 43.37 13.076 44.463 12.914 L 44.463 12.914 C 46.505 11.734 47.878 9.526 47.878 7 L 52.122 7 C 52.122 9.526 53.495 11.734 55.537 12.914 C 56.846 13.108 58.133 13.369 59.392 13.699 L 59.392 13.699 C 61.734 13.411 63.861 11.915 64.848 9.589 L 68.755 11.248 C 67.765 13.58 68.171 16.157 69.599 18.044 C 70.512 18.609 71.4 19.212 72.259 19.852 C 74.551 20.479 77.106 19.892 78.905 18.094 L 81.906 21.095 C 80.108 22.893 79.522 25.446 80.148 27.737 L 80.148 27.737 C 80.917 28.77 81.633 29.844 82.288 30.958 C 84.151 32.422 86.723 32.874 89.074 31.924 L 90.664 35.86 C 88.33 36.803 86.799 38.891 86.464 41.218 Z  M 25.31 44.11 C 24.901 45.903 24.685 47.769 24.685 49.685 L 24.685 49.685 C 24.685 57.097 27.917 63.759 33.048 68.339 L 35.5 54.042 L 25.31 44.11 L 25.31 44.11 L 25.31 44.11 L 25.31 44.11 L 25.31 44.11 L 25.31 44.11 L 25.31 44.11 L 25.31 44.11 L 25.31 44.11 L 25.31 44.11 L 25.31 44.11 L 25.31 44.11 L 25.31 44.11 L 25.31 44.11 L 25.31 44.11 L 25.31 44.11 L 25.31 44.11 L 25.31 44.11 Z  M 27.068 39.027 C 30.714 31.309 38.196 25.753 47.047 24.823 L 41.039 36.997 L 27.068 39.027 L 27.068 39.027 L 27.068 39.027 L 27.068 39.027 L 27.068 39.027 L 27.068 39.027 L 27.068 39.027 L 27.068 39.027 L 27.068 39.027 L 27.068 39.027 L 27.068 39.027 L 27.068 39.027 L 27.068 39.027 L 27.068 39.027 L 27.068 39.027 L 27.068 39.027 L 27.068 39.027 L 27.068 39.027 Z  M 52.993 24.902 C 61.513 26.031 68.685 31.457 72.256 38.928 L 58.961 36.997 L 52.993 24.902 L 52.993 24.902 L 52.993 24.902 L 52.993 24.902 L 52.993 24.902 L 52.993 24.902 L 52.993 24.902 L 52.993 24.902 L 52.993 24.902 L 52.993 24.902 L 52.993 24.902 L 52.993 24.902 L 52.993 24.902 L 52.993 24.902 L 52.993 24.902 L 52.993 24.902 L 52.993 24.902 L 52.993 24.902 Z  M 74.17 44.617 C 74.508 46.253 74.685 47.949 74.685 49.685 C 74.685 56.831 71.68 63.281 66.866 67.839 L 64.5 54.042 L 74.17 44.617 L 74.17 44.617 L 74.17 44.617 L 74.17 44.617 L 74.17 44.617 L 74.17 44.617 L 74.17 44.617 L 74.17 44.617 L 74.17 44.617 L 74.17 44.617 L 74.17 44.617 L 74.17 44.617 L 74.17 44.617 L 74.17 44.617 L 74.17 44.617 L 74.17 44.617 L 74.17 44.617 L 74.17 44.617 Z  M 62.501 71.15 C 58.753 73.394 54.368 74.685 49.685 74.685 C 45.125 74.685 40.848 73.461 37.166 71.325 L 50 64.577 L 62.501 71.15 L 62.501 71.15 L 62.501 71.15 L 62.501 71.15 L 62.501 71.15 L 62.501 71.15 L 62.501 71.15 L 62.501 71.15 L 62.501 71.15 L 62.501 71.15 L 62.501 71.15 L 62.501 71.15 L 62.501 71.15 L 62.501 71.15 L 62.501 71.15 L 62.501 71.15 L 62.501 71.15 L 62.501 71.15 Z  M 39 50 C 39 43.929 43.929 39 50 39 C 56.071 39 61 43.929 61 50 C 61 56.071 56.071 61 50 61 C 43.929 61 39 56.071 39 50 L 39 50 L 39 50 L 39 50 L 39 50 L 39 50 L 39 50 L 39 50 L 39 50 L 39 50 L 39 50 L 39 50 L 39 50 L 39 50 L 39 50 L 39 50 L 39 50 Z " fill-rule="evenodd" fill="rgb(235,235,235)"/></svg>