<?xml version="1.0" encoding="UTF-8" standalone="no"?><!-- Generator: Gravit.io --><svg xmlns="http://www.w3.org/2000/svg" xmlns:xlink="http://www.w3.org/1999/xlink" style="isolation:isolate" viewBox="4 4 92 92" width="92pt" height="92pt"><path d=" M 86.042 39.618 C 86.646 41.717 87.072 43.892 87.302 46.125 L 92.797 46.125 L 96 49.328 L 96 50.672 L 92.797 53.875 L 87.302 53.875 L 87.302 53.875 C 87.049 56.331 86.559 58.717 85.855 61.01 L 90.909 63.155 L 92.606 67.355 L 92.081 68.592 L 87.88 70.289 L 82.821 68.141 L 82.821 68.141 C 81.745 70.083 80.502 71.919 79.11 73.63 L 83.002 77.522 L 83.002 82.052 L 82.052 83.002 L 77.522 83.002 L 73.63 79.11 L 73.63 79.11 C 71.751 80.638 69.721 81.988 67.566 83.134 L 69.625 88.229 L 67.855 92.399 L 66.609 92.902 L 62.439 91.132 L 60.382 86.042 L 60.382 86.042 C 58.283 86.646 56.108 87.072 53.875 87.302 L 53.875 92.797 L 50.672 96 L 49.328 96 L 46.125 92.797 L 46.125 87.302 L 46.125 87.302 C 43.669 87.049 41.283 86.559 38.99 85.855 L 36.845 90.909 L 32.645 92.606 L 31.408 92.081 L 29.711 87.88 L 31.859 82.821 L 31.859 82.821 C 29.917 81.745 28.081 80.502 26.37 79.11 L 26.37 79.11 L 22.478 83.002 L 17.948 83.002 L 16.998 82.052 L 16.998 77.522 L 20.89 73.63 C 19.362 71.751 18.012 69.721 16.866 67.566 L 16.866 67.566 L 11.771 69.625 L 7.601 67.855 L 7.098 66.609 L 8.868 62.439 L 13.958 60.382 C 13.354 58.283 12.928 56.108 12.698 53.875 L 12.698 53.875 L 7.203 53.875 L 4 50.672 L 4 49.328 L 7.203 46.125 L 12.698 46.125 C 12.951 43.669 13.441 41.283 14.145 38.99 L 14.145 38.99 L 9.091 36.845 L 7.394 32.645 L 7.919 31.408 L 12.12 29.711 L 17.179 31.859 C 18.255 29.917 19.498 28.081 20.89 26.37 L 20.89 26.37 L 16.998 22.478 L 16.998 17.948 L 17.948 16.998 L 22.478 16.998 L 26.37 20.89 C 28.249 19.362 30.279 18.012 32.434 16.866 L 32.434 16.866 L 30.375 11.771 L 32.145 7.601 L 33.391 7.098 L 37.561 8.868 L 39.618 13.958 C 41.717 13.354 43.892 12.928 46.125 12.698 L 46.125 12.698 L 46.125 7.203 L 49.328 4 L 50.672 4 L 53.875 7.203 L 53.875 12.698 C 56.331 12.951 58.717 13.441 61.01 14.145 L 61.01 14.145 L 63.155 9.091 L 67.355 7.394 L 68.592 7.919 L 70.289 12.12 L 68.141 17.179 C 70.083 18.255 71.919 19.498 73.63 20.89 L 77.522 16.998 L 82.052 16.998 L 83.002 17.948 L 83.002 22.478 L 79.11 26.37 L 79.11 26.37 C 80.638 28.249 81.988 30.279 83.134 32.434 L 88.229 30.375 L 92.399 32.145 L 92.902 33.391 L 91.132 37.561 L 86.042 39.618 Z  M 35 50 C 35 41.721 41.721 35 50 35 C 58.279 35 65 41.721 65 50 C 65 58.279 58.279 65 50 65 C 41.721 65 35 58.279 35 50 L 35 50 L 35 50 L 35 50 L 35 50 L 35 50 L 35 50 L 35 50 L 35 50 L 35 50 L 35 50 L 35 50 L 35 50 L 35 50 L 35 50 L 35 50 L 35 50 L 35 50 L 35 50 L 35 50 L 35 50 L 35 50 L 35 50 L 35 50 L 35 50 Z  M 45.804 25.196 C 45.804 22.88 47.684 21 50 21 C 52.316 21 54.196 22.88 54.196 25.196 C 54.196 27.512 52.316 29.393 50 29.393 C 47.684 29.393 45.804 27.512 45.804 25.196 L 45.804 25.196 L 45.804 25.196 L 45.804 25.196 L 45.804 25.196 L 45.804 25.196 L 45.804 25.196 L 45.804 25.196 L 45.804 25.196 L 45.804 25.196 L 45.804 25.196 L 45.804 25.196 L 45.804 25.196 L 45.804 25.196 L 45.804 25.196 L 45.804 25.196 L 45.804 25.196 L 45.804 25.196 L 45.804 25.196 L 45.804 25.196 L 45.804 25.196 L 45.804 25.196 L 45.804 25.196 L 45.804 25.196 Z  M 45.804 75.196 C 45.804 72.88 47.684 71 50 71 C 52.316 71 54.196 72.88 54.196 75.196 C 54.196 77.512 52.316 79.393 50 79.393 C 47.684 79.393 45.804 77.512 45.804 75.196 L 45.804 75.196 L 45.804 75.196 L 45.804 75.196 L 45.804 75.196 L 45.804 75.196 L 45.804 75.196 L 45.804 75.196 L 45.804 75.196 L 45.804 75.196 L 45.804 75.196 L 45.804 75.196 L 45.804 75.196 L 45.804 75.196 L 45.804 75.196 L 45.804 75.196 L 45.804 75.196 L 45.804 75.196 L 45.804 75.196 L 45.804 75.196 L 45.804 75.196 L 45.804 75.196 L 45.804 75.196 Z  M 75 46 C 77.316 46 79.196 47.88 79.196 50.196 C 79.196 52.512 77.316 54.393 75 54.393 C 72.684 54.393 70.804 52.512 70.804 50.196 C 70.804 47.88 72.684 46 75 46 L 75 46 L 75 46 L 75 46 L 75 46 L 75 46 L 75 46 L 75 46 L 75 46 L 75 46 L 75 46 L 75 46 L 75 46 L 75 46 L 75 46 L 75 46 L 75 46 L 75 46 L 75 46 L 75 46 L 75 46 L 75 46 Z  M 25 46 C 27.316 46 29.196 47.88 29.196 50.196 C 29.196 52.512 27.316 54.393 25 54.393 C 22.684 54.393 20.804 52.512 20.804 50.196 C 20.804 47.88 22.684 46 25 46 L 25 46 L 25 46 L 25 46 L 25 46 L 25 46 L 25 46 L 25 46 L 25 46 L 25 46 L 25 46 L 25 46 L 25 46 L 25 46 L 25 46 L 25 46 L 25 46 L 25 46 L 25 46 L 25 46 L 25 46 Z  M 64.71 29.551 C 66.348 27.914 69.007 27.914 70.645 29.551 C 72.283 31.189 72.283 33.848 70.645 35.486 C 69.007 37.124 66.348 37.124 64.71 35.486 C 63.073 33.848 63.073 31.189 64.71 29.551 L 64.71 29.551 L 64.71 29.551 L 64.71 29.551 L 64.71 29.551 L 64.71 29.551 L 64.71 29.551 L 64.71 29.551 L 64.71 29.551 L 64.71 29.551 L 64.71 29.551 L 64.71 29.551 L 64.71 29.551 L 64.71 29.551 L 64.71 29.551 L 64.71 29.551 L 64.71 29.551 L 64.71 29.551 L 64.71 29.551 L 64.71 29.551 Z  M 29.355 64.907 C 30.993 63.269 33.652 63.269 35.29 64.907 C 36.927 66.544 36.927 69.204 35.29 70.841 C 33.652 72.479 30.993 72.479 29.355 70.841 C 27.717 69.204 27.717 66.544 29.355 64.907 L 29.355 64.907 L 29.355 64.907 L 29.355 64.907 L 29.355 64.907 L 29.355 64.907 L 29.355 64.907 L 29.355 64.907 L 29.355 64.907 L 29.355 64.907 L 29.355 64.907 L 29.355 64.907 L 29.355 64.907 L 29.355 64.907 L 29.355 64.907 L 29.355 64.907 L 29.355 64.907 L 29.355 64.907 L 29.355 64.907 Z  M 70.645 64.907 C 72.283 66.544 72.283 69.204 70.645 70.841 C 69.007 72.479 66.348 72.479 64.71 70.841 C 63.073 69.204 63.073 66.544 64.71 64.907 C 66.348 63.269 69.007 63.269 70.645 64.907 L 70.645 64.907 L 70.645 64.907 L 70.645 64.907 L 70.645 64.907 L 70.645 64.907 L 70.645 64.907 L 70.645 64.907 L 70.645 64.907 L 70.645 64.907 L 70.645 64.907 L 70.645 64.907 L 70.645 64.907 L 70.645 64.907 L 70.645 64.907 L 70.645 64.907 L 70.645 64.907 L 70.645 64.907 Z  M 35.29 29.551 C 36.927 31.189 36.927 33.848 35.29 35.486 C 33.652 37.124 30.993 37.124 29.355 35.486 C 27.717 33.848 27.717 31.189 29.355 29.551 C 30.993 27.914 33.652 27.914 35.29 29.551 L 35.29 29.551 L 35.29 29.551 L 35.29 29.551 L 35.29 29.551 L 35.29 29.551 L 35.29 29.551 L 35.29 29.551 L 35.29 29.551 L 35.29 29.551 L 35.29 29.551 L 35.29 29.551 L 35.29 29.551 L 35.29 29.551 L 35.29 29.551 L 35.29 29.551 L 35.29 29.551 Z " fill-rule="evenodd" fill="rgb(235,235,235)"/></svg>