<?xml version="1.0" encoding="UTF-8" standalone="no"?><!-- Generator: Gravit.io --><svg xmlns="http://www.w3.org/2000/svg" xmlns:xlink="http://www.w3.org/1999/xlink" style="isolation:isolate" viewBox="11 11 78 78" width="78pt" height="78pt"><path d=" M 54.507 41.076 C 53.154 40.387 51.622 40 50 40 C 48.618 40 47.3 40.281 46.106 40.796 L 46.106 40.796 C 46.453 40.176 46.83 39.572 47.24 38.99 C 47.72 38.31 48.25 37.68 48.82 37.1 C 49.44 36.48 50.1 35.93 50.82 35.44 C 51.53 34.96 52.29 34.55 53.08 34.22 C 53.92 33.86 54.81 33.59 55.71 33.4 C 56.77 33.18 57.84 33.05 58.92 33.01 C 60.01 32.97 61.1 33.04 62.17 33.21 C 63.1 33.37 64 33.62 64.87 33.97 C 65.71 34.31 66.51 34.75 67.26 35.26 C 68.06 35.83 68.81 36.47 69.48 37.19 C 70.1 37.85 70.66 38.57 71.17 39.32 C 71.78 40.25 72.33 41.22 72.81 42.22 C 73.33 43.29 73.78 44.4 74.17 45.53 C 74.433 46.309 74.679 47.094 74.894 47.888 C 74.97 48.581 75 49.287 75 50 C 75 56.811 72.271 62.989 67.834 67.487 C 68.119 66.995 68.363 66.479 68.58 65.95 C 69.02 64.87 69.33 63.75 69.52 62.61 C 69.72 61.34 69.8 60.05 69.76 58.77 C 69.71 57.52 69.56 56.27 69.31 55.05 C 69.08 53.95 68.75 52.89 68.32 51.86 C 67.91 50.89 67.4 49.96 66.81 49.09 C 66.22 48.21 65.54 47.39 64.79 46.65 C 64.08 45.95 63.32 45.31 62.51 44.74 C 61.61 44.1 60.66 43.54 59.68 43.04 C 58.52 42.46 57.33 41.96 56.1 41.56 C 55.573 41.387 55.042 41.223 54.507 41.076 Z  M 59.253 46.224 C 59.737 47.387 60 48.663 60 50 L 60 50 L 60 50 L 60 50 L 60 50 L 60 50 L 60 50 L 60 50 L 60 50 L 60 50 L 60 50 C 60 51.694 59.578 53.291 58.826 54.686 C 58.707 55.072 58.586 55.457 58.46 55.84 C 58.06 57.07 57.56 58.26 56.98 59.42 C 56.48 60.4 55.92 61.35 55.28 62.25 C 54.71 63.06 54.07 63.82 53.37 64.53 C 52.63 65.28 51.81 65.96 50.93 66.55 C 50.06 67.14 49.13 67.65 48.16 68.06 C 47.13 68.49 46.07 68.82 44.97 69.05 C 43.75 69.3 42.5 69.45 41.25 69.5 C 39.97 69.54 38.68 69.46 37.41 69.26 C 36.27 69.07 35.15 68.76 34.07 68.32 C 33.326 68.015 32.606 67.655 31.922 67.244 C 36.468 72.025 42.889 75 50 75 C 50.5 75 50.996 74.985 51.489 74.958 C 52.415 74.71 53.332 74.427 54.24 74.12 C 55.37 73.73 56.48 73.28 57.55 72.76 C 58.55 72.28 59.52 71.73 60.45 71.12 C 61.2 70.61 61.92 70.05 62.58 69.43 C 63.3 68.76 63.94 68.01 64.51 67.21 C 65.02 66.46 65.46 65.66 65.8 64.82 C 66.15 63.95 66.4 63.05 66.56 62.12 C 66.73 61.05 66.8 59.96 66.76 58.87 C 66.72 57.79 66.59 56.72 66.37 55.66 C 66.18 54.76 65.91 53.87 65.55 53.03 C 65.22 52.24 64.81 51.48 64.33 50.77 C 63.84 50.05 63.29 49.39 62.67 48.77 C 62.09 48.2 61.46 47.67 60.78 47.19 C 60.287 46.842 59.778 46.519 59.253 46.224 Z  M 41.054 45.535 C 40.379 46.878 40 48.395 40 50 C 40 51.417 40.296 52.766 40.835 53.985 L 40.835 53.985 C 40.201 53.633 39.584 53.249 38.99 52.83 C 38.31 52.35 37.68 51.82 37.1 51.25 C 36.48 50.63 35.93 49.97 35.44 49.25 C 34.96 48.54 34.55 47.78 34.22 46.99 C 33.86 46.15 33.59 45.26 33.4 44.36 C 33.18 43.3 33.05 42.23 33.01 41.15 C 32.97 40.06 33.04 38.97 33.21 37.9 C 33.37 36.97 33.62 36.07 33.97 35.2 C 34.31 34.36 34.75 33.56 35.26 32.81 C 35.83 32.01 36.47 31.26 37.19 30.59 C 37.85 29.97 38.57 29.41 39.32 28.9 C 40.25 28.29 41.22 27.74 42.22 27.26 C 43.29 26.74 44.4 26.29 45.53 25.9 C 46.432 25.595 47.343 25.314 48.263 25.067 C 48.835 25.02 49.415 25 50 25 C 56.526 25 62.471 27.506 66.926 31.605 C 66.623 31.457 66.314 31.318 66 31.19 C 64.92 30.75 63.8 30.44 62.66 30.25 C 61.39 30.05 60.1 29.97 58.82 30.01 C 57.57 30.06 56.32 30.21 55.1 30.46 C 54 30.69 52.94 31.02 51.91 31.45 C 50.94 31.86 50.01 32.37 49.14 32.96 C 48.26 33.55 47.44 34.23 46.7 34.98 C 46 35.69 45.36 36.45 44.79 37.26 C 44.15 38.16 43.59 39.11 43.09 40.09 C 42.51 41.25 42.01 42.44 41.61 43.67 C 41.407 44.286 41.218 44.907 41.054 45.535 L 41.054 45.535 Z  M 45.883 59.109 C 47.137 59.683 48.532 60 50 60 C 51.267 60 52.48 59.764 53.594 59.331 L 53.594 59.331 C 53.359 59.739 53.102 60.134 52.83 60.52 C 52.35 61.2 51.82 61.83 51.25 62.41 C 50.63 63.03 49.97 63.58 49.25 64.07 C 48.54 64.55 47.78 64.96 46.99 65.29 C 46.15 65.65 45.26 65.92 44.36 66.11 C 43.3 66.33 42.23 66.46 41.15 66.5 C 40.06 66.54 38.97 66.47 37.9 66.3 C 36.97 66.14 36.07 65.89 35.2 65.54 C 34.36 65.2 33.56 64.76 32.81 64.25 C 32.01 63.68 31.26 63.04 30.59 62.32 C 29.97 61.66 29.41 60.94 28.9 60.19 C 28.29 59.26 27.74 58.29 27.26 57.29 C 26.74 56.22 26.29 55.11 25.9 53.98 C 25.576 53.021 25.279 52.054 25.018 51.076 C 25.008 50.718 25 50.36 25 50 L 25 50 L 25 50 L 25 50 L 25 50 L 25 50 L 25 50 L 25 50 L 25 50 L 25 50 L 25 50 L 25 50 C 25 43.432 27.538 37.453 31.687 32.991 C 31.504 33.341 31.34 33.703 31.19 34.07 C 30.75 35.15 30.44 36.27 30.25 37.41 C 30.05 38.68 29.97 39.97 30.01 41.25 C 30.06 42.5 30.21 43.75 30.46 44.97 C 30.69 46.07 31.02 47.13 31.45 48.16 C 31.86 49.13 32.37 50.06 32.96 50.93 C 33.55 51.81 34.23 52.63 34.98 53.37 C 35.69 54.07 36.45 54.71 37.26 55.28 C 38.16 55.92 39.11 56.48 40.09 56.98 C 41.25 57.56 42.44 58.06 43.67 58.46 C 44.401 58.7 45.138 58.921 45.883 59.109 L 45.883 59.109 L 45.883 59.109 Z  M 56.5 50 C 56.5 46.413 53.587 43.5 50 43.5 C 46.413 43.5 43.5 46.413 43.5 50 C 43.5 53.587 46.413 56.5 50 56.5 C 53.587 56.5 56.5 53.587 56.5 50 L 56.5 50 L 56.5 50 L 56.5 50 L 56.5 50 Z  M 33.534 25.4 C 36.727 23.275 40.35 21.745 44.244 20.97 L 44.244 20.97 L 46.925 16.326 L 50 11 L 53.075 16.326 L 55.725 20.915 C 59.696 21.666 63.391 23.201 66.644 25.352 L 66.644 25.352 L 71.637 24.015 L 77.577 22.423 L 75.985 28.363 L 74.694 33.183 C 77.046 36.533 78.731 40.386 79.554 44.546 L 79.554 44.546 L 83.674 46.925 L 89 50 L 83.674 53.075 L 79.714 55.361 C 78.979 59.767 77.281 63.849 74.846 67.384 L 74.846 67.384 L 75.985 71.637 L 77.577 77.577 L 71.637 75.985 L 67.467 74.868 C 63.886 77.412 59.723 79.189 55.219 79.961 L 53.075 83.674 L 50 89 L 46.925 83.674 L 44.753 79.912 L 44.753 79.912 C 40.327 79.111 36.237 77.337 32.714 74.82 L 28.363 75.985 L 22.423 77.577 L 24.015 71.637 L 25.224 67.122 L 25.224 67.122 C 22.914 63.691 21.293 59.757 20.562 55.521 L 16.326 53.075 L 11 50 L 16.326 46.925 L 20.727 44.384 L 20.727 44.384 C 21.54 40.392 23.147 36.687 25.375 33.442 L 24.015 28.363 L 22.423 22.423 L 28.363 24.015 L 33.534 25.4 L 33.534 25.4 L 33.534 25.4 L 33.534 25.4 L 33.534 25.4 L 33.534 25.4 Z " fill-rule="evenodd" fill="rgb(235,235,235)"/></svg>