<?xml version="1.0" encoding="UTF-8" standalone="no"?><!-- Generator: Gravit.io --><svg xmlns="http://www.w3.org/2000/svg" xmlns:xlink="http://www.w3.org/1999/xlink" style="isolation:isolate" viewBox="11 11 78 78" width="78pt" height="78pt"><path d=" M 43.777 46.403 C 47.508 48.691 50 52.807 50 57.5 L 50 57.5 C 50 64.675 44.175 70.5 37 70.5 C 34.006 70.5 31.246 69.485 29.05 67.779 L 29.05 67.779 C 34.082 73.729 41.604 77.5 50 77.5 C 58.396 77.5 65.918 73.729 70.95 67.779 L 70.95 67.779 C 68.754 69.485 65.994 70.5 63 70.5 C 55.825 70.5 50 64.675 50 57.5 L 50 57.5 C 50 52.807 52.492 48.691 56.223 46.403 C 54.378 47.424 52.256 48 50 48 C 47.744 48 45.622 47.424 43.777 46.403 L 43.777 46.403 L 43.777 46.403 L 43.777 46.403 Z  M 43.223 46.097 C 41.378 45.076 39.256 44.5 37 44.5 C 29.825 44.5 24 50.325 24 57.5 C 24 58.136 24.046 58.76 24.134 59.372 C 23.079 56.444 22.5 53.289 22.5 50 L 22.5 50 L 22.5 50 L 22.5 50 L 22.5 50 L 22.5 50 L 22.5 50 L 22.5 50 L 22.5 50 L 22.5 50 L 22.5 50 L 22.5 50 L 22.5 50 L 22.5 50 L 22.5 50 L 22.5 50 L 22.5 50 L 22.5 50 L 22.5 50 L 22.5 50 L 22.5 50 L 22.5 50 L 22.5 50 L 22.5 50 L 22.5 50 L 22.5 50 C 22.5 36.472 32.289 25.212 45.169 22.937 C 40.381 24.85 37 29.533 37 35 C 37 39.693 39.492 43.809 43.223 46.097 L 43.223 46.097 L 43.223 46.097 L 43.223 46.097 Z  M 54.831 22.937 C 67.711 25.212 77.5 36.472 77.5 50 C 77.5 53.289 76.921 56.444 75.866 59.372 C 75.954 58.76 76 58.136 76 57.5 C 76 50.325 70.175 44.5 63 44.5 C 60.744 44.5 58.622 45.076 56.777 46.097 C 60.508 43.809 63 39.693 63 35 C 63 29.533 59.619 24.85 54.831 22.937 L 54.831 22.937 L 54.831 22.937 L 54.831 22.937 Z  M 27.25 57.5 C 27.25 52.119 31.619 47.75 37 47.75 C 42.381 47.75 46.75 52.119 46.75 57.5 C 46.75 62.881 42.381 67.25 37 67.25 C 31.619 67.25 27.25 62.881 27.25 57.5 L 27.25 57.5 L 27.25 57.5 Z  M 53.25 57.5 C 53.25 52.119 57.619 47.75 63 47.75 C 68.381 47.75 72.75 52.119 72.75 57.5 C 72.75 62.881 68.381 67.25 63 67.25 C 57.619 67.25 53.25 62.881 53.25 57.5 L 53.25 57.5 Z  M 67.108 22.368 C 68.956 23.516 70.682 24.844 72.259 26.327 L 76.87 21.716 L 78.284 23.13 L 73.673 27.741 L 73.673 27.741 C 75.156 29.318 76.484 31.044 77.632 32.892 L 83.275 29.634 L 84.275 31.366 L 78.634 34.623 L 78.634 34.623 C 79.655 36.519 80.493 38.527 81.125 40.625 L 87.412 38.94 L 87.93 40.872 L 81.642 42.557 L 81.642 42.557 C 82.13 44.635 82.418 46.79 82.485 49 L 89 49 L 89 51 L 82.485 51 L 82.485 51 C 82.418 53.21 82.13 55.365 81.642 57.443 L 87.93 59.128 L 87.412 61.06 L 81.125 59.375 L 81.125 59.375 C 80.493 61.473 79.655 63.481 78.634 65.377 L 84.275 68.634 L 83.275 70.366 L 77.632 67.108 L 77.632 67.108 C 76.484 68.956 75.156 70.682 73.673 72.259 L 78.284 76.87 L 76.87 78.284 L 72.259 73.673 L 72.259 73.673 C 70.682 75.156 68.956 76.484 67.108 77.632 L 70.366 83.275 L 68.634 84.275 L 65.377 78.634 L 65.377 78.634 C 63.481 79.655 61.473 80.493 59.375 81.125 L 61.06 87.412 L 59.128 87.93 L 57.443 81.642 L 57.443 81.642 C 55.365 82.13 53.21 82.418 51 82.485 L 51 89 L 49 89 L 49 82.485 L 49 82.485 C 46.79 82.418 44.635 82.13 42.557 81.642 L 42.557 81.642 L 40.872 87.93 L 38.94 87.412 L 40.625 81.125 C 38.527 80.493 36.519 79.655 34.623 78.634 L 34.623 78.634 L 31.366 84.275 L 29.634 83.275 L 32.892 77.632 C 31.044 76.484 29.318 75.156 27.741 73.673 L 27.741 73.673 L 23.13 78.284 L 21.716 76.87 L 26.327 72.259 C 24.844 70.682 23.516 68.956 22.368 67.108 L 22.368 67.108 L 16.725 70.366 L 15.725 68.634 L 21.366 65.377 C 20.345 63.481 19.507 61.473 18.875 59.375 L 18.875 59.375 L 12.588 61.06 L 12.07 59.128 L 18.358 57.443 C 17.87 55.365 17.582 53.21 17.515 51 L 17.515 51 L 11 51 L 11 49 L 17.515 49 C 17.582 46.79 17.87 44.635 18.358 42.557 L 18.358 42.557 L 12.07 40.872 L 12.588 38.94 L 18.875 40.625 C 19.507 38.527 20.345 36.519 21.366 34.623 L 21.366 34.623 L 15.725 31.366 L 16.725 29.634 L 22.368 32.892 C 23.516 31.044 24.844 29.318 26.327 27.741 L 26.327 27.741 L 21.716 23.13 L 23.13 21.716 L 27.741 26.327 C 29.318 24.844 31.044 23.516 32.892 22.368 L 32.892 22.368 L 29.634 16.725 L 31.366 15.725 L 34.623 21.366 C 36.519 20.345 38.527 19.507 40.625 18.875 L 40.625 18.875 L 38.94 12.588 L 40.872 12.07 L 42.557 18.358 C 44.635 17.87 46.79 17.582 49 17.515 L 49 17.515 L 49 11 L 51 11 L 51 17.515 C 53.21 17.582 55.365 17.87 57.443 18.358 L 59.128 12.07 L 61.06 12.588 L 59.375 18.875 L 59.375 18.875 C 61.473 19.507 63.481 20.345 65.377 21.366 L 68.634 15.725 L 70.366 16.725 L 67.108 22.368 L 67.108 22.368 L 67.108 22.368 L 67.108 22.368 L 67.108 22.368 L 67.108 22.368 L 67.108 22.368 Z  M 40.25 35 C 40.25 29.619 44.619 25.25 50 25.25 C 55.381 25.25 59.75 29.619 59.75 35 C 59.75 40.381 55.381 44.75 50 44.75 C 44.619 44.75 40.25 40.381 40.25 35 Z " fill-rule="evenodd" fill="rgb(235,235,235)"/></svg>