<?xml version="1.0" encoding="UTF-8" standalone="no"?><!-- Generator: Gravit.io --><svg xmlns="http://www.w3.org/2000/svg" xmlns:xlink="http://www.w3.org/1999/xlink" style="isolation:isolate" viewBox="7 7 86 86" width="86pt" height="86pt"><path d=" M 54 62.372 L 54 79.735 L 54 79.735 C 67.36 77.952 77.951 67.362 79.735 54.002 L 79.735 54.002 L 62.371 54.002 C 61.09 57.961 57.959 61.091 54 62.372 L 54 62.372 Z  M 46 62.372 L 46 79.735 C 32.639 77.952 22.048 67.361 20.265 54 L 37.628 54 C 38.909 57.96 42.04 61.091 46 62.372 L 46 62.372 Z  M 37.628 46 L 20.265 46 L 20.265 46 C 22.048 32.639 32.639 22.048 46 20.265 L 46 20.265 L 46 37.628 C 42.04 38.909 38.909 42.04 37.628 46 L 37.628 46 Z  M 54 37.628 L 54 20.265 C 67.361 22.048 77.953 32.641 79.735 46.002 L 62.373 46.002 C 61.092 42.041 57.961 38.909 54 37.628 L 54 37.628 Z  M 46.5 12.661 L 46.5 7 L 53.5 7 L 53.5 7 L 53.5 7 L 53.5 7 L 53.5 7 L 53.5 7 L 53.5 7 L 53.5 7 L 53.5 7 L 53.5 7 L 53.5 7 L 53.5 7 L 53.5 7 L 53.5 7 L 53.5 7 L 53.5 7 L 53.5 7 L 53.5 7 L 53.5 7 L 53.5 7 L 53.5 7 L 53.5 7 L 53.5 7 L 53.5 7 L 53.5 12.661 C 54.438 12.749 55.367 12.87 56.284 13.025 L 56.284 13.025 L 57.748 7.559 L 64.51 9.371 L 63.046 14.835 C 63.926 15.162 64.791 15.522 65.639 15.912 L 65.639 15.912 L 68.469 11.011 L 74.531 14.511 L 71.697 19.419 C 72.46 19.962 73.202 20.532 73.922 21.129 L 73.922 21.129 L 77.931 17.12 L 82.88 22.069 L 78.871 26.078 C 79.468 26.798 80.038 27.54 80.581 28.303 L 80.581 28.303 L 85.489 25.469 L 88.989 31.531 L 84.088 34.361 C 84.478 35.209 84.838 36.074 85.165 36.954 L 85.165 36.954 L 90.629 35.49 L 92.441 42.252 L 86.975 43.716 C 87.13 44.633 87.251 45.562 87.339 46.5 L 87.339 46.5 L 93 46.5 L 93 53.5 L 87.339 53.5 C 87.251 54.438 87.13 55.367 86.975 56.284 L 92.441 57.748 L 90.629 64.51 L 90.629 64.51 L 90.629 64.51 L 85.165 63.046 C 84.838 63.926 84.478 64.791 84.088 65.639 L 84.088 65.639 L 88.989 68.469 L 85.489 74.531 L 80.581 71.697 C 80.038 72.46 79.468 73.202 78.871 73.922 L 78.871 73.922 L 82.88 77.931 L 77.931 82.88 L 73.922 78.871 C 73.202 79.468 72.46 80.038 71.697 80.581 L 74.531 85.489 L 68.469 88.989 L 68.469 88.989 L 68.469 88.989 L 68.469 88.989 L 68.469 88.989 L 68.469 88.989 L 68.469 88.989 L 65.639 84.088 C 64.791 84.478 63.926 84.838 63.046 85.165 L 63.046 85.165 L 64.51 90.629 L 57.748 92.441 L 56.284 86.975 C 55.367 87.13 54.438 87.251 53.5 87.339 L 53.5 87.339 L 53.5 93 L 46.5 93 L 46.5 87.339 C 45.562 87.251 44.633 87.13 43.716 86.975 L 42.252 92.441 L 35.49 90.629 L 35.49 90.629 L 35.49 90.629 L 35.49 90.629 L 35.49 90.629 L 36.954 85.165 C 36.074 84.838 35.209 84.478 34.361 84.088 L 31.531 88.989 L 25.469 85.489 L 25.469 85.489 L 25.469 85.489 L 25.469 85.489 L 25.469 85.489 L 25.469 85.489 L 25.469 85.489 L 25.469 85.489 L 25.469 85.489 L 25.469 85.489 L 25.469 85.489 L 28.303 80.581 C 27.54 80.038 26.798 79.468 26.078 78.871 L 22.069 82.88 L 17.12 77.931 L 17.12 77.931 L 17.12 77.931 L 17.12 77.931 L 17.12 77.931 L 17.12 77.931 L 17.12 77.931 L 17.12 77.931 L 17.12 77.931 L 17.12 77.931 L 17.12 77.931 L 17.12 77.931 L 17.12 77.931 L 17.12 77.931 L 17.12 77.931 L 17.12 77.931 L 17.12 77.931 L 17.12 77.931 L 17.12 77.931 L 21.129 73.922 C 20.532 73.202 19.962 72.46 19.419 71.697 L 14.511 74.531 L 11.011 68.469 L 11.011 68.469 L 11.011 68.469 L 11.011 68.469 L 11.011 68.469 L 11.011 68.469 L 11.011 68.469 L 11.011 68.469 L 11.011 68.469 L 15.912 65.639 C 15.522 64.791 15.162 63.926 14.835 63.046 L 9.371 64.51 L 7.559 57.748 L 7.559 57.748 L 7.559 57.748 L 7.559 57.748 L 7.559 57.748 L 7.559 57.748 L 7.559 57.748 L 7.559 57.748 L 7.559 57.748 L 7.559 57.748 L 7.559 57.748 L 7.559 57.748 L 7.559 57.748 L 7.559 57.748 L 7.559 57.748 L 13.025 56.284 C 12.87 55.367 12.749 54.438 12.661 53.5 L 7 53.5 L 7 46.5 L 7 46.5 L 7 46.5 L 7 46.5 L 7 46.5 L 7 46.5 L 7 46.5 L 7 46.5 L 7 46.5 L 7 46.5 L 7 46.5 L 7 46.5 L 7 46.5 L 7 46.5 L 7 46.5 L 7 46.5 L 7 46.5 L 7 46.5 L 7 46.5 L 7 46.5 L 7 46.5 L 7 46.5 L 7 46.5 L 12.661 46.5 C 12.749 45.562 12.87 44.633 13.025 43.716 L 13.025 43.716 L 7.559 42.252 L 9.371 35.49 L 14.835 36.954 C 15.162 36.074 15.522 35.209 15.912 34.361 L 11.011 31.531 L 14.511 25.469 L 14.511 25.469 L 14.511 25.469 L 14.511 25.469 L 14.511 25.469 L 14.511 25.469 L 14.511 25.469 L 14.511 25.469 L 14.511 25.469 L 14.511 25.469 L 14.511 25.469 L 14.511 25.469 L 14.511 25.469 L 19.419 28.303 C 19.962 27.54 20.532 26.798 21.129 26.078 L 17.12 22.069 L 22.069 17.12 L 22.069 17.12 L 22.069 17.12 L 22.069 17.12 L 22.069 17.12 L 22.069 17.12 L 22.069 17.12 L 22.069 17.12 L 22.069 17.12 L 22.069 17.12 L 22.069 17.12 L 22.069 17.12 L 22.069 17.12 L 22.069 17.12 L 22.069 17.12 L 22.069 17.12 L 22.069 17.12 L 22.069 17.12 L 22.069 17.12 L 22.069 17.12 L 22.069 17.12 L 26.078 21.129 C 26.798 20.532 27.54 19.962 28.303 19.419 L 28.303 19.419 L 25.469 14.511 L 31.531 11.011 L 34.361 15.912 C 35.209 15.522 36.074 15.162 36.954 14.835 L 35.49 9.371 L 42.252 7.559 L 42.252 7.559 L 42.252 7.559 L 42.252 7.559 L 42.252 7.559 L 42.252 7.559 L 42.252 7.559 L 42.252 7.559 L 42.252 7.559 L 42.252 7.559 L 42.252 7.559 L 42.252 7.559 L 42.252 7.559 L 42.252 7.559 L 42.252 7.559 L 42.252 7.559 L 42.252 7.559 L 43.716 13.025 C 44.633 12.87 45.562 12.749 46.5 12.661 L 46.5 12.661 L 46.5 12.661 L 46.5 12.661 L 46.5 12.661 L 46.5 12.661 L 46.5 12.661 Z  M 45 50 C 45 47.24 47.24 45 50 45 C 52.76 45 55 47.24 55 50 C 55 52.76 52.76 55 50 55 C 47.24 55 45 52.76 45 50 Z " fill-rule="evenodd" fill="rgb(235,235,235)"/></svg>