<?xml version="1.0" encoding="UTF-8" standalone="no"?><!-- Generator: Gravit.io --><svg xmlns="http://www.w3.org/2000/svg" xmlns:xlink="http://www.w3.org/1999/xlink" style="isolation:isolate" viewBox="7 7 86 86" width="86pt" height="86pt"><path d=" M 40.495 18.392 C 38.355 19.035 36.306 19.89 34.373 20.933 L 34.373 20.933 L 34.373 20.933 L 34.373 20.933 L 34.373 20.933 L 34.373 20.933 L 34.373 20.933 L 34.373 20.933 L 47.068 42.922 L 40.495 18.392 L 40.495 18.392 Z  M 42.427 17.875 C 44.547 17.376 46.745 17.082 49 17.015 L 49 17.015 L 49 42.404 L 42.427 17.875 L 42.427 17.875 Z  M 59.505 81.608 C 61.645 80.965 63.694 80.11 65.627 79.067 L 65.627 79.067 L 65.627 79.067 L 65.627 79.067 L 65.627 79.067 L 65.627 79.067 L 65.627 79.067 L 65.627 79.067 L 52.932 57.078 L 59.505 81.608 L 59.505 81.608 Z  M 57.573 82.125 C 55.453 82.624 53.255 82.918 51 82.985 L 51 57.596 L 57.573 82.125 L 57.573 82.125 Z  M 18.392 59.505 C 19.035 61.645 19.89 63.694 20.933 65.627 L 20.933 65.627 L 20.933 65.627 L 20.933 65.627 L 20.933 65.627 L 20.933 65.627 L 42.922 52.932 L 18.392 59.505 L 18.392 59.505 L 18.392 59.505 Z  M 17.875 57.573 C 17.376 55.453 17.082 53.255 17.015 51 L 17.015 51 L 17.015 51 L 42.404 51 L 17.875 57.573 L 17.875 57.573 L 17.875 57.573 Z  M 81.608 40.495 C 80.965 38.355 80.11 36.306 79.067 34.373 L 79.067 34.373 L 79.067 34.373 L 79.067 34.373 L 79.067 34.373 L 79.067 34.373 L 57.078 47.068 L 81.608 40.495 L 81.608 40.495 L 81.608 40.495 Z  M 82.125 42.427 C 82.624 44.547 82.918 46.745 82.985 49 L 82.985 49 L 82.985 49 L 57.596 49 L 82.125 42.427 L 82.125 42.427 L 82.125 42.427 Z  M 34.373 79.067 C 36.306 80.11 38.355 80.965 40.495 81.608 L 40.495 81.608 L 40.495 81.608 L 47.068 57.078 L 34.373 79.067 L 34.373 79.067 L 34.373 79.067 L 34.373 79.067 Z  M 32.642 78.065 C 30.756 76.895 28.996 75.541 27.388 74.026 L 27.388 74.026 L 27.388 74.026 L 27.388 74.026 L 27.388 74.026 L 45.336 56.078 L 32.642 78.065 L 32.642 78.065 L 32.642 78.065 L 32.642 78.065 Z  M 65.627 20.933 C 63.694 19.89 61.645 19.035 59.505 18.392 L 59.505 18.392 L 59.505 18.392 L 52.932 42.922 L 65.627 20.933 L 65.627 20.933 L 65.627 20.933 L 65.627 20.933 Z  M 67.358 21.935 C 69.244 23.105 71.004 24.459 72.612 25.974 L 72.612 25.974 L 72.612 25.974 L 72.612 25.974 L 72.612 25.974 L 54.664 43.922 L 67.358 21.935 L 67.358 21.935 L 67.358 21.935 L 67.358 21.935 Z  M 20.933 34.373 C 19.89 36.306 19.035 38.355 18.392 40.495 L 18.392 40.495 L 18.392 40.495 L 42.922 47.068 L 20.933 34.373 L 20.933 34.373 L 20.933 34.373 L 20.933 34.373 L 20.933 34.373 Z  M 21.935 32.642 C 23.105 30.756 24.459 28.996 25.974 27.388 L 25.974 27.388 L 25.974 27.388 L 25.974 27.388 L 25.974 27.388 L 43.922 45.336 L 21.935 32.642 L 21.935 32.642 L 21.935 32.642 L 21.935 32.642 L 21.935 32.642 Z  M 79.067 65.627 C 80.11 63.694 80.965 61.645 81.608 59.505 L 81.608 59.505 L 81.608 59.505 L 57.078 52.932 L 79.067 65.627 L 79.067 65.627 L 79.067 65.627 L 79.067 65.627 L 79.067 65.627 Z  M 78.065 67.358 C 76.895 69.244 75.541 71.004 74.026 72.612 L 74.026 72.612 L 74.026 72.612 L 74.026 72.612 L 74.026 72.612 L 56.078 54.664 L 78.065 67.358 L 78.065 67.358 L 78.065 67.358 L 78.065 67.358 L 78.065 67.358 Z  M 42.427 82.125 C 44.547 82.624 46.745 82.918 49 82.985 L 49 57.596 L 42.427 82.125 L 42.427 82.125 L 42.427 82.125 L 42.427 82.125 L 42.427 82.125 L 42.427 82.125 Z  M 57.573 17.875 C 55.453 17.376 53.255 17.082 51 17.015 L 51 17.015 L 51 42.404 L 57.573 17.875 L 57.573 17.875 L 57.573 17.875 L 57.573 17.875 L 57.573 17.875 L 57.573 17.875 Z  M 17.875 42.427 C 17.376 44.547 17.082 46.745 17.015 49 L 17.015 49 L 42.404 49 L 17.875 42.427 L 17.875 42.427 L 17.875 42.427 L 17.875 42.427 L 17.875 42.427 L 17.875 42.427 L 17.875 42.427 Z  M 82.125 57.573 C 82.624 55.453 82.918 53.255 82.985 51 L 82.985 51 L 57.596 51 L 82.125 57.573 L 82.125 57.573 L 82.125 57.573 L 82.125 57.573 L 82.125 57.573 L 82.125 57.573 L 82.125 57.573 Z  M 21.935 67.358 C 23.105 69.244 24.459 71.004 25.974 72.612 L 25.974 72.612 L 25.974 72.612 L 43.922 54.664 L 21.935 67.358 L 21.935 67.358 L 21.935 67.358 L 21.935 67.358 L 21.935 67.358 L 21.935 67.358 L 21.935 67.358 L 21.935 67.358 Z  M 78.065 32.642 C 76.895 30.756 75.541 28.996 74.026 27.388 L 74.026 27.388 L 74.026 27.388 L 56.078 45.336 L 78.065 32.642 L 78.065 32.642 L 78.065 32.642 L 78.065 32.642 L 78.065 32.642 L 78.065 32.642 L 78.065 32.642 L 78.065 32.642 Z  M 32.642 21.935 C 30.756 23.105 28.996 24.459 27.388 25.974 L 27.388 25.974 L 27.388 25.974 L 45.336 43.922 L 32.642 21.935 L 32.642 21.935 L 32.642 21.935 L 32.642 21.935 L 32.642 21.935 L 32.642 21.935 L 32.642 21.935 L 32.642 21.935 L 32.642 21.935 Z  M 67.358 78.065 C 69.244 76.895 71.004 75.541 72.612 74.026 L 72.612 74.026 L 72.612 74.026 L 54.664 56.078 L 67.358 78.065 L 67.358 78.065 L 67.358 78.065 L 67.358 78.065 L 67.358 78.065 L 67.358 78.065 L 67.358 78.065 L 67.358 78.065 L 67.358 78.065 Z  M 86.426 42.919 C 87.241 45.781 89.878 47.878 93 47.878 L 93 52.122 C 89.766 52.122 87.053 54.372 86.361 57.398 C 85.816 60.453 87.434 63.584 90.411 64.848 L 88.752 68.755 C 85.878 67.535 82.632 68.435 80.764 70.751 L 80.764 70.751 C 79.317 73.35 79.699 76.697 81.906 78.905 L 78.905 81.906 C 76.618 79.619 73.109 79.292 70.48 80.942 C 67.934 82.717 66.864 86.075 68.076 89.074 L 64.14 90.664 C 62.971 87.769 60.039 86.11 57.081 86.426 L 57.081 86.426 C 54.219 87.241 52.122 89.878 52.122 93 L 47.878 93 C 47.878 89.766 45.628 87.053 42.602 86.361 C 39.547 85.816 36.416 87.434 35.152 90.411 L 31.245 88.752 C 32.465 85.878 31.565 82.632 29.249 80.764 L 29.249 80.764 C 26.65 79.317 23.303 79.699 21.095 81.906 L 18.094 78.905 C 20.381 76.618 20.708 73.109 19.058 70.48 L 19.058 70.48 C 17.283 67.934 13.925 66.864 10.926 68.076 L 9.336 64.14 C 12.231 62.971 13.89 60.039 13.574 57.081 C 12.759 54.219 10.122 52.122 7 52.122 L 7 47.878 C 10.234 47.878 12.947 45.628 13.639 42.602 L 13.639 42.602 C 14.184 39.547 12.566 36.416 9.589 35.152 L 11.248 31.245 C 14.122 32.465 17.368 31.565 19.236 29.249 C 20.683 26.65 20.301 23.303 18.094 21.095 L 21.095 18.094 C 23.382 20.381 26.891 20.708 29.52 19.058 L 29.52 19.058 C 32.066 17.283 33.136 13.925 31.924 10.926 L 35.86 9.336 C 37.029 12.231 39.961 13.89 42.919 13.574 C 45.781 12.759 47.878 10.122 47.878 7 L 52.122 7 C 52.122 10.234 54.372 12.947 57.398 13.639 L 57.398 13.639 C 60.453 14.184 63.584 12.566 64.848 9.589 L 68.755 11.248 C 67.535 14.122 68.435 17.368 70.751 19.236 C 73.35 20.683 76.697 20.301 78.905 18.094 L 81.906 21.095 C 79.619 23.382 79.292 26.891 80.942 29.52 C 82.717 32.066 86.075 33.136 89.074 31.924 L 90.664 35.86 C 87.769 37.029 86.11 39.961 86.426 42.919 L 86.426 42.919 L 86.426 42.919 L 86.426 42.919 L 86.426 42.919 L 86.426 42.919 L 86.426 42.919 L 86.426 42.919 L 86.426 42.919 L 86.426 42.919 L 86.426 42.919 L 86.426 42.919 L 86.426 42.919 L 86.426 42.919 Z  M 45 50 C 45 47.24 47.24 45 50 45 C 52.76 45 55 47.24 55 50 C 55 52.76 52.76 55 50 55 C 47.24 55 45 52.76 45 50 Z " fill-rule="evenodd" fill="rgb(235,235,235)"/></svg>