<?xml version="1.0" encoding="UTF-8" standalone="no"?><!-- Generator: Gravit.io --><svg xmlns="http://www.w3.org/2000/svg" xmlns:xlink="http://www.w3.org/1999/xlink" style="isolation:isolate" viewBox="38 25 24 66" width="24pt" height="66pt"><g><path d=" M 47.673 42.89 L 47.673 37.943 L 46.277 33.17 L 47.885 33.17 L 48.837 29.59 L 50 25.214 L 51.163 29.59 L 52.115 33.17 L 53.723 33.17 L 52.327 37.943 L 52.327 37.943 L 52.327 37.943 L 52.327 37.943 L 52.327 37.943 L 52.327 37.943 L 52.327 37.943 L 52.327 37.943 L 52.327 37.943 L 52.327 42.89 L 52.327 42.89 L 52.327 42.89 Q 53.026 42.555 54.071 42.252 C 55.238 41.913 58.346 42.753 59.345 42.429 C 60.303 42.117 61.003 40.569 59.91 40.604 C 59.614 40.946 59.135 41.17 58.595 41.17 C 57.702 41.17 56.976 40.559 56.976 39.808 L 56.976 39.808 C 56.976 39.056 57.702 38.446 58.595 38.446 L 58.595 38.446 Q 61.832 38.36 61.832 41.17 C 61.832 43.063 59.467 44.183 57.628 43.844 Q 56.31 43.601 54.075 44.44 L 52.55 48.138 L 52.55 48.138 L 52.55 49.214 Q 55.359 48.608 59.275 49.858 Q 54.59 49.502 52.55 50.875 L 52.55 50.875 L 52.55 51.818 L 52.55 51.818 Q 54.195 51.41 55.728 52.582 Q 53.607 53.538 52.669 56.406 Q 55.883 54.796 61.186 54.277 Q 54.86 56.458 53.06 59.263 L 53.06 65.364 Q 56.309 64.439 59.329 66.748 Q 54.683 68.841 53.032 75.771 L 53.032 82.567 C 54.088 83.441 54.762 84.761 54.762 86.238 C 54.762 88.866 52.628 91 50 91 C 47.372 91 45.238 88.866 45.238 86.238 C 45.238 84.761 45.912 83.441 46.968 82.567 L 46.968 82.567 L 46.968 82.567 L 46.968 75.673 Q 45.308 68.826 40.695 66.748 Q 43.704 64.447 46.94 65.357 L 46.94 59.263 Q 45.14 56.458 38.814 54.277 Q 44.117 54.796 47.331 56.406 Q 46.393 53.538 44.272 52.582 Q 45.805 51.41 47.45 51.818 L 47.45 51.818 L 47.45 51.092 L 47.45 51.092 Q 45.471 49.475 40.432 49.858 Q 44.554 48.542 47.45 49.283 L 47.45 48.138 L 45.925 44.44 Q 43.69 43.601 42.372 43.844 C 40.533 44.183 38.168 43.063 38.168 41.17 Q 38.168 38.36 41.405 38.446 L 41.405 38.446 C 42.298 38.446 43.024 39.056 43.024 39.808 L 43.024 39.808 C 43.024 40.559 42.298 41.17 41.405 41.17 C 40.865 41.17 40.386 40.946 40.09 40.604 C 38.997 40.569 39.697 42.117 40.655 42.429 C 41.654 42.753 44.762 41.913 45.929 42.252 Q 46.974 42.555 47.673 42.89 Z  M 47.858 86.238 C 47.858 85.056 48.818 84.096 50 84.096 C 51.182 84.096 52.142 85.056 52.142 86.238 C 52.142 87.42 51.182 88.38 50 88.38 C 48.818 88.38 47.858 87.42 47.858 86.238 L 47.858 86.238 L 47.858 86.238 L 47.858 86.238 L 47.858 86.238 Z " fill-rule="evenodd" fill="rgb(235,235,235)"/><path d=" M 49.165 85.374 L 49.165 75.144 L 48.593 70.489 Q 47.595 69.345 45.993 68.859 Q 47.437 68.115 48.97 68.216 L 49.392 65.944 L 49.696 64.307 L 49.165 59.996 L 48.471 54.351 Q 47.829 53.424 46.662 53.07 Q 47.799 52.484 49.027 52.758 L 49.392 50.796 L 49.727 48.995 L 49.382 45.209 Q 48.735 44.188 47.496 43.812 Q 48.333 43.381 49.218 43.415 L 49.165 42.834 L 48.331 33.673 L 48.987 33.673 L 49.392 31.976 L 50 29.426 L 50.608 31.976 L 51.013 33.673 L 51.669 33.673 L 50.835 42.834 L 50.782 43.415 Q 51.667 43.381 52.504 43.812 Q 51.265 44.188 50.618 45.209 L 50.273 48.995 L 50.608 50.796 L 50.973 52.758 Q 52.201 52.484 53.338 53.07 Q 52.171 53.424 51.529 54.351 L 50.835 59.996 L 50.304 64.307 L 50.608 65.944 L 51.03 68.216 Q 52.563 68.115 54.007 68.859 Q 52.405 69.345 51.407 70.489 L 50.835 75.144 L 50.835 85.374 C 51.061 85.593 51.201 85.899 51.201 86.238 C 51.201 86.901 50.663 87.439 50 87.439 C 49.337 87.439 48.799 86.901 48.799 86.238 C 48.799 85.899 48.939 85.593 49.165 85.374 Z " fill-rule="evenodd" fill="rgb(0,0,0)"/></g></svg>