<?xml version="1.0" encoding="UTF-8" standalone="no"?><!-- Generator: Gravit.io --><svg xmlns="http://www.w3.org/2000/svg" xmlns:xlink="http://www.w3.org/1999/xlink" style="isolation:isolate" viewBox="41 9 19 82" width="19pt" height="82pt"><g><path d=" M 48.371 81.762 L 48.371 74.452 Q 46.962 64.481 42.3 61.634 Q 45.213 58.614 48.356 59.995 L 48.356 52.866 Q 46.949 48.946 40.557 45.959 Q 45.473 46.61 48.452 48.634 L 48.452 48.634 L 48.452 48.634 L 48.452 48.634 L 48.452 48.634 Q 47.583 45.029 45.616 43.828 Q 47.069 42.322 48.63 42.891 L 48.63 42.031 L 48.63 42.031 Q 46.814 39.913 42.057 40.405 Q 45.926 38.73 48.63 39.705 L 48.63 37.703 L 48.636 37.703 L 47.808 32.656 L 48.75 32.656 L 48.75 32.656 L 48.75 25.428 L 48 19.428 L 48.864 19.428 L 49.375 14.928 L 50 9.428 L 50.625 14.928 L 51.136 19.428 L 52 19.428 L 51.25 25.428 L 51.25 25.428 L 51.25 25.428 L 51.25 25.428 L 51.25 25.428 L 51.25 25.428 L 51.25 25.428 L 51.25 25.428 L 51.25 25.428 L 51.25 32.656 L 52.192 32.656 L 51.364 37.703 L 51.364 37.703 L 51.37 37.703 L 51.37 39.615 Q 53.994 38.813 57.672 40.405 Q 53.25 39.948 51.37 41.745 L 51.37 41.745 L 51.37 42.891 Q 52.931 42.322 54.384 43.828 Q 52.417 45.029 51.548 48.634 L 51.548 48.634 Q 54.527 46.61 59.443 45.959 Q 53.051 48.946 51.644 52.866 L 51.644 60.005 Q 54.799 58.604 57.722 61.634 Q 53.023 64.504 51.629 74.607 L 51.629 81.762 C 53.456 82.428 54.762 84.182 54.762 86.238 C 54.762 88.866 52.628 91 50 91 C 47.372 91 45.238 88.866 45.238 86.238 C 45.238 84.182 46.544 82.428 48.371 81.762 Z  M 47.858 86.238 C 47.858 85.056 48.818 84.096 50 84.096 C 51.182 84.096 52.142 85.056 52.142 86.238 C 52.142 87.42 51.182 88.38 50 88.38 C 48.818 88.38 47.858 87.42 47.858 86.238 Z " fill-rule="evenodd" fill="rgb(235,235,235)"/><path d=" M 49.5 85.146 L 49.5 72.187 L 49.354 69.706 Q 48.848 65.465 47 64.288 Q 48.136 63.06 49.364 63.664 L 49.366 63.664 L 49.636 60.624 L 49.818 58.566 L 49.5 53.147 L 49.084 46.051 Q 48.699 44.887 48 44.441 Q 48.682 43.705 49.417 44.049 L 49.636 41.584 L 49.836 39.319 L 49.5 31.575 L 49 20.061 L 49.393 20.061 L 49.636 17.928 L 50 14.722 L 50.364 17.928 L 50.607 20.061 L 51 20.061 L 50.5 31.575 L 50.164 39.319 L 50.364 41.584 L 50.583 44.049 Q 51.318 43.705 52 44.441 Q 51.301 44.887 50.916 46.051 L 50.5 53.147 L 50.182 58.566 L 50.364 60.624 L 50.634 63.664 L 50.636 63.664 Q 51.864 63.06 53 64.288 Q 51.152 65.465 50.646 69.706 L 50.5 72.187 L 50.5 85.146 C 50.914 85.336 51.201 85.753 51.201 86.238 C 51.201 86.901 50.663 87.439 50 87.439 C 49.337 87.439 48.799 86.901 48.799 86.238 C 48.799 85.753 49.086 85.336 49.5 85.146 Z " fill-rule="evenodd" fill="rgb(0,0,0)"/></g></svg>